<?xml version="1.0" encoding="UTF-8"?>
<svg id="Layer_1" xmlns="http://www.w3.org/2000/svg" version="1.1" viewBox="0 0 242.25 61.92">
  <!-- Generator: Adobe Illustrator 29.0.1, SVG Export Plug-In . SVG Version: 2.1.0 Build 192)  -->
  <path d="M9.72,21.75s.08.04.09,0c.62-1.64,1.27-3.28,1.93-4.92,1.54-3.81,3.14-7.57,4.63-11.16.93-2.26,1.13-2.52,3.21-3.06.05-.01.04-.08,0-.08-1.99.12-4.66.08-6.28.02-.05,0-.07.07,0,.08,2.54.45,3.12,1.31,2.29,3.46-1.37,3.61-2.81,7.16-4.24,10.66-.38.88-1.44.88-1.82,0-1.53-3.52-3.02-7.1-4.46-10.79-.81-2.08-.17-2.86,1.73-3.34.05-.01.04-.08,0-.08-2.8.12-4.46.11-6.73,0-.07,0-.07.07-.03.08,1.82.56,1.9.67,3.14,3.59,2.1,4.96,4.45,10.26,6.55,15.55Z"/>
  <path d="M24.9,21.59c1.83,0,3.96-.59,5.24-2.94.02-.04-.02-.06-.05-.03-1.34,1.44-2.87,2-4.32,2-2.71,0-5.02-1.85-5.33-5.97-.08-.99.42-1.61,1.26-1.61h8.53s.06-.01.06-.05c.19-3.47-2.19-5.34-5.17-5.34-3.51,0-6.64,2.68-6.64,7.03s2.59,6.92,6.41,6.92ZM20.65,11.49c.57-2.63,2.45-3.75,4.12-3.75s3.36,1.06,3.56,3.72c.08.88-.39,1.52-1.24,1.52h-5.37c-.84,0-1.26-.62-1.07-1.49Z"/>
  <path d="M40.24,20.97c-2.56-.53-2.82-.85-2.88-3.88-.03-1.37-.03-2.72,0-4.09.05-3.4,2.13-4.96,4.21-3.48,2.35,1.67,3.45-1.93.8-1.93-1.01,0-1.91.57-3.01,1.35-1.07.77-2,.16-2-.94,0-.57-.02-.59-.08-.56-1.45.65-2.26,1.07-3.73,1.76-.03.01-.03.05,0,.07,1.69.77,2.14,1.18,2.17,3.29.03,1.51.03,2.99,0,4.51-.06,2.93-.19,3.44-2.03,3.88-.05.01-.03.07,0,.07,1.83-.03,4.06-.03,6.51,0,.05,0,.06-.06,0-.07Z"/>
  <path d="M53.21,21.59c3.99,0,6.83-2.84,6.83-7s-2.75-7-6.75-7-6.86,2.9-6.86,7.03,2.75,6.97,6.77,6.97ZM52.93,7.67c2.39,0,4.85,2.45,5.01,6.95.17,4.5-2.03,6.9-4.4,6.9s-4.85-2.49-5.01-7.03c-.17-4.44,2.03-6.81,4.4-6.81Z"/>
  <path d="M72.92,18.09c0-1.24-.7-2.48-2.59-3.47-.9-.44-1.79-.92-2.69-1.37-1.59-.8-2.22-1.8-2.22-2.91,0-1.73,1.38-2.6,2.99-2.6,2.03,0,3.23,1.39,3.74,3.29.01.05.07.04.07,0-.03-.68-.03-1.43.03-2.8,0-.05,0-.06-.05-.08-1.24-.38-2.36-.49-3.46-.49-3.05,0-4.92,1.26-4.92,3.55,0,1.52.79,2.54,2.56,3.45.79.39,1.6.79,2.38,1.18,1.76.86,2.56,2.06,2.56,3.17,0,1.44-1.33,2.47-3.08,2.47-1.94,0-3.65-1.28-4.4-3.87-.01-.05-.07-.04-.07.01.03.92.07,1.8.01,2.99,0,.03,0,.05.03.06,1.15.56,2.8.88,4.2.88,3.83,0,4.89-1.9,4.89-3.45Z"/>
  <path d="M83.86,14.58c-1.16.42-2.02.83-3.64,1.44-2.39.92-3.38,1.61-3.38,3.17,0,1.66,1,2.41,2.94,2.41,1.69,0,2.54-.55,3.63-1.42.68-.6,1.28-.38,1.61.17.49.79,1.05,1.24,2.02,1.24,1.19,0,2.07-.79,2.32-1.57.03-.05-.02-.06-.04-.03-1.22,1.13-2.65.51-2.65-1.03-.03-2.6-.03-5.04,0-7.59.03-2.65-1.7-3.78-3.69-3.78-2.75,0-5.91,2.5-5.91,4.17,0,1.37,2.04,1.32,1.96-.62-.03-.42-.05-.72-.05-1.06,0-1.43,1.29-1.91,2.78-1.94,2.52-.03,3.3,1.5,3.3,3.23v1.46c0,.86-.27,1.42-1.18,1.75ZM85.05,17.14c0,1.48-1.44,3.66-3.78,3.66-1.47,0-2.38-.82-2.38-2.26,0-1.03.44-2.37,4.38-3.62,1.05-.33,1.78-.06,1.78,1.29v.92Z"/>
  <path d="M104.87,17.09c-.03-1.96-.03-3.95,0-5.91.05-3.8-3.75-4.62-7.36-2.2-1,.68-1.93.23-1.93-.96,0-.61-.03-.63-.08-.6-1.57.77-2.38,1.19-3.73,1.8-.03.01-.03.05.34.25,1.34.61,1.8,1,1.84,3.11.03,1.51.03,2.99,0,4.51-.06,3.04-.28,3.47-2,3.89-.05.01-.04.08,0,.08,1.87-.03,3.69-.03,5.57,0,.05,0,.06-.06,0-.08-1.94-.47-1.91-1.09-1.97-3.89-.03-1.37-.03-2.72,0-4.09.03-1.57.44-2.86,1.53-3.68,2.84-2.07,6.08-.69,6.14,2.65.03,1.71.03,3.42,0,5.13-.05,2.93-.18,3.45-2,3.89-.05.02-.03.08,0,.08,1.88-.03,3.7-.03,5.58,0,.05,0,.06-.06,0-.08-1.91-.47-1.94-1.05-1.97-3.89Z"/>
  <path d="M117.18,14.58c-1.16.42-2.02.83-3.64,1.44-2.39.92-3.38,1.61-3.38,3.17,0,1.66,1,2.41,2.94,2.41,1.69,0,2.54-.55,3.63-1.42.68-.6,1.28-.38,1.61.17.49.79,1.05,1.24,2.02,1.24,1.19,0,2.07-.79,2.32-1.57.03-.05-.02-.06-.04-.03-1.22,1.13-2.65.51-2.65-1.03-.03-2.6-.03-5.04,0-7.59.03-2.65-1.7-3.78-3.69-3.78-2.75,0-5.91,2.5-5.91,4.17,0,1.37,2.04,1.32,1.96-.62-.03-.42-.05-.72-.05-1.06,0-1.43,1.29-1.91,2.78-1.94,2.52-.03,3.3,1.5,3.3,3.23v1.46c0,.86-.27,1.42-1.18,1.75ZM118.36,17.14c0,1.48-1.44,3.66-3.78,3.66-1.47,0-2.38-.82-2.38-2.26,0-1.03.44-2.37,4.38-3.62,1.05-.33,1.78-.06,1.78,1.29v.92Z"/>
  <path d="M134.57,18.09c0-1.24-.7-2.48-2.59-3.47-.9-.44-1.79-.92-2.69-1.37-1.59-.8-2.22-1.8-2.22-2.91,0-1.73,1.38-2.6,2.99-2.6,2.03,0,3.23,1.39,3.74,3.29.01.05.07.04.07,0-.03-.68-.03-1.43.03-2.8,0-.05,0-.06-.05-.08-1.24-.38-2.36-.49-3.46-.49-3.05,0-4.92,1.26-4.92,3.55,0,1.52.79,2.54,2.56,3.45.79.39,1.6.79,2.38,1.18,1.76.86,2.56,2.06,2.56,3.17,0,1.44-1.33,2.47-3.08,2.47-1.94,0-3.65-1.28-4.4-3.87-.01-.05-.07-.04-.07.01.03.92.07,1.8.01,2.99,0,.03,0,.05.03.06,1.15.56,2.8.88,4.2.88,3.83,0,4.89-1.9,4.89-3.45Z"/>
  <path d="M160.4,19.99c-1.9.01-2.37-.55-2.37-1.87-.03-6.41-.03-11.31,0-18.06,0-.05-.03-.08-.08-.04-1.5.83-2.39,1.27-3.75,1.81-.04.01-.04.05,0,.07,1.71.81,2.2,1.2,2.2,2.7v2.52c0,.94-.59,1.48-1.55,1.07-.94-.38-1.89-.52-2.95-.52-3.96,0-6.69,2.82-6.69,7.24s2.85,6.69,5.6,6.69c1.63,0,2.71-.54,3.69-1.35.9-.68,1.91-.28,1.91.9,0,.23.03.6.08.58,1.5-.64,2.6-1.09,3.93-1.66.03,0,.03-.07-.02-.07ZM156.41,16.61c0,2.44-2,4.29-4.25,4.29-2.93,0-4.99-2.65-4.99-6.95,0-4.75,2.34-6.21,4.65-6.21,2.89,0,4.59,2.32,4.59,4.08v4.79Z"/>
  <path d="M165.06,4.44c.87,0,1.47-.6,1.47-1.5,0-.77-.57-1.32-1.47-1.32s-1.46.6-1.46,1.44.57,1.39,1.46,1.39Z"/>
  <path d="M166.13,17.09c-.03-3.03-.03-6.05,0-9.64,0-.04-.02-.07-.08-.04-1.67.82-2.43,1.21-3.73,1.82-.03.01-.03.05,0,.07,1.74.85,2.14,1.13,2.17,3.22.03,1.57.03,3.06,0,4.57-.06,3.04-.27,3.47-1.99,3.89-.05.01-.04.08,0,.08,1.87-.03,3.69-.03,5.57,0,.05,0,.06-.06,0-.08-1.94-.47-1.92-1.09-1.98-3.89Z"/>
  <path d="M181.43,21.13s.06-.03.07-.07c.14-1.34.18-2.07.38-3.41,0-.05-.05-.06-.07-.01-.96,2.77-2.17,3.43-4.62,3.43h-2.32c-1.15,0-1.46-.93-.83-1.83,2.44-3.44,4.99-7.14,7.88-11.12.03-.04.01-.08-.03-.08h-10.29c-.05,0-.07.02-.08.05-.11,1.44-.18,2.08-.3,3.08,0,.05.05.06.07.02.8-2.28,2.16-3.08,4.56-3.09h2.21c.96,0,1.35.91.78,1.71-2.43,3.46-4.98,7.18-7.93,11.23-.03.04-.01.08.04.08h10.49Z"/>
  <path d="M197.54,20.03s-.02-.06-.04-.03c-1.22,1.13-2.65.51-2.65-1.03-.03-2.6-.03-5.04,0-7.59.03-2.65-1.7-3.78-3.69-3.78-2.75,0-5.91,2.5-5.91,4.17,0,1.37,2.04,1.32,1.96-.62-.03-.42-.05-.72-.05-1.06,0-1.43,1.29-1.91,2.78-1.94,2.52-.03,3.3,1.5,3.3,3.23v1.46c0,.86-.27,1.42-1.18,1.75-1.16.42-2.02.83-3.64,1.44-2.39.92-3.38,1.61-3.38,3.17,0,1.66,1,2.41,2.94,2.41,1.69,0,2.54-.55,3.63-1.42.68-.6,1.28-.38,1.61.17.49.79,1.05,1.24,2.02,1.24,1.19,0,2.07-.79,2.32-1.57ZM193.23,17.14c0,1.48-1.44,3.66-3.78,3.66-1.47,0-2.38-.82-2.38-2.26,0-1.03.44-2.37,4.38-3.62,1.05-.33,1.78-.06,1.78,1.29v.92Z"/>
  <path d="M202.69,4.44c.87,0,1.47-.6,1.47-1.5,0-.77-.57-1.32-1.47-1.32s-1.46.6-1.46,1.44.57,1.39,1.46,1.39Z"/>
  <path d="M202.14,12.51c.03,1.57.03,3.06,0,4.57-.06,3.04-.27,3.47-1.99,3.89-.05.01-.04.08,0,.08,1.87-.03,3.69-.03,5.57,0,.05,0,.06-.06,0-.08-1.94-.47-1.92-1.09-1.98-3.89-.03-3.03-.03-6.05,0-9.64,0-.04-.02-.07-.08-.04-1.67.82-2.43,1.21-3.73,1.82-.03.01-.03.05,0,.07,1.74.85,2.14,1.13,2.17,3.22Z"/>
  <path d="M221.68,17.09c-.03-1.96-.03-3.95,0-5.91.05-3.8-3.75-4.62-7.36-2.2-1,.68-1.93.23-1.93-.96,0-.61-.03-.63-.08-.6-1.57.77-2.38,1.19-3.73,1.8-.03.01-.03.05.34.25,1.34.61,1.8,1,1.84,3.11.03,1.51.03,2.99,0,4.51-.06,3.04-.28,3.47-2,3.89-.05.01-.04.08,0,.08,1.87-.03,3.69-.03,5.57,0,.05,0,.06-.06,0-.08-1.94-.47-1.91-1.09-1.97-3.89-.03-1.37-.03-2.72,0-4.09.03-1.57.44-2.86,1.53-3.68,2.84-2.07,6.08-.69,6.14,2.65.03,1.71.03,3.42,0,5.13-.05,2.93-.18,3.45-2,3.89-.05.02-.03.08,0,.08,1.88-.03,3.7-.03,5.58,0,.05,0,.06-.06,0-.08-1.91-.47-1.94-1.05-1.97-3.89Z"/>
  <path d="M233.33,14.62c-.9-.44-1.79-.92-2.69-1.37-1.59-.8-2.22-1.8-2.22-2.91,0-1.73,1.38-2.6,2.99-2.6,2.03,0,3.23,1.39,3.74,3.29.01.05.07.04.07,0-.03-.68-.03-1.43.03-2.8,0-.05,0-.06-.05-.08-1.24-.38-2.36-.49-3.46-.49-3.05,0-4.92,1.26-4.92,3.55,0,1.52.79,2.54,2.56,3.45.79.39,1.6.79,2.38,1.18,1.76.86,2.56,2.06,2.56,3.17,0,1.44-1.33,2.47-3.08,2.47-1.94,0-3.65-1.28-4.4-3.87-.01-.05-.07-.04-.07.01.03.92.07,1.8.01,2.99,0,.03,0,.05.03.06,1.15.56,2.8.88,4.2.88,3.83,0,4.89-1.9,4.89-3.45,0-1.24-.7-2.48-2.59-3.47Z"/>
  <path d="M240.84,18.89c-.8,0-1.42.6-1.42,1.38s.62,1.42,1.42,1.42,1.41-.62,1.41-1.42-.61-1.38-1.41-1.38Z"/>
  <path d="M9.14,36.1c-2.64,0-5.15.11-6.84.02-.05,0-.06.05-.01.08,1.95.67,2.22,1.01,2.25,4.1.03,3.7,0,6.89-.03,10.17-.03,2.96-.23,3.58-2.26,4.13-.05.01-.03.08,0,.08,1.85-.09,4.35-.03,7.91-.03,6.82.01,11.2-3.17,11.2-9.14s-4.78-9.42-12.23-9.41ZM10.22,54.32c-3.17,0-3.84-1.11-3.87-3.86-.03-3.98-.05-7.4-.03-12.35,0-1.3.19-1.68,2.8-1.68,5.82,0,9.97,2.78,9.92,8.99-.05,5.5-3.57,8.9-8.82,8.9Z"/>
  <path d="M31.09,41.24c-3.51,0-6.64,2.68-6.64,7.03s2.59,6.92,6.41,6.92c1.83,0,3.96-.59,5.24-2.94.02-.04-.02-.06-.05-.03-1.34,1.44-2.87,2-4.32,2-2.71,0-5.02-1.85-5.33-5.97-.08-.99.42-1.61,1.26-1.61h8.53s.06-.01.06-.05c.19-3.47-2.19-5.34-5.17-5.34ZM33.04,46.58h-5.37c-.84,0-1.26-.62-1.07-1.49.57-2.63,2.45-3.75,4.12-3.75s3.36,1.06,3.56,3.72c.08.88-.39,1.52-1.24,1.52Z"/>
  <path d="M47.69,41.19c-1.44,0-2.54.41-3.63,1.27-.95.76-2,.35-2-.85-.03-2.94-.03-4.45,0-7.95,0-.05-.03-.08-.08-.04-1.5.82-2.4,1.27-3.74,1.81-.04.01-.04.05,0,.07,1.8.87,2.2,1.2,2.2,2.7.05,6.41.05,11.53,0,17.36,0,.05.05.07.1.02,1.24-1.31,1.59-1.52,2.64-1.12,1.04.42,2.19.65,3.45.65,3.71,0,6.64-2.54,6.64-7.25s-2.91-6.67-5.57-6.67ZM46.63,55.04c-2.65,0-4.53-2.19-4.57-3.99-.03-1.63-.03-3.31,0-4.96.03-2.55,2.13-4.2,4.31-4.2,3.17,0,4.93,3.18,4.93,6.95,0,4.52-2.22,6.21-4.68,6.21Z"/>
  <path d="M62.76,41.24c-3.51,0-6.64,2.68-6.64,7.03s2.59,6.92,6.41,6.92c1.83,0,3.96-.59,5.24-2.94.02-.04-.02-.06-.05-.03-1.34,1.44-2.87,2-4.32,2-2.71,0-5.02-1.85-5.33-5.97-.08-.99.42-1.61,1.26-1.61h8.53s.06-.01.06-.05c.19-3.47-2.19-5.34-5.17-5.34ZM64.72,46.58h-5.37c-.84,0-1.26-.62-1.07-1.49.57-2.63,2.45-3.75,4.12-3.75s3.36,1.06,3.56,3.72c.08.88-.39,1.52-1.24,1.52Z"/>
  <path d="M78.09,48.22c-.9-.44-1.79-.92-2.69-1.37-1.59-.8-2.22-1.8-2.22-2.91,0-1.73,1.38-2.6,2.99-2.6,2.03,0,3.23,1.39,3.74,3.29.01.05.07.04.07,0-.03-.68-.03-1.43.03-2.8,0-.05,0-.06-.05-.08-1.24-.38-2.36-.49-3.46-.49-3.05,0-4.92,1.26-4.92,3.55,0,1.52.79,2.54,2.56,3.45.79.39,1.6.79,2.38,1.18,1.76.86,2.56,2.06,2.56,3.17,0,1.44-1.33,2.47-3.08,2.47-1.94,0-3.65-1.28-4.4-3.87-.01-.05-.07-.04-.07.01.03.92.07,1.8.01,2.99,0,.03,0,.05.03.06,1.15.56,2.8.88,4.2.88,3.83,0,4.89-1.9,4.89-3.45,0-1.24-.7-2.48-2.59-3.47Z"/>
  <path d="M95.94,51.33v-10.04s-.01-.06-.07-.05c-1.66.25-2.53.37-3.59.45-.05,0-.05.07,0,.08,1.63.17,2.02.72,2.02,2.39v5.63c0,1.45-.39,2.96-1.55,3.79-2.9,2.14-6.12.5-6.12-2.89v-9.39s-.01-.06-.07-.05c-1.66.25-2.53.37-3.59.45-.05,0-.05.07,0,.08,1.63.17,2.03.72,2.03,2.39v7.53c0,3.8,3.58,4.74,7.35,2.21.94-.62,1.94-.23,1.94.87,0,.41.02.43.08.41,1.59-.68,2.68-1.05,3.9-1.5.04-.01.04-.07-.02-.07-1.69,0-2.32-.71-2.32-2.29Z"/>
  <path d="M116.99,41.19c-1.35,0-2.52.51-3.55,1.32-1.03.76-1.94.13-1.94-.9,0-.57-.02-.59-.08-.56-1.45.65-2.32,1.07-3.79,1.76-.03.01-.03.05,0,.07,1.83.88,2.24,1.07,2.24,3.29.03,3.78.03,8.01,0,11.79-.03,3.01-.3,3.46-2.05,3.89-.05.01-.03.07,0,.07,1.79-.03,3.9-.03,5.69,0,.05,0,.06-.06.01-.07-1.92-.48-2.04-.99-2.04-3.89v-2.19c0-1.16.59-1.53,1.5-1.18,1.03.38,1.8.51,2.86.51,3.99,0,6.83-2.6,6.83-7.15s-2.84-6.77-5.71-6.77ZM116.04,55.04c-2.48,0-4.54-2.01-4.54-4.11v-4.76c0-2.4,1.95-4.29,4.26-4.29,2.97,0,4.98,2.79,4.98,6.92,0,3.79-1.59,6.23-4.7,6.23Z"/>
  <path d="M132.97,41.19c-3.99,0-6.86,2.9-6.86,7.03s2.75,6.97,6.77,6.97,6.83-2.84,6.83-7-2.75-7-6.75-7ZM133.22,55.12c-2.39,0-4.85-2.49-5.01-7.03-.17-4.44,2.03-6.81,4.4-6.81s4.85,2.45,5.01,6.95c.17,4.5-2.03,6.9-4.4,6.9Z"/>
  <path d="M149.73,41.24c-3.51,0-6.64,2.68-6.64,7.03s2.59,6.92,6.41,6.92c1.83,0,3.96-.59,5.24-2.94.02-.04-.02-.06-.05-.03-1.34,1.44-2.87,2-4.32,2-2.71,0-5.02-1.85-5.33-5.97-.08-.99.42-1.61,1.26-1.61h8.53s.06-.01.06-.05c.19-3.47-2.19-5.34-5.17-5.34ZM151.69,46.58h-5.37c-.84,0-1.26-.62-1.07-1.49.57-2.63,2.45-3.75,4.12-3.75s3.36,1.06,3.56,3.72c.08.88-.39,1.52-1.24,1.52Z"/>
  <path d="M165.58,53.13c-2.15,1.8-4.59,1.27-4.59-1.16,0-2.83.03-5.69.03-8.6,0-.6.38-1.09,1.18-1.09.9,0,1.76,0,2.66.03.69.02.69-.76,0-.73-.9.03-1.76.03-2.66.03-.79,0-1.15-.41-1.15-.96v-2.14s-.04-.05-.07-.02c-1.3,1.39-2.42,2.5-3.73,3.64-.03.03-.02.07.03.07,1.63,0,2.11.38,2.11,1.76,0,2.46-.03,5.46-.03,8.42,0,1.52.83,2.8,2.91,2.8,1.89,0,2.93-1.24,3.35-2.02.02-.04,0-.07-.05-.04Z"/>
  <path d="M171.04,38.04c.87,0,1.47-.6,1.47-1.5,0-.77-.57-1.32-1.47-1.32s-1.46.6-1.46,1.44.57,1.39,1.46,1.39Z"/>
  <path d="M172.11,50.69c-.03-3.03-.03-6.05,0-9.64,0-.04-.02-.07-.08-.04-1.67.82-2.43,1.21-3.73,1.82-.03.01-.03.05,0,.07,1.74.85,2.14,1.13,2.17,3.22.03,1.57.03,3.06,0,4.57-.06,3.04-.27,3.47-1.99,3.89-.05.01-.04.08,0,.08,1.87-.03,3.69-.03,5.57,0,.05,0,.06-.06,0-.08-1.94-.47-1.92-1.09-1.98-3.89Z"/>
  <path d="M188.1,52.41c-1.5-1.5-2.98-3.01-4.45-4.48-.37-.36-.53-.85-.03-1.29.84-.72,1.59-1.39,2.41-2.11.25-.22.51-.43.77-.64,1.23-1.05,2.49-1.78,3.72-2.07.05-.02.05-.08-.01-.08-1.6.03-3.82.03-5.53,0-.06,0-.06.06,0,.08,1.46.44,2.13,1.7,1,2.67-.81.71-1.56,1.37-2.39,2.09-.34.29-.7.59-1.08.91-.99.83-2.02.34-2.03-.71-.02-4.65-.02-7.92,0-13.14,0-.06-.03-.07-.08-.05-1.5.73-2.49,1.23-3.73,1.82-.03.01-.03.05,0,.08,1.78.81,2.19,1.35,2.2,3.02.05,4.69.05,7.74-.01,12.17-.05,3.04-.25,3.47-1.98,3.89-.05.01-.04.08,0,.08,1.87-.03,3.69-.03,5.57,0,.05,0,.06-.06,0-.08-1.89-.49-1.98-.97-1.98-4.27v-1.22c0-1.08.88-1.48,1.67-.71,1.17,1.16,2.29,2.3,3.68,3.71,1.03,1.05.74,2.13-.36,2.5-.04.02-.04.08.01.08,1.76-.03,3.86-.03,5.63,0,.06,0,.08-.05.02-.08-1-.31-1.81-.92-3.06-2.17Z"/>
  <path d="M206.16,53.59c-1.22,1.13-2.65.51-2.65-1.03-.03-2.6-.03-5.04,0-7.59.03-2.65-1.7-3.78-3.69-3.78-2.75,0-5.91,2.5-5.91,4.17,0,1.37,2.04,1.32,1.96-.62-.03-.42-.05-.72-.05-1.06,0-1.43,1.29-1.91,2.78-1.94,2.52-.03,3.3,1.5,3.3,3.23v1.46c0,.86-.27,1.42-1.18,1.75-1.16.42-2.02.83-3.64,1.44-2.39.92-3.38,1.61-3.38,3.17,0,1.66,1,2.41,2.94,2.41,1.69,0,2.54-.55,3.63-1.42.68-.6,1.28-.38,1.61.17.49.79,1.05,1.24,2.02,1.24,1.19,0,2.07-.79,2.32-1.57.03-.05-.02-.06-.04-.03ZM201.9,50.74c0,1.48-1.44,3.66-3.78,3.66-1.47,0-2.38-.82-2.38-2.26,0-1.03.44-2.37,4.38-3.62,1.05-.33,1.78-.06,1.78,1.29v.92Z"/>
  <path d="M210.74,52.49c-.8,0-1.42.6-1.42,1.38s.62,1.42,1.42,1.42,1.41-.62,1.41-1.42-.61-1.38-1.41-1.38Z"/>
  <path d="M21.14,3.69h6.89c.17,0,.3-.13.3-.3s-.13-.3-.3-.3h-6.89c-.17,0-.3.13-.3.3s.13.3.3.3Z"/>
  <path d="M152.89,37.57c.17,0,.3-.13.3-.3s-.13-.3-.3-.3h-6.89c-.17,0-.3.13-.3.3s.13.3.3.3h6.89Z"/>
  <path d="M72.07.81l-2.71,1.94c-.54.38-1.26.38-1.79,0l-2.71-1.94,3.61,4.45,3.61-4.45Z"/>
</svg>