<?xml version="1.0" encoding="UTF-8"?>
<svg id="Layer_1" xmlns="http://www.w3.org/2000/svg" version="1.1" viewBox="0 0 242.06 61.78">
  <!-- Generator: Adobe Illustrator 29.0.1, SVG Export Plug-In . SVG Version: 2.1.0 Build 192)  -->
  <path d="M9.65,21.64c.62-1.64,1.26-3.27,1.91-4.89,1.52-3.75,3.1-7.49,4.58-11.09.97-2.37,1.2-2.62,3.21-3.16-1.98.1-4.43.07-6.11.01,2.49.46,3.12,1.31,2.28,3.52-1.39,3.61-2.82,7.16-4.25,10.66-.4.94-1.54.93-1.95-.02-1.53-3.51-3.01-7.1-4.46-10.79-.8-2.06-.21-2.89,1.69-3.38-2.8.11-4.29.1-6.56,0,1.74.55,1.87.67,3.1,3.55,2.1,4.96,4.44,10.29,6.54,15.59Z"/>
  <path d="M24.74,7.68c2,.03,3.36,1.49,3.53,3.64.08.9-.35,1.5-1.12,1.55h2.97c.2-3.57-2.37-5.38-5.37-5.2Z"/>
  <path d="M24.78,21.43c1.82,0,3.77-.58,4.96-2.64-1.3,1.31-2.74,1.8-4.09,1.8-2.74,0-5.09-1.87-5.39-6.03-.08-1.02.43-1.62,1.2-1.65-.79-.04-1.2-.65-1-1.52.46-2.19,1.83-3.27,3.14-3.55-2.82.55-5.16,2.99-5.16,6.74,0,4.21,2.56,6.85,6.34,6.85Z"/>
  <path d="M41.51,9.39c2.24,1.59,3.29-1.82.73-1.82-1,0-2.08.68-2.99,1.36.66-.24,1.44-.12,2.26.46Z"/>
  <path d="M37.17,16.99c-.03-1.37-.03-2.72,0-4.09.03-1.82.63-3.14,1.55-3.74-.84.3-1.55-.27-1.55-1.23v-.51c-1.48.67-2.21,1.05-3.64,1.72,1.67.77,2.12,1.22,2.15,3.33.03,1.51.03,2.99,0,4.57-.06,2.91-.24,3.4-1.96,3.84,1.7-.03,3.93-.03,6.2,0-2.43-.53-2.7-.86-2.75-3.9Z"/>
  <path d="M54.06,21.31c3.4-.37,5.78-3.06,5.78-6.82,0-4.66-3.38-7.07-6.92-6.88,2.97.06,4.83,3.27,4.96,6.9.16,4.14-1.72,6.47-3.82,6.79Z"/>
  <path d="M48.34,14.39c-.16-4.02,1.66-6.32,3.77-6.69-3.25.37-5.73,2.99-5.73,6.83,0,4.29,2.91,6.97,6.86,6.86-2.97-.12-4.76-3.34-4.89-6.99Z"/>
  <path d="M68.87,7.64c-.14,0-.27,0-.4.01,2.09.07,3.06,1.39,3.57,3.13-.02-.68-.02-1.37.03-2.66-1.2-.36-2.18-.47-3.2-.49Z"/>
  <path d="M68.71,21.29c3.06-.18,4.02-1.84,4.02-3.29,0-1.23-.7-2.44-2.56-3.41-.9-.44-1.79-.92-2.69-1.37-1.62-.82-2.26-1.85-2.26-2.97,0-1.56,1.11-2.39,2.47-2.53-2.45.21-3.93,1.38-3.93,3.4,0,1.52.81,2.5,2.54,3.39.79.39,1.6.79,2.38,1.18,1.76.87,2.58,2.1,2.58,3.22,0,1.29-1.08,2.24-2.56,2.4Z"/>
  <path d="M67.65,21.35c-1.77-.17-3.21-1.33-3.94-3.68.03.95.06,1.68,0,2.84,1.22.59,2.77.82,3.93.85Z"/>
  <path d="M78.69,18.44c0-.85.31-1.87,2.54-2.88-.37.16-.78.31-1.28.51-2.26.89-3.17,1.57-3.17,3.04,0,1.63.99,2.33,2.85,2.33,1.68,0,2.56-.62,3.29-1.22-.59.4-1.15.57-1.77.57-1.57,0-2.46-.9-2.46-2.34Z"/>
  <path d="M78.85,11.05c-.03-.42-.05-.72-.05-1.05,0-.62.25-1.05.66-1.33-1.42.87-2.45,2.07-2.45,3,0,1.3,1.92,1.26,1.84-.62Z"/>
  <path d="M84.99,11.28v1.46c0,.87-.29,1.43-1.13,1.76-.53.2-.99.39-1.53.61.3-.12.64-.23,1.02-.36.96-.24,1.65.08,1.65,1.37v.92c0,.9-.51,2.04-1.42,2.8.59-.36,1.09-.12,1.39.38.47.77,1.01,1.2,1.94,1.2,1.11,0,1.91-.69,2.17-1.39-1.18,1-2.6.39-2.6-1.18-.03-2.6-.03-5.04,0-7.59.03-2.61-1.64-3.71-3.62-3.71-.88,0-1.8.29-2.62.71.41-.2.94-.28,1.5-.29,2.5.01,3.25,1.59,3.25,3.29Z"/>
  <path d="M104.68,16.99c-.02-1.96-.03-3.95,0-5.91.05-3.62-3.45-4.45-6.84-2.33,2.99-1.5,5.31.51,5.35,3.12.03,1.71.03,3.42,0,5.13-.05,2.89-.18,3.45-1.93,3.91,2.59-.02,3.62-.03,5.33,0-1.85-.5-1.88-1.1-1.91-3.91Z"/>
  <path d="M91.97,20.9c2.58-.02,3.55-.03,5.31,0-1.87-.49-1.85-1.18-1.9-3.91-.03-1.37-.03-2.72,0-4.09.03-1.47.39-2.68,1.36-3.49.14-.15.27-.27.44-.4-.96.53-1.8.03-1.8-1.11v-.52c-1.39.7-2.43,1.23-3.64,1.76,1.72.83,2.12,1.06,2.15,3.33.03,1.51.03,2.99,0,4.51-.06,2.95-.27,3.49-1.93,3.91Z"/>
  <path d="M118.31,11.28v1.46c0,.87-.29,1.43-1.13,1.76-.53.2-.99.39-1.53.61.3-.12.64-.23,1.02-.36.96-.24,1.65.08,1.65,1.37v.92c0,.9-.51,2.04-1.42,2.8.59-.36,1.09-.12,1.39.38.47.77,1.01,1.2,1.94,1.2,1.11,0,1.91-.69,2.17-1.39-1.18,1-2.6.39-2.6-1.18-.03-2.6-.03-5.04,0-7.59.03-2.61-1.64-3.71-3.62-3.71-.88,0-1.8.29-2.62.71.41-.2.94-.28,1.5-.29,2.5.01,3.25,1.59,3.25,3.29Z"/>
  <path d="M112.96,21.43c1.68,0,2.56-.62,3.29-1.22-.59.4-1.15.57-1.77.57-1.57,0-2.46-.9-2.46-2.34,0-.85.31-1.87,2.54-2.88-.37.16-.78.31-1.28.51-2.26.89-3.17,1.57-3.17,3.04,0,1.63.99,2.33,2.85,2.33Z"/>
  <path d="M112.17,11.05c-.03-.42-.05-.72-.05-1.05,0-.62.25-1.05.66-1.33-1.42.87-2.45,2.07-2.45,3,0,1.3,1.92,1.26,1.84-.62Z"/>
  <path d="M129.3,21.35c-1.77-.17-3.21-1.33-3.94-3.68.03.95.06,1.68,0,2.84,1.22.59,2.77.82,3.93.85Z"/>
  <path d="M133.69,10.78c-.02-.68-.02-1.37.03-2.66-1.2-.36-2.18-.47-3.2-.49-.14,0-.27,0-.4.01,2.09.07,3.06,1.39,3.57,3.13Z"/>
  <path d="M127.96,14.5c.79.39,1.6.79,2.38,1.18,1.76.87,2.58,2.1,2.58,3.22,0,1.29-1.08,2.24-2.56,2.4,3.06-.18,4.02-1.84,4.02-3.29,0-1.23-.7-2.44-2.56-3.41-.9-.44-1.79-.92-2.69-1.37-1.62-.82-2.26-1.85-2.26-2.97,0-1.56,1.11-2.39,2.47-2.53-2.45.21-3.93,1.38-3.93,3.4,0,1.52.81,2.5,2.54,3.39Z"/>
  <path d="M150.69,21.43c1.44,0,2.41-.46,3.27-1.15-.57.38-1.24.59-1.94.59-2.95,0-5.04-2.67-5.04-7.04,0-3.94,1.65-5.55,3.49-5.99-3.15.51-5.3,3.06-5.3,6.96,0,4.43,2.8,6.62,5.53,6.62Z"/>
  <path d="M150.46,7.84c.14-.02.27-.06.41-.08-.14.02-.27.05-.41.08Z"/>
  <path d="M160.17,19.95c-1.84,0-2.32-.59-2.32-1.93-.03-6.41-.02-11.24,0-18.03-1.46.81-2.32,1.23-3.67,1.77,1.67.79,2.18,1.22,2.18,2.73v2.52c0,.99-.65,1.57-1.65,1.13-.77-.32-1.57-.43-2.45-.43,2.53.13,4.09,2.3,4.09,4v4.79c0,1.46-.7,2.69-1.69,3.42.85-.42,1.7.03,1.69,1.13v.48c1.46-.62,2.48-1.03,3.81-1.6Z"/>
  <path d="M164.94,4.27c.82,0,1.4-.57,1.4-1.43,0-.72-.55-1.25-1.4-1.25s-1.39.57-1.39,1.37.55,1.31,1.39,1.31Z"/>
  <path d="M165.93,16.99c-.03-3.03-.03-6,0-9.6-1.61.79-2.32,1.16-3.64,1.78,1.72.83,2.12,1.19,2.15,3.25.03,1.58.03,3.01,0,4.53-.06,3.04-.27,3.53-1.92,3.96,1.87-.03,3.44-.03,5.32,0-1.85-.48-1.87-1.11-1.91-3.91Z"/>
  <path d="M175.29,8.03h-3.84c-.1,1.2-.18,1.98-.29,2.92.77-2.12,2.06-2.86,4.13-2.92Z"/>
  <path d="M173.86,19.13c2.43-3.42,4.95-7.1,7.86-11.1h-3.63c.89.06,1.22.95.68,1.73-2.43,3.44-4.94,7.12-7.91,11.21h3.7c-1.04-.07-1.31-.98-.7-1.84Z"/>
  <path d="M181.32,20.97c.14-1.37.18-2,.36-3.21-.91,2.53-2,3.15-4.19,3.21h3.83Z"/>
  <path d="M197.26,20.04c-1.18,1-2.6.39-2.6-1.18-.03-2.6-.03-5.04,0-7.59.03-2.61-1.64-3.71-3.62-3.71-.88,0-1.8.29-2.62.71.41-.2.94-.28,1.5-.29,2.5.01,3.25,1.59,3.25,3.29v1.46c0,.87-.29,1.43-1.13,1.76-.53.2-.99.39-1.53.61.3-.12.64-.23,1.02-.36.96-.24,1.65.08,1.65,1.37v.92c0,.9-.51,2.04-1.42,2.8.59-.36,1.09-.12,1.39.38.47.77,1.01,1.2,1.94,1.2,1.11,0,1.91-.69,2.17-1.39Z"/>
  <path d="M187.04,11.05c-.03-.42-.05-.72-.05-1.05,0-.62.25-1.05.66-1.33-1.42.87-2.45,2.07-2.45,3,0,1.3,1.92,1.26,1.84-.62Z"/>
  <path d="M186.88,18.44c0-.85.31-1.87,2.54-2.88-.37.16-.78.31-1.28.51-2.26.89-3.17,1.57-3.17,3.04,0,1.63.99,2.33,2.85,2.33,1.68,0,2.56-.62,3.29-1.22-.59.4-1.15.57-1.77.57-1.57,0-2.46-.9-2.46-2.34Z"/>
  <path d="M202.57,4.27c.82,0,1.4-.57,1.4-1.43,0-.72-.55-1.25-1.4-1.25s-1.39.57-1.39,1.37.55,1.31,1.39,1.31Z"/>
  <path d="M202.08,12.41c.03,1.58.03,3.01,0,4.53-.06,3.04-.27,3.53-1.92,3.96,1.87-.03,3.44-.03,5.32,0-1.85-.48-1.87-1.11-1.91-3.91-.03-3.03-.03-6,0-9.6-1.61.79-2.32,1.16-3.64,1.78,1.72.83,2.12,1.19,2.15,3.25Z"/>
  <path d="M221.49,16.99c-.02-1.96-.03-3.95,0-5.91.05-3.62-3.45-4.45-6.84-2.33,2.99-1.5,5.31.51,5.35,3.12.03,1.71.03,3.42,0,5.13-.05,2.89-.18,3.45-1.93,3.91,2.59-.02,3.62-.03,5.33,0-1.85-.5-1.88-1.1-1.91-3.91Z"/>
  <path d="M212.19,16.99c-.03-1.37-.03-2.72,0-4.09.03-1.47.39-2.68,1.36-3.49.14-.15.27-.27.44-.4-.96.53-1.8.03-1.8-1.11v-.52c-1.39.7-2.43,1.23-3.64,1.76,1.72.83,2.12,1.06,2.15,3.33.03,1.51.03,2.99,0,4.51-.06,2.95-.27,3.49-1.93,3.91,2.58-.02,3.55-.03,5.31,0-1.87-.49-1.85-1.18-1.9-3.91Z"/>
  <path d="M235.04,10.78c-.02-.68-.02-1.37.03-2.66-1.2-.36-2.18-.47-3.2-.49-.14,0-.27,0-.4.01,2.09.07,3.06,1.39,3.57,3.13Z"/>
  <path d="M233.18,14.59c-.9-.44-1.79-.92-2.69-1.37-1.62-.82-2.26-1.85-2.26-2.97,0-1.56,1.11-2.39,2.47-2.53-2.45.21-3.93,1.38-3.93,3.4,0,1.52.81,2.5,2.54,3.39.79.39,1.6.79,2.38,1.18,1.76.87,2.58,2.1,2.58,3.22,0,1.29-1.08,2.24-2.56,2.4,3.06-.18,4.02-1.84,4.02-3.29,0-1.23-.7-2.44-2.56-3.41Z"/>
  <path d="M226.72,17.66c.03.95.06,1.68,0,2.84,1.22.59,2.77.82,3.93.85-1.77-.17-3.21-1.33-3.94-3.68Z"/>
  <path d="M240.72,18.87c-.76,0-1.34.57-1.34,1.31s.58,1.34,1.34,1.34,1.34-.58,1.34-1.34-.59-1.31-1.34-1.31Z"/>
  <path d="M6.14,50.37c-.03-3.98-.06-7.4-.03-12.35.01-1.54.34-1.83,2.16-1.95-2.34.07-4.38.08-6.04.01,1.96.68,2.19,1.07,2.22,4.12.04,3.7.01,6.89-.03,10.17-.05,2.85.03,3.49-2.21,4.15,2.25-.06,4.09-.05,7.44-.03-2.88-.08-3.48-1.34-3.51-4.12Z"/>
  <path d="M10.06,36.12c6.42.38,8.95,4.27,8.91,9.21-.05,5.01-2.86,8.74-8.01,9.13,7.13-.27,10.2-4.13,10.2-9.04,0-5.48-3.86-9.05-11.09-9.3Z"/>
  <path d="M30.68,41.28c2,.03,3.36,1.49,3.53,3.64.08.9-.35,1.5-1.12,1.55h2.97c.2-3.57-2.37-5.38-5.37-5.2Z"/>
  <path d="M26.19,48.16c-.08-1.02.43-1.62,1.2-1.65-.79-.04-1.2-.65-1-1.52.46-2.19,1.83-3.27,3.14-3.55-2.82.55-5.16,2.99-5.16,6.74,0,4.21,2.56,6.85,6.34,6.85,1.82,0,3.77-.58,4.96-2.64-1.3,1.31-2.74,1.8-4.09,1.8-2.74,0-5.09-1.87-5.39-6.03Z"/>
  <path d="M47.53,41.17c-1.27,0-2.3.36-3.27,1.13.62-.37,1.34-.57,2.07-.56,3.15.06,4.89,3.27,4.89,7.01,0,4.2-1.97,5.91-4.24,6.1,3.36-.14,6.06-2.55,6.06-7.07s-2.87-6.6-5.52-6.6Z"/>
  <path d="M41.85,50.96c-.03-1.63-.03-3.31,0-4.96.02-1.48.71-2.62,1.7-3.36-.9.42-1.7-.1-1.7-1.11-.03-2.93-.03-4.39,0-7.93-1.54.85-2.3,1.22-3.66,1.77,1.78.85,2.18,1.24,2.18,2.73.05,6.41.05,11.46,0,17.32,1.26-1.34,1.63-1.52,2.78-1.09.87.36,1.83.53,2.86.53-2.39-.12-4.12-2.15-4.16-3.91Z"/>
  <path d="M62.35,41.28c2,.03,3.36,1.49,3.53,3.64.08.9-.35,1.5-1.12,1.55h2.97c.2-3.57-2.37-5.38-5.37-5.2Z"/>
  <path d="M57.86,48.16c-.08-1.02.43-1.62,1.2-1.65-.79-.04-1.2-.65-1-1.52.46-2.19,1.83-3.27,3.14-3.55-2.82.55-5.16,2.99-5.16,6.74,0,4.21,2.56,6.85,6.34,6.85,1.82,0,3.77-.58,4.96-2.64-1.3,1.31-2.74,1.8-4.09,1.8-2.74,0-5.09-1.87-5.39-6.03Z"/>
  <path d="M71.45,51.26c.03.95.06,1.68,0,2.84,1.22.59,2.77.82,3.93.85-1.77-.17-3.21-1.33-3.94-3.68Z"/>
  <path d="M79.77,44.38c-.02-.68-.02-1.37.03-2.66-1.2-.36-2.18-.47-3.2-.49-.14,0-.27,0-.4.01,2.09.07,3.06,1.39,3.57,3.13Z"/>
  <path d="M77.91,48.19c-.9-.44-1.79-.92-2.69-1.37-1.62-.82-2.26-1.85-2.26-2.97,0-1.56,1.11-2.39,2.47-2.53-2.45.21-3.93,1.38-3.93,3.4,0,1.52.81,2.5,2.54,3.39.79.39,1.6.79,2.38,1.18,1.76.87,2.58,2.1,2.58,3.22,0,1.29-1.08,2.24-2.56,2.4,3.06-.18,4.02-1.84,4.02-3.29,0-1.23-.7-2.44-2.56-3.41Z"/>
  <path d="M95.73,51.24v-10.03c-1.63.26-2.39.36-3.45.44,1.54.18,1.96.74,1.96,2.4v5.65c0,1.63-.44,3.04-1.69,3.9.83-.39,1.69.05,1.69,1.07v.36c1.56-.66,2.58-1,3.79-1.46-1.66-.01-2.3-.74-2.3-2.34Z"/>
  <path d="M86.43,50.59v-9.39c-1.66.27-2.49.37-3.45.44,1.57.18,1.97.74,1.97,2.42v7.53c0,3.59,3.24,4.53,6.73,2.39-2.48,1.33-5.24-.23-5.24-3.4Z"/>
  <path d="M112.86,54.44c.88.33,1.52.43,2.43.44-2.14-.15-4.01-2.03-4.01-4.04v-4.76c0-1.45.7-2.69,1.7-3.45-.9.48-1.7-.12-1.7-1.13v-.48c-1.48.67-2.31,1.07-3.7,1.72,1.78.85,2.21,1.09,2.21,3.33.03,3.78.03,8.01,0,11.79-.03,3.01-.32,3.47-1.97,3.9,1.64-.03,3.63-.03,5.42,0-1.8-.47-1.97-.99-1.97-3.82v-2.27c0-1.22.65-1.6,1.57-1.25Z"/>
  <path d="M116.85,41.17c-1.17,0-2.19.43-3.13,1.12.59-.36,1.27-.56,2-.56,2.95.05,4.96,2.86,4.96,6.97,0,3.53-1.36,5.74-3.72,6.11,3.12-.37,5.54-2.72,5.54-6.94,0-4.62-2.8-6.71-5.64-6.71Z"/>
  <path d="M132.58,41.22c2.97.06,4.83,3.27,4.96,6.9.16,4.14-1.72,6.47-3.82,6.79,3.4-.37,5.78-3.06,5.78-6.82,0-4.66-3.38-7.07-6.92-6.88Z"/>
  <path d="M128,47.99c-.16-4.02,1.66-6.32,3.77-6.69-3.25.37-5.73,2.99-5.73,6.83,0,4.29,2.91,6.97,6.86,6.86-2.97-.12-4.76-3.34-4.89-6.99Z"/>
  <path d="M144.83,48.16c-.08-1.02.43-1.62,1.2-1.65-.79-.04-1.2-.65-1-1.52.46-2.19,1.83-3.27,3.14-3.55-2.82.55-5.16,2.99-5.16,6.74,0,4.21,2.56,6.85,6.34,6.85,1.82,0,3.77-.58,4.96-2.64-1.3,1.31-2.74,1.8-4.09,1.8-2.74,0-5.09-1.87-5.39-6.03Z"/>
  <path d="M149.32,41.28c2,.03,3.36,1.49,3.53,3.64.08.9-.35,1.5-1.12,1.55h2.97c.2-3.57-2.37-5.38-5.37-5.2Z"/>
  <path d="M160.77,51.88c0-2.83.03-5.74.03-8.65,0-.62.43-1.11,1.24-1.11.9,0,1.76,0,2.66.03.58.02.58-.62,0-.59-.9.03-1.76.03-2.66.03-.81,0-1.22-.42-1.22-.98v-2.11c-1.26,1.35-2.35,2.43-3.62,3.53,1.6,0,2.11.4,2.11,1.83,0,2.46-.03,5.46-.03,8.42,0,1.49.79,2.73,2.84,2.73,1.74,0,2.7-1.09,3.12-1.8-2.08,1.63-4.48,1.09-4.48-1.35Z"/>
  <path d="M171.89,50.59c-.03-3.03-.03-6,0-9.6-1.61.79-2.32,1.16-3.64,1.78,1.72.83,2.12,1.19,2.15,3.25.03,1.58.03,3.01,0,4.53-.06,3.04-.27,3.53-1.92,3.96,1.87-.03,3.44-.03,5.32,0-1.85-.48-1.87-1.11-1.91-3.91Z"/>
  <path d="M170.89,37.87c.82,0,1.4-.57,1.4-1.43,0-.72-.55-1.25-1.4-1.25s-1.39.57-1.39,1.37.55,1.31,1.39,1.31Z"/>
  <path d="M180.28,50.31v-1.31c0-.72.38-1.14.81-1.15-.47-.09-.83-.51-.83-1.15-.03-4.65-.03-7.85,0-13.1-1.54.75-2.39,1.18-3.64,1.78,1.78.81,2.17,1.37,2.18,3.06.05,4.68.05,7.73,0,12.24-.06,2.95-.31,3.41-1.92,3.83,1.8-.03,3.44-.03,5.32,0-1.78-.49-1.92-.95-1.92-4.2Z"/>
  <path d="M186.68,43.71c1.16-.99,2.38-1.7,3.58-2-1.6.03-3.73.02-5.33,0,1.34.42,2.02,1.57,1.11,2.54l.64-.55Z"/>
  <path d="M183.46,47.88c-.36-.33-.53-.79-.15-1.21l-.91.77c-.35.29-.68.41-.98.42.21.04.43.16.67.4,1.18,1.15,2.3,2.29,3.66,3.66,1.05,1.09.75,2.2-.31,2.58,1.76-.03,3.67-.03,5.43,0-.96-.31-1.75-.9-2.97-2.14-1.51-1.48-2.99-3-4.46-4.48Z"/>
  <path d="M203.3,52.47c-.03-2.6-.03-5.04,0-7.59.03-2.61-1.64-3.71-3.62-3.71-.88,0-1.8.29-2.62.71.41-.2.94-.28,1.5-.29,2.5.01,3.25,1.59,3.25,3.29v1.46c0,.87-.29,1.43-1.13,1.76-.53.2-.99.39-1.53.61.3-.12.64-.23,1.02-.36.96-.24,1.65.08,1.65,1.37v.92c0,.9-.51,2.04-1.42,2.8.59-.36,1.09-.12,1.39.38.47.77,1.01,1.2,1.94,1.2,1.11,0,1.91-.69,2.17-1.39-1.18,1-2.6.39-2.6-1.18Z"/>
  <path d="M196.29,42.27c-1.42.87-2.45,2.07-2.45,3,0,1.3,1.92,1.26,1.84-.62-.03-.42-.05-.72-.05-1.05,0-.62.25-1.05.66-1.33Z"/>
  <path d="M195.52,52.04c0-.85.31-1.87,2.54-2.88-.37.16-.78.31-1.28.51-2.26.89-3.17,1.57-3.17,3.04,0,1.63.99,2.33,2.85,2.33,1.68,0,2.56-.62,3.29-1.22-.59.4-1.15.57-1.77.57-1.57,0-2.46-.9-2.46-2.34Z"/>
  <path d="M210.59,52.47c-.76,0-1.34.57-1.34,1.31s.58,1.34,1.34,1.34,1.34-.58,1.34-1.34-.59-1.31-1.34-1.31Z"/>
  <path d="M21.1,3.6h6.89c.17,0,.3-.13.3-.3s-.13-.3-.3-.3h-6.89c-.17,0-.3.13-.3.3s.13.3.3.3Z"/>
  <path d="M145.96,36.88c-.17,0-.3.13-.3.3s.13.3.3.3h6.89c.17,0,.3-.13.3-.3s-.13-.3-.3-.3h-6.89Z"/>
  <path d="M72.03.72l-2.71,1.94c-.54.38-1.26.38-1.79,0l-2.71-1.94,3.61,4.45,3.61-4.45Z"/>
</svg>