<?xml version="1.0" encoding="UTF-8"?>
<svg id="Layer_1" xmlns="http://www.w3.org/2000/svg" version="1.1" viewBox="0 0 246.65 66.13">
  <!-- Generator: Adobe Illustrator 29.0.1, SVG Export Plug-In . SVG Version: 2.1.0 Build 192)  -->
  <path d="M111.13,23.79c.82,1.09,2.21,1.78,4.16,1.78,1.03,0,1.73-.14,2.53-.47,1.24-.46,1.98-.44,2.65-.07.63.37,1.31.54,2.08.54,1.53,0,2.75-.73,3.54-1.65.21.24.47.45.84.62,1.47.7,3.34,1.03,4.95,1.03,5.18,0,7-3.19,7-5.6,0-1.67-.85-3.45-2.8-4.78,1.05-.08,2.08-.94,2.2-2.41.05-.59.04-1.38,0-2.02-.1-1.59-.55-2.41-2.08-2.91-.9-.29-2.32-.48-3.6-.48-4.42,0-7.02,2.45-7.02,5.71,0,1.71.68,3.13,2.05,4.25-1.05.07-2.07.9-2.19,2.37,0,.04,0,.09,0,.13-.88-.46-1.16-.9-1.16-1.89,0-1.6,0-2.59.01-4.68.03-3.99-2.92-5.9-5.79-5.9-3.79,0-8,3.24-8,6.38,0,1.98,1.63,2.91,3.21,2.73-2.28,1.09-3.4,2.39-3.43,4.5-.83-.52-1.1-1.18-1.14-2.82-.04-1.65,0-2.55.04-5.1.06-4.48-3.85-6.52-7.92-5.22-1.12.36-1.66.33-2.82-.21-.59-.31-1.34-.33-2.24.03-1.04.44-1.76.81-2.75,1.33-1.67.89-1.91,2.78-.52,3.88.86.67,1.11.89,1.13,2.28,0,.78.05,1.98.03,3.1-.03,1.23-.26,1.94-.76,2.44-.23-.35-.56-.61-.94-.74-1.1-.52-1.43-.94-1.43-2.02,0-1.6,0-2.59.01-4.68.03-3.99-2.92-5.9-5.79-5.9-3.79,0-8,3.24-8,6.38,0,1.98,1.63,2.91,3.21,2.73-1.69.81-2.74,1.73-3.18,3.01-.15-1.53-1-3.11-2.77-4.31,1.05-.08,2.08-.94,2.2-2.41.05-.59.04-1.38,0-2.02-.1-1.59-.55-2.41-2.08-2.91-.14-.04-.3-.08-.46-.12l2.27-2.8c.84-1.04.72-2.58-.32-3.48-.9-.77-2.24-.72-3.21-.03l-1.57,1.12c-.27.19-.63.19-.9,0l-1.7-1.22c-1.09-.78-2.62-.57-3.45.53-.71.94-.59,2.29.16,3.21l2.32,2.86c-2.39.9-3.74,2.81-3.74,5.16,0,.2.01.4.03.6-1.08-3.74-4.32-6.31-8.47-6.31-3.3,0-6.08,1.65-7.63,4.23.59-1.89-.23-4.23-3.29-4.23-.66,0-1.26.17-1.93.47-1.15.45-1.31.38-2.43-.18-.58-.32-1.3-.36-2.18,0-1.01.41-1.87.82-2.83,1.37-.88.51-1.35,1.28-1.39,2.05-.63-1.19-1.59-2.14-2.76-2.78,1.08-.28,1.88-1.25,1.88-2.41,0-1.38-1.12-2.5-2.5-2.5h-6.68c-.37-.67-1.07-1.19-2.02-1.23-2.31-.08-4.5-.08-6.23.01-2.13.13-3.17,2.8-1.29,4.21,1.32.92,1.39,1.44.88,2.73-.46,1.21-1.07,2.75-1.48,3.75-.56,1.37-1.42,1.48-1.98.12-.64-1.52-1.31-3.15-1.85-4.56-.4-1.03-.22-1.6.64-2.24,1.49-1.18.71-3.91-1.35-4.01-2.91-.12-4.12-.13-6.9,0-2.4.1-2.87,3.23-1.01,4.29,1.5.85,1.7,1.01,2.54,2.97,1.78,4.21,3.96,9.49,5.8,14.1,1.07,2.68,4,2.66,5.01,0,1.09-2.83,2.17-5.61,3.21-8.24.83-2.11,1.65-4.1,2.42-5.95.42-1.01.78-1.59,1.35-2.06.41.61,1.08,1.01,1.85,1.08-2.72,1.44-4.73,4.35-4.73,8.18,0,5.29,3.56,9.02,8.51,9.02,2.04,0,4.91-.69,6.66-3.37-.41,1.26.48,2.8,2.19,2.94,1.74.14,4.01.14,6.38,0,2.8-.17,3.26-3.62.55-4.48-.98-.29-1.21-.9-1.22-2.43-.02-.88-.02-1.98,0-2.67.02-1.77.75-2.46,1.92-1.91,1.61.71,2.92.14,3.7-.89-.47,1.13-.73,2.38-.73,3.73,0,5.18,3.73,9.07,8.87,9.07,3.94,0,7.13-2.31,8.37-5.8-.06.82-.06,1.61,0,2.17.14,1.32.4,2.08,1.49,2.6,1.47.7,3.34,1.03,4.95,1.03,4.13,0,6.12-2.02,6.76-4.07.19,2.33,1.89,4.07,5,4.07,1.03,0,1.73-.14,2.53-.47,1.24-.46,1.98-.44,2.65-.07.63.37,1.31.54,2.08.54,1.31,0,2.39-.54,3.17-1.27.4.46,1,.79,1.79.85,1.83.12,3.71.12,5.53,0,.85-.06,1.49-.45,1.89-.98.4.53,1.05.93,1.91.98,1.76.11,3.78.11,5.5,0,1.05-.07,1.78-.64,2.13-1.36ZM132.35,11.69c.85,0,1.12.63,1.47,1.72.07.26.16.49.27.7-.57-.29-1.2-.59-1.82-.88-.67-.26-.83-.57-.83-.85,0-.42.37-.68.91-.68ZM131.85,19.66c.55.27.82.62.82.96,0,.4-.36.64-.85.64-1.07,0-1.46-1.08-1.96-2.26-.05-.15-.1-.29-.16-.42.67.33,1.34.66,2.16,1.07ZM118.24,19.66c0,.38-.44.9-1.05.9-.32,0-.47-.15-.47-.39,0-.33.27-.62.96-.83.43-.14.57-.06.57.18v.14ZM116.52,13.46c.01-.26.03-.43.06-.62.08-.44.43-.7.9-.71.66,0,.98.46.98,1.24v.22c0,.65-.23,1.1-1.24,1.48-.19.08-.97.38-1.8.7.6-.51,1.03-1.27,1.1-2.31ZM28.14,12.3c.03.31-.38.42-1.18.42h-.31c-.74,0-1.13-.12-1.04-.4.1-.31.59-.56,1.31-.56s1.19.25,1.22.54ZM35.87,18.27c-.04,1.71-.53,2.39-1.22,2.82-.17.11-.32.24-.44.38,1.02-2.28-1.76-4.14-3.54-2.3-.92.95-1.69,1.22-2.69,1.22-1.33,0-2.47-.63-2.76-1.92-.25-.85.21-1.42,1.42-1.42h5.26c1.76,0,2.71-1.07,2.72-2.58,0-.66-.08-1.29-.23-1.88.1.11.21.22.34.32.75.54,1.09,1,1.12,2.23.03,1.29.05,2.04.02,3.12ZM55.7,21.17c-1.52,0-2.74-1.85-2.87-4.89-.12-2.88.88-4.52,2.34-4.52s2.75,1.82,2.88,4.83c.12,2.86-.87,4.58-2.34,4.58ZM64.12,18.56c.14-.67.22-1.36.22-2.09,0-.55-.05-1.08-.13-1.6.32.94.91,1.76,1.77,2.46-.73.05-1.44.48-1.85,1.23ZM70.17,21.26c-1.07,0-1.46-1.08-1.96-2.26-.05-.15-.1-.29-.16-.42.67.33,1.34.66,2.16,1.07.55.27.82.62.82.96,0,.4-.36.64-.85.64ZM70.62,13.22c-.67-.26-.83-.57-.83-.85,0-.42.37-.68.91-.68.85,0,1.12.63,1.47,1.72.07.26.16.49.27.7-.57-.29-1.2-.59-1.82-.88ZM84.92,19.66c0,.38-.44.9-1.05.9-.32,0-.47-.15-.47-.39,0-.33.27-.62.96-.83.43-.14.57-.06.57.18v.14ZM85.15,13.59c0,.65-.23,1.1-1.24,1.48-.19.08-.97.38-1.8.7.6-.51,1.03-1.27,1.1-2.31.01-.26.03-.43.06-.62.08-.44.43-.7.9-.71.66,0,.98.46.98,1.24v.22ZM103.35,18.09c-.06,2.01-.36,2.48-1.07,2.85-.28.16-.5.35-.67.57-.12-.14-.25-.27-.42-.38-.93-.62-1.24-1.01-1.33-2.95-.03-.7-.03-1.91,0-3.5.03-1.2.51-1.95,1.14-2.26,1.1-.57,2.3.05,2.34,1.44.03,1.49.03,3.29,0,4.23Z"/>
  <path d="M243.04,18.57c-1.13,0-2.15.53-2.81,1.36-.02-1.66-.87-3.42-2.79-4.73,1.05-.08,2.08-.94,2.2-2.41.05-.59.04-1.38,0-2.02-.1-1.59-.55-2.41-2.08-2.91-.9-.29-2.32-.48-3.6-.48-4.42,0-7.02,2.45-7.02,5.71,0,1.71.68,3.13,2.05,4.25-1.05.07-2.07.9-2.19,2.37-.03.36-.04.71-.05,1.04-.57-.49-.77-1.18-.81-2.57-.04-1.65,0-2.55.04-5.1.06-4.48-3.85-6.52-7.92-5.22-1.12.36-1.66.33-2.82-.21-.59-.31-1.34-.33-2.24.03-1.04.44-1.76.81-2.75,1.33-1.67.89-1.91,2.78-.52,3.88.86.67,1.11.89,1.13,2.28,0,.78.05,1.98.03,3.1-.04,1.56-.38,2.28-1.22,2.8-.06.04-.1.08-.16.12-.08-.07-.17-.14-.27-.2-.92-.53-1.14-.93-1.18-2.95-.03-2-.03-4.76,0-8.16,0-.99-.36-1.72-.96-2.12.9-.68,1.48-1.77,1.48-2.96,0-1.96-1.67-3.53-3.68-3.53s-3.67,1.63-3.67,3.64c0,1.42.85,2.65,2.06,3.23-.63.28-1.18.57-1.87.97-1.54.92-1.67,2.68-.32,3.76.9.69,1.16.96,1.16,2.26,0,1.16,0,2.59,0,2.89-.02,1.44-.21,2.15-.77,2.67-.23-.34-.56-.6-.93-.73-1.1-.52-1.43-.94-1.43-2.02,0-1.6,0-2.59.01-4.68.03-3.99-2.92-5.9-5.79-5.9-3.79,0-8,3.24-8,6.38,0,1.98,1.63,2.91,3.21,2.73-1.29.62-2.2,1.31-2.76,2.17-.96-1.45-3.26-1.42-3.95.58-.41,1.2-.75,1.47-1.44,1.47-.18,0-.29,0-.46,0-.39-.03-.68-.36-.21-1,1.97-2.78,3.88-5.46,5.76-8.03,1.32-1.8.27-3.83-1.94-3.89-3.08-.05-6.02-.07-9.3,0-1.74.05-2.47.95-2.8,2.36-.18.84-.27,1.66-.26,2.5.06,2.86,3.47,3.64,4.4,1.08.27-.75.64-1.49,1.37-1.52.18,0,.36,0,.5.01.4.07.57.42.16.97-2.09,2.88-3.81,5.18-5.68,7.79-.05.06-.08.13-.12.19-.07-.06-.14-.11-.22-.16-.92-.53-1.14-.93-1.18-2.95-.03-2-.03-4.76,0-8.16,0-.99-.36-1.72-.96-2.12.9-.68,1.48-1.77,1.48-2.96,0-1.96-1.67-3.53-3.68-3.53s-3.67,1.63-3.67,3.64c0,1.42.85,2.65,2.06,3.23-.63.28-1.18.57-1.87.97-1.54.92-1.67,2.68-.32,3.76.9.69,1.16.96,1.16,2.26,0,1.16,0,2.59,0,2.89-.02,1.16-.14,1.84-.47,2.33-.17-.16-.36-.31-.6-.42-.97-.42-1.21-.96-1.22-2.26-.03-4.72-.03-8.66,0-14.93,0-2.38-1.67-3.27-3.62-2.47-.98.4-1.97.9-2.94,1.43-1.64.92-1.85,3.21.04,4.11.53.25.71.63.71.95v.14c0,.5-.42.72-1.21.59-.46-.1-.75-.14-1.2-.14-5.09,0-8.79,3.88-8.79,9.41s3.96,8.79,7.7,8.79c1.03,0,1.83-.21,2.62-.53.92-.34,1.52-.32,2.31.12.55.31,1.29.36,2.17.11.87-.24,1.8-.61,2.75-1.05.39.51,1.01.88,1.84.92,1.97.1,3.68.1,5.55,0,.7-.04,1.25-.3,1.65-.67.43.41,1.04.66,1.79.68,3.13.05,6.21.07,9.47,0,1.36-.04,2.2-.64,2.61-1.69.78,1.28,2.25,2.11,4.39,2.11,1.03,0,1.73-.14,2.53-.47,1.24-.46,1.98-.44,2.65-.07.63.37,1.31.54,2.08.54,1.3,0,2.38-.53,3.15-1.26.39.46.99.79,1.77.83,1.97.1,3.68.1,5.55,0,.65-.03,1.17-.26,1.57-.6.38.33.9.55,1.54.6,1.83.12,3.71.12,5.53,0,.85-.06,1.49-.45,1.89-.98.4.53,1.05.93,1.91.98,1.76.11,3.78.11,5.5,0,.85-.06,1.49-.45,1.88-.97.16.13.35.26.58.36,1.47.7,3.34,1.03,4.95,1.03,3.36,0,5.29-1.34,6.25-2.94.24,1.77,1.74,3.14,3.56,3.14,1.99,0,3.62-1.63,3.62-3.62s-1.64-3.58-3.62-3.58ZM156.52,18.04c0,1.75-.9,2.63-2.16,2.63-1.75,0-2.88-1.88-2.88-4.73s1.09-4.15,2.77-4.15c1.31,0,2.28.88,2.28,2.31v3.94ZM193.11,19.66c0,.38-.44.9-1.05.9-.32,0-.47-.15-.47-.39,0-.33.27-.62.96-.83.43-.14.57-.06.57.18v.14ZM193.33,13.59c0,.65-.23,1.1-1.24,1.48-.19.08-.97.38-1.8.7.6-.51,1.03-1.27,1.1-2.31.01-.26.03-.43.06-.62.08-.44.43-.7.9-.71.66,0,.98.46.98,1.24v.22ZM220.16,18.09c-.06,2.01-.36,2.48-1.07,2.85-.28.16-.5.35-.67.57-.12-.14-.25-.27-.42-.38-.93-.62-1.24-1.01-1.33-2.95-.03-.7-.03-1.91,0-3.5.03-1.2.51-1.95,1.14-2.26,1.1-.57,2.3.05,2.34,1.44.03,1.49.03,3.29,0,4.23ZM233.17,21.26c-1.07,0-1.46-1.08-1.96-2.26-.05-.15-.1-.29-.16-.42.67.33,1.34.66,2.16,1.07.55.27.82.62.82.96,0,.4-.36.64-.85.64ZM233.63,13.22c-.67-.26-.83-.57-.83-.85,0-.42.37-.68.91-.68.85,0,1.12.63,1.47,1.72.07.26.16.49.27.7-.57-.29-1.2-.59-1.82-.88Z"/>
  <path d="M35.68,52.77c-.92.95-1.69,1.22-2.69,1.22-1.33,0-2.47-.63-2.76-1.92-.25-.85.21-1.42,1.42-1.42h5.26c1.76,0,2.71-1.07,2.72-2.58.04-4.21-3.27-7.1-7.28-7.1-3.18,0-6.21,1.81-7.73,4.82-.79-6.46-6.42-9.89-13.46-10.03-3.34-.07-5.26-.07-7.37,0-2.62.09-3.19,2.64-1.87,3.84,1.5,1.35,1.78,1.76,1.81,3.68.05,3.14.04,6,0,8.11-.04,1.89-.44,2.59-1.44,3.25-1.78,1.24-1.14,4.01,1.43,4.15,1.78.09,3.71.05,8-.02,5.63-.09,10.18-2.43,12.07-6.69.76,4.24,4.02,7.08,8.34,7.08,2.18,0,5.33-.75,7.02-3.92,1.26-2.37-1.63-4.37-3.47-2.47ZM31.94,45.36c.74,0,1.19.25,1.22.54.03.31-.38.42-1.18.42h-.31c-.74,0-1.13-.12-1.04-.4.1-.31.59-.56,1.31-.56ZM12.86,54.05c-2.36.12-3.12-.54-3.14-2.62-.03-3.08-.08-6.38-.05-8.77.01-1.52.64-2.26,2.72-2.14,3.6.19,5.87,2.1,5.81,6.75-.06,4.72-2.36,6.64-5.35,6.78Z"/>
  <path d="M100.52,53.52c-1.05-.46-1.22-.7-1.22-2.81v-7.19c0-1.8-1.14-2.64-3.07-2.5-.98.08-1.65.14-2.86.32-2.28.36-2.72,3-1.21,4.1,1.03.71,1.3,1.19,1.32,2.68.02,1.67.01,2.78,0,4.05,0,.82-.48,1.6-1.14,1.93-1.11.57-2.34.05-2.34-1.68v-8.71c0-1.99-1.14-2.83-3.07-2.69-1.05.08-1.86.17-2.86.32-.64.1-1.13.39-1.48.77-.3-.27-.7-.49-1.23-.66-.9-.29-2.32-.48-3.6-.48-3.87,0-6.35,1.88-6.9,4.55-1.02-2.78-3.72-4.55-6.84-4.55-3.36,0-6.55,2.01-7.97,5.32-1.23-3.5-4.27-5.32-7.1-5.32-.78,0-1.48.08-2.04.29-.99.31-1.52-.23-1.5-1.13,0-2.58,0-2.86.01-3.96,0-2.19-1.72-2.93-3.77-2.17-.96.36-1.89.83-2.62,1.24-1.56.85-1.95,2.65-.78,3.73.98.88,1.34,1.52,1.35,2.82.05,5.74.05,9.52.01,14.91-.02,2.04,1.68,2.89,3.35,2.24.69-.28,1.41-.34,2.28-.12.85.22,1.73.36,2.64.36,3.54,0,6.66-1.98,8.02-5.43,1.22,3.31,4.16,5.43,7.89,5.43,2.1,0,5.08-.72,6.81-3.6.14,1.3.4,2.05,1.49,2.57,1.47.7,3.34,1.03,4.95,1.03,5.18,0,7-3.19,7-5.6,0-1.67-.85-3.45-2.8-4.78,1.05-.08,2.08-.94,2.2-2.41.01-.15.02-.32.03-.49.57.54.73.99.75,2.09.03,1.39,0,2.49-.04,5.58-.07,4.3,3.66,6.46,7.83,5.21,1.44-.41,1.8-.35,2.8.14.54.28,1.4.24,2.27-.05,1.26-.42,2.04-.7,3.01-1.14,2.04-.93,2.1-3.43.42-4.2ZM47.86,54.75c-1.47,0-2.41-.86-2.45-2.68-.03-1.25,0-2.4.02-3.54.03-1.71.76-2.66,2.2-2.66,1.82,0,2.84,1.64,2.84,4.81,0,2.93-.98,4.07-2.61,4.07ZM63.61,45.36c.74,0,1.19.25,1.22.54.03.31-.38.42-1.18.42h-.31c-.74,0-1.13-.12-1.04-.4.1-.31.59-.56,1.31-.56ZM70.68,52.84c-.73-.93-2.22-1.21-3.33-.07-.92.95-1.69,1.22-2.69,1.22-1.33,0-2.47-.63-2.76-1.92-.25-.85.21-1.42,1.42-1.42h5.26c1.44,0,2.32-.72,2.61-1.8.34.78.87,1.47,1.61,2.08-.93.06-1.84.73-2.12,1.9ZM76.99,54.86c-1.07,0-1.46-1.08-1.96-2.26-.05-.15-.1-.29-.16-.42.67.33,1.34.66,2.16,1.07.55.27.82.62.82.96,0,.4-.36.64-.85.64ZM77.44,46.82c-.67-.26-.83-.57-.83-.85,0-.42.37-.68.91-.68.85,0,1.12.63,1.47,1.72.07.26.16.49.27.7-.57-.29-1.2-.59-1.82-.88Z"/>
  <path d="M212,52.17c-1.32,0-2.47.71-3.1,1.77-.18-.16-.38-.29-.61-.37-1.1-.52-1.43-.94-1.43-2.02,0-1.6,0-2.59.01-4.68.03-3.99-2.92-5.9-5.79-5.9-3.79,0-8,3.24-8,6.38,0,1.98,1.63,2.91,3.21,2.73-2.15,1.03-3.26,2.25-3.4,4.15-.82-.34-1.48-.9-2.37-1.77-.84-.83-1.39-1.39-2.12-2.13-.71-.72-.67-1.35.05-2.02.2-.18.38-.34.55-.5.18-.16.36-.3.53-.45.85-.68,1.75-1.13,2.76-1.51,2.56-.96,2.07-4.28-.79-4.46-1.61-.1-3.3-.1-5.09,0-1.98.1-2.78,1.8-2.23,3.12.27.65.27,1.08.18,1.29l-.03.06s-.03.05-.06.06c-.28.19-.46-.49-.46-.83-.03-2.06,0-7.84.01-8.98,0-2.17-1.76-2.96-3.71-2.18-.87.36-2.14.99-2.73,1.31-1.54.82-1.82,2.75-.68,3.76.89.77,1.3,1.41,1.31,2.97.04,3.99.07,6.72.01,9.89-.03,1.64-.25,2.04-1.33,2.79-.03-.02-.05-.04-.07-.05-.92-.53-1.14-.93-1.18-2.95-.03-2-.03-4.76,0-8.16,0-.99-.36-1.72-.96-2.12.9-.68,1.48-1.77,1.48-2.96,0-1.96-1.67-3.53-3.68-3.53s-3.67,1.63-3.67,3.64c0,1.42.85,2.65,2.06,3.23-.63.28-1.18.57-1.87.97-.14.08-.26.18-.38.28-.3-.91-1.09-1.65-2.38-1.64h-.69c-.46,0-.84-.24-1.09-1l-.11-.49c-.53-1.42-2.37-1.89-3.7-.66-1.03.97-2.19,2.08-3.06,2.94-.39.4-.64.88-.74,1.36-.59-.71-1.33-1.29-2.17-1.72.85-.4,1.44-1.26,1.44-2.26,0-1.38-1.12-2.5-2.5-2.5h-6.89c-1.38,0-2.5,1.12-2.5,2.5s1.12,2.5,2.5,2.5h.3c-1.92,1.06-3.47,2.85-4.18,5.18-1.09-3.71-4.32-6.26-8.45-6.26s-7.33,2.48-8.49,6.13c-1.02-4.08-4.3-6.13-7.48-6.13-.83,0-1.61.18-2.36.49-.87.33-1.6.27-2.3-.17-.56-.38-1.36-.43-2.36-.02-1.05.42-1.93.83-2.89,1.37-1.51.85-1.87,2.51-.77,3.61,1.21,1.19,1.48,1.67,1.49,3.77,0,3.77,0,4.76-.02,9.13,0,1.54-.33,2.26-1.22,2.79-1.85,1.18-1.06,3.89,1.3,4.08,1.78.14,3.87.14,5.59,0,2.53-.21,3.19-3.27,1.17-4.25-.9-.41-1.01-.72-1.01-1.46v-.49c0-.59.34-.87,1.44-.77.23.05.52.11.83.11,4.06,0,7.4-2.35,8.53-6.29,1.08,3.73,4.32,6.29,8.49,6.29s7.35-2.47,8.49-6.15c1.04,3.72,4.13,6.15,8.13,6.15,2.18,0,5.33-.75,7.02-3.92,1.26-2.37-1.63-4.37-3.47-2.47-.92.95-1.69,1.22-2.69,1.22-1.33,0-2.47-.63-2.76-1.92-.25-.85.21-1.42,1.42-1.42h5.26c1.76,0,2.71-1.07,2.72-2.58,0-.68-.08-1.32-.24-1.92.47.46.52.81.51,1.9-.01,1.84-.02,4.19-.02,6.21,0,2.73,1.89,4.9,5.01,4.9,1.83,0,3.22-.81,4.14-1.71.35.69,1.05,1.23,2.08,1.29,1.97.1,3.68.1,5.55,0,.59-.03,1.07-.22,1.44-.5.37.28.84.47,1.41.5,1.94.1,3.66.1,5.54,0,.68-.03,1.22-.27,1.61-.63.4.36.95.6,1.67.64,1.72.09,3.57.09,5.18,0,.87-.05,1.53-.4,1.95-.89.85.82,2.11,1.31,3.77,1.31,1.03,0,1.73-.14,2.53-.47,1.24-.46,1.98-.44,2.65-.07.63.37,1.31.54,2.08.54,1.61,0,2.87-.81,3.65-1.8.6,1.18,1.8,2,3.21,2,1.99,0,3.62-1.63,3.62-3.62s-1.64-3.58-3.62-3.58ZM117.31,54.75c-1.52,0-2.43-.98-2.43-2.6v-3.42c0-1.78.85-2.86,2.26-2.86,1.77,0,2.78,1.67,2.78,4.82,0,2.75-.81,4.06-2.6,4.06ZM134.45,54.77c-1.52,0-2.74-1.85-2.87-4.89-.12-2.88.88-4.52,2.34-4.52s2.75,1.82,2.88,4.83c.12,2.86-.87,4.58-2.34,4.58ZM150.63,46.32h-.31c-.74,0-1.13-.12-1.04-.4.1-.31.59-.56,1.31-.56s1.19.25,1.22.54c.03.31-.38.42-1.18.42ZM169.67,51.64c-.02,1.48-.22,2.18-.8,2.7-.34-1-1.39-1.65-2.5-1.31-1.2.44-2.02.21-2.02-1,0-2.03.01-3.01.03-4.79,0-.53.26-.98.87-.96.27,0,.51,0,.83,0,.76.02,1.34-.23,1.75-.62.15.3.37.58.68.82.9.69,1.16.96,1.16,2.26,0,1.16,0,2.59,0,2.89ZM184.48,54.31h.01s.02.02.02.02c-.03-.01-.03-.02-.03-.02ZM200.83,53.26c0,.38-.44.9-1.05.9-.32,0-.47-.15-.47-.39,0-.33.27-.62.96-.83.43-.14.57-.06.57.18v.14ZM201.06,47.19c0,.65-.23,1.1-1.24,1.48-.19.08-.97.38-1.8.7.6-.51,1.03-1.27,1.1-2.31.01-.26.03-.43.06-.62.08-.44.43-.7.9-.71.66,0,.98.46.98,1.24v.22Z"/>
</svg>