<svg width="811" height="173" viewBox="0 0 811 173" fill="none" xmlns="http://www.w3.org/2000/svg">
<path d="M322.488 1.51929L325.619 3.75376" stroke="#F0D887" stroke-width="2"/>
<path d="M525.956 5.98828L527.01 9.68617" stroke="#F0D887" stroke-width="2"/>
<path d="M721.04 7.02673L727.93 13.8718" stroke="#F0D887" stroke-width="2"/>
<path d="M721.795 6.66492L732.775 17.6012" stroke="#F0D887" stroke-width="2"/>
<path d="M725.02 5.98828L731.029 11.7161" stroke="#F0D887" stroke-width="2"/>
<path d="M739.571 7.32581L755.334 15.115" stroke="#F0D887" stroke-width="2"/>
<path d="M739.807 6.25574L749.513 11.0551" stroke="#F0D887" stroke-width="2"/>
<path d="M268.656 8.80493L279.054 18.4195" stroke="#F0D887" stroke-width="2"/>
<path d="M624.277 10.4099L628.32 13.8403" stroke="#F0D887" stroke-width="2"/>
<path d="M715.125 9.43433L722.754 17.6326" stroke="#F0D887" stroke-width="2"/>
<path d="M727.851 9.92212L736.535 16.7829" stroke="#F0D887" stroke-width="2"/>
<path d="M730.542 10.1425L739.996 16.7042" stroke="#F0D887" stroke-width="2"/>
<path d="M737.51 10.0795L746.021 14.5169" stroke="#F0D887" stroke-width="2"/>
<path d="M737.306 9.26123L745.785 13.683" stroke="#F0D887" stroke-width="2"/>
<path d="M737.07 9.92212L744.904 13.9977" stroke="#F0D887" stroke-width="2"/>
<path d="M740.074 9.84351L747.688 13.1637" stroke="#F0D887" stroke-width="2"/>
<path d="M233.024 13.4941L241.96 23.8797" stroke="#F0D887" stroke-width="2"/>
<path d="M264.959 12.1566L273.894 20.5123" stroke="#F0D887" stroke-width="2"/>
<path d="M274.492 12.377L284.387 20.1032" stroke="#F0D887" stroke-width="2"/>
<path d="M276.93 12.9591L284.953 19.159" stroke="#F0D887" stroke-width="2"/>
<path d="M283.994 13.2582L291.655 19.5525" stroke="#F0D887" stroke-width="2"/>
<path d="M291.073 12.2354L296.107 16.9403" stroke="#F0D887" stroke-width="2"/>
<path d="M561.084 12.4241L572.348 27.7664" stroke="#F0D887" stroke-width="2"/>
<path d="M574.031 12.2825L579.726 17.9788" stroke="#F0D887" stroke-width="2"/>
<path d="M702.854 12.4241L706.52 18.1833" stroke="#F0D887" stroke-width="2"/>
<path d="M711.774 12.4398L718.822 20.4336" stroke="#F0D887" stroke-width="2"/>
<path d="M718.428 13.2267L724.327 18.4037" stroke="#F0D887" stroke-width="2"/>
<path d="M727.898 12.0465L733.986 16.2007" stroke="#F0D887" stroke-width="2"/>
<path d="M727.316 13.2424L733.735 17.617" stroke="#F0D887" stroke-width="2"/>
<path d="M730.51 12.7231L737.133 16.6413" stroke="#F0D887" stroke-width="2"/>
<path d="M733.719 12.1566L741.207 15.9489" stroke="#F0D887" stroke-width="2"/>
<path d="M736.472 12.0465L743.268 15.052" stroke="#F0D887" stroke-width="2"/>
<path d="M202.946 15.5713L211.221 28.034" stroke="#F0D887" stroke-width="2"/>
<path d="M211.409 15.4768L215.94 20.8427" stroke="#F0D887" stroke-width="2"/>
<path d="M211.976 15.6656L218.882 23.8325" stroke="#F0D887" stroke-width="2"/>
<path d="M214.745 15.949L222.437 24.7767" stroke="#F0D887" stroke-width="2"/>
<path d="M217.561 16.4368L223.554 23.4077" stroke="#F0D887" stroke-width="2"/>
<path d="M221.682 16.1534L227.251 22.8569" stroke="#F0D887" stroke-width="2"/>
<path d="M252.846 16.5941L262.867 28.1284" stroke="#F0D887" stroke-width="2"/>
<path d="M255.552 15.7286L259.972 20.7641" stroke="#F0D887" stroke-width="2"/>
<path d="M255.347 15.7601L260.9 22.0859" stroke="#F0D887" stroke-width="2"/>
<path d="M258.871 16.4525L264.723 22.6367" stroke="#F0D887" stroke-width="2"/>
<path d="M261.561 16.5941L269.741 24.4462" stroke="#F0D887" stroke-width="2"/>
<path d="M265.588 16.0276L271.204 21.063" stroke="#F0D887" stroke-width="2"/>
<path d="M271.881 16.2637L278.378 21.3778" stroke="#F0D887" stroke-width="2"/>
<path d="M281.162 15.823L290.396 22.9985" stroke="#F0D887" stroke-width="2"/>
<path d="M287.769 15.9803L293.306 20.8112" stroke="#F0D887" stroke-width="2"/>
<path d="M289.751 16.3738L301.235 27.1055" stroke="#F0D887" stroke-width="2"/>
<path d="M306.285 16.1377L318.539 27.0898" stroke="#F0D887" stroke-width="2"/>
<path d="M583.124 15.4297L590.423 21.2834" stroke="#F0D887" stroke-width="2"/>
<path d="M591.776 16.2322L597.565 20.5123" stroke="#F0D887" stroke-width="2"/>
<path d="M598.808 16.2007L607.098 23.0929" stroke="#F0D887" stroke-width="2"/>
<path d="M598.698 16.2479L606.894 23.0615" stroke="#F0D887" stroke-width="2"/>
<path d="M605.021 16.421L614.098 23.1087" stroke="#F0D887" stroke-width="2"/>
<path d="M616.962 14.5327L637.129 30.5202" stroke="#F0D887" stroke-width="2"/>
<path d="M702.32 16.0906L708.14 24.6036" stroke="#F0D887" stroke-width="2"/>
<path d="M702.241 15.2251L706.425 21.362" stroke="#F0D887" stroke-width="2"/>
<path d="M705.607 15.7444L712.812 25.4691" stroke="#F0D887" stroke-width="2"/>
<path d="M714.417 15.823L722.77 23.3132" stroke="#F0D887" stroke-width="2"/>
<path d="M731.013 15.6028L741.254 20.9057" stroke="#F0D887" stroke-width="2"/>
<path d="M746.037 15.5083L757.159 18.7971" stroke="#F0D887" stroke-width="2"/>
<path d="M239.867 19.0646L247.293 27.5933" stroke="#F0D887" stroke-width="2"/>
<path d="M240.717 19.1591L248.252 27.8137" stroke="#F0D887" stroke-width="2"/>
<path d="M239.82 18.6398L247.733 27.735" stroke="#F0D887" stroke-width="2"/>
<path d="M252.389 19.2849L258.43 26.0198" stroke="#F0D887" stroke-width="2"/>
<path d="M255.913 18.5768L261.655 24.8868" stroke="#F0D887" stroke-width="2"/>
<path d="M268.593 19.0646L277.544 26.3187" stroke="#F0D887" stroke-width="2"/>
<path d="M268.687 19.1748L275.798 24.9498" stroke="#F0D887" stroke-width="2"/>
<path d="M271.645 18.9702L280.674 25.9411" stroke="#F0D887" stroke-width="2"/>
<path d="M281.319 18.7184L286.778 22.9041" stroke="#F0D887" stroke-width="2"/>
<path d="M290.774 19.9615L295.635 24.462" stroke="#F0D887" stroke-width="2"/>
<path d="M293.605 18.5295L298.608 23.3289" stroke="#F0D887" stroke-width="2"/>
<path d="M356.814 18.561L365.324 23.7853" stroke="#F0D887" stroke-width="2"/>
<path d="M362.76 18.9387L372.482 24.8868" stroke="#F0D887" stroke-width="2"/>
<path d="M362.744 19.0017L370.437 23.7067" stroke="#F0D887" stroke-width="2"/>
<path d="M366.331 19.0488L373.048 23.2345" stroke="#F0D887" stroke-width="2"/>
<path d="M544.85 19.395L547.949 27.5461" stroke="#F0D887" stroke-width="2"/>
<path d="M574.44 19.2534L590.313 33.3211" stroke="#F0D887" stroke-width="2"/>
<path d="M579.93 19.757L586.616 25.3589" stroke="#F0D887" stroke-width="2"/>
<path d="M583.25 18.9072L589.322 23.7853" stroke="#F0D887" stroke-width="2"/>
<path d="M592.484 19.3793L601.813 26.5862" stroke="#F0D887" stroke-width="2"/>
<path d="M595.489 19.3007L600.79 23.6752" stroke="#F0D887" stroke-width="2"/>
<path d="M602.489 18.6398L610.968 25.4691" stroke="#F0D887" stroke-width="2"/>
<path d="M610.559 19.1433L621.964 27.5619" stroke="#F0D887" stroke-width="2"/>
<path d="M621.005 19.4108L628.556 25.4533" stroke="#F0D887" stroke-width="2"/>
<path d="M623.411 18.86L632.127 25.6735" stroke="#F0D887" stroke-width="2"/>
<path d="M626.841 19.458L636.988 27.499" stroke="#F0D887" stroke-width="2"/>
<path d="M633.338 18.6398L639.882 24.8239" stroke="#F0D887" stroke-width="2"/>
<path d="M636.531 19.7885L643.296 26.8223" stroke="#F0D887" stroke-width="2"/>
<path d="M643.217 18.8286L647.606 23.9742" stroke="#F0D887" stroke-width="2"/>
<path d="M643.469 18.561L651.806 28.3644" stroke="#F0D887" stroke-width="2"/>
<path d="M646.238 18.4667L657.312 32.2512" stroke="#F0D887" stroke-width="2"/>
<path d="M651.806 18.8915L658.429 28.9151" stroke="#F0D887" stroke-width="2"/>
<path d="M658.917 18.6555L663.699 27.6406" stroke="#F0D887" stroke-width="2"/>
<path d="M696.121 18.1677L700.841 25.7995" stroke="#F0D887" stroke-width="2"/>
<path d="M740.074 18.9072L748.239 21.9127" stroke="#F0D887" stroke-width="2"/>
<path d="M740.059 19.1118L752.534 23.6909" stroke="#F0D887" stroke-width="2"/>
<path d="M744.055 19.7255L753.729 23.1086" stroke="#F0D887" stroke-width="2"/>
<path d="M748.963 18.3251L755.46 20.355" stroke="#F0D887" stroke-width="2"/>
<path d="M166.701 20.8585L175.07 41.8657" stroke="#F0D887" stroke-width="2"/>
<path d="M170.351 21.8499L174.331 31.0867" stroke="#F0D887" stroke-width="2"/>
<path d="M192.406 22.5736L195.678 28.9623" stroke="#F0D887" stroke-width="2"/>
<path d="M220.864 22.4792L228.195 31.5902" stroke="#F0D887" stroke-width="2"/>
<path d="M236.548 21.6138L240.811 27.0898" stroke="#F0D887" stroke-width="2"/>
<path d="M240.261 22.0701L244.886 27.7821" stroke="#F0D887" stroke-width="2"/>
<path d="M252.358 22.1803L259.421 29.6705" stroke="#F0D887" stroke-width="2"/>
<path d="M261.97 21.4879L269.725 28.4588" stroke="#F0D887" stroke-width="2"/>
<path d="M274.586 21.9127L279.793 25.8624" stroke="#F0D887" stroke-width="2"/>
<path d="M281.524 22.7625L292.583 31.0866" stroke="#F0D887" stroke-width="2"/>
<path d="M333.83 21.3778L346.478 27.6249" stroke="#F0D887" stroke-width="2"/>
<path d="M340.957 21.661L355.697 29.6233" stroke="#F0D887" stroke-width="2"/>
<path d="M343.222 22.4792L349.451 26.004" stroke="#F0D887" stroke-width="2"/>
<path d="M349.672 23.0143L359 28.9152" stroke="#F0D887" stroke-width="2"/>
<path d="M365.702 21.6138L379.593 30.2684" stroke="#F0D887" stroke-width="2"/>
<path d="M629.798 22.6996L636.783 28.6949" stroke="#F0D887" stroke-width="2"/>
<path d="M630.255 22.5107L639.064 30.0796" stroke="#F0D887" stroke-width="2"/>
<path d="M632.96 22.4005L641.581 30.8821" stroke="#F0D887" stroke-width="2"/>
<path d="M633.212 22.4635L638.136 27.3101" stroke="#F0D887" stroke-width="2"/>
<path d="M633.81 22.2275L640.795 29.104" stroke="#F0D887" stroke-width="2"/>
<path d="M661.135 22.2747L665.524 31.4801" stroke="#F0D887" stroke-width="2"/>
<path d="M662.315 23.0458L667.412 33.7146" stroke="#F0D887" stroke-width="2"/>
<path d="M683.363 21.6295L686.934 28.2857" stroke="#F0D887" stroke-width="2"/>
<path d="M686.824 21.9285L690.049 28.2228" stroke="#F0D887" stroke-width="2"/>
<path d="M695.697 21.8184L701.974 31.9994" stroke="#F0D887" stroke-width="2"/>
<path d="M708.219 21.7083L713.63 27.2787" stroke="#F0D887" stroke-width="2"/>
<path d="M708.345 22.2747L716.95 31.1339" stroke="#F0D887" stroke-width="2"/>
<path d="M708.14 21.9757L715.817 29.8908" stroke="#F0D887" stroke-width="2"/>
<path d="M715.455 21.96L724.217 29.4344" stroke="#F0D887" stroke-width="2"/>
<path d="M718.57 22.6208L727.867 29.5446" stroke="#F0D887" stroke-width="2"/>
<path d="M721.118 22.4792L731.658 29.4187" stroke="#F0D887" stroke-width="2"/>
<path d="M724.453 22.3534L733.656 27.735" stroke="#F0D887" stroke-width="2"/>
<path d="M145.731 25.4847L147.981 33.683" stroke="#F0D887" stroke-width="2"/>
<path d="M158.033 25.7208L159.905 34.8003" stroke="#F0D887" stroke-width="2"/>
<path d="M171.358 24.8081L175.448 34.4069" stroke="#F0D887" stroke-width="2"/>
<path d="M173.104 25.2802L176.329 32.6602" stroke="#F0D887" stroke-width="2"/>
<path d="M176.769 25.5635L180.199 33.1481" stroke="#F0D887" stroke-width="2"/>
<path d="M176.219 25.3589L179.082 31.6689" stroke="#F0D887" stroke-width="2"/>
<path d="M180.45 26.0513L185.893 37.2236" stroke="#F0D887" stroke-width="2"/>
<path d="M183.927 25.9568L189.181 36.0749" stroke="#F0D887" stroke-width="2"/>
<path d="M183.707 25.3904L186.885 31.5273" stroke="#F0D887" stroke-width="2"/>
<path d="M186.208 25.6578L189.574 32.0465" stroke="#F0D887" stroke-width="2"/>
<path d="M199.8 25.6421L203.245 31.3856" stroke="#F0D887" stroke-width="2"/>
<path d="M205.841 25.9725L209.931 31.5272" stroke="#F0D887" stroke-width="2"/>
<path d="M211.583 25.8152L218.032 33.7932" stroke="#F0D887" stroke-width="2"/>
<path d="M214.414 25.3904L220.974 33.4785" stroke="#F0D887" stroke-width="2"/>
<path d="M217.765 25.9097L223.979 33.6044" stroke="#F0D887" stroke-width="2"/>
<path d="M221.304 25.469L226.276 31.7475" stroke="#F0D887" stroke-width="2"/>
<path d="M224.954 25.0914L230.963 32.8491" stroke="#F0D887" stroke-width="2"/>
<path d="M227.628 25.4376L235.069 35.3511" stroke="#F0D887" stroke-width="2"/>
<path d="M230.381 25.4219L237.036 34.5329" stroke="#F0D887" stroke-width="2"/>
<path d="M233.37 25.7523L239.742 34.5014" stroke="#F0D887" stroke-width="2"/>
<path d="M245.845 25.5635L253.632 34.8318" stroke="#F0D887" stroke-width="2"/>
<path d="M246.695 25.2802L254.167 34.1708" stroke="#F0D887" stroke-width="2"/>
<path d="M252.201 25.7994L259.846 33.6988" stroke="#F0D887" stroke-width="2"/>
<path d="M252.405 25.2015L257.188 30.1583" stroke="#F0D887" stroke-width="2"/>
<path d="M258.415 26.0198L263.024 30.4415" stroke="#F0D887" stroke-width="2"/>
<path d="M268.199 25.9568L277.449 33.1952" stroke="#F0D887" stroke-width="2"/>
<path d="M328.607 25.532L336.882 30.1111" stroke="#F0D887" stroke-width="2"/>
<path d="M633.479 25.6106L638.325 30.4572" stroke="#F0D887" stroke-width="2"/>
<path d="M639.662 25.532L644.271 31.2913" stroke="#F0D887" stroke-width="2"/>
<path d="M679.855 26.067L684.276 33.7933" stroke="#F0D887" stroke-width="2"/>
<path d="M683.709 25.469L688.979 35.4454" stroke="#F0D887" stroke-width="2"/>
<path d="M687.375 24.8396L691.512 33.0536" stroke="#F0D887" stroke-width="2"/>
<path d="M692.739 25.6106L698.434 35.7287" stroke="#F0D887" stroke-width="2"/>
<path d="M699.551 25.4061L704.254 32.2826" stroke="#F0D887" stroke-width="2"/>
<path d="M709.398 25.532L716.273 32.3928" stroke="#F0D887" stroke-width="2"/>
<path d="M721.071 24.9969L726.986 28.8679" stroke="#F0D887" stroke-width="2"/>
<path d="M734.679 25.8309L748.554 31.2283" stroke="#F0D887" stroke-width="2"/>
<path d="M762.303 26.067L769.209 26.9954" stroke="#F0D887" stroke-width="2"/>
<path d="M761.957 24.8081L769.225 25.7995" stroke="#F0D887" stroke-width="2"/>
<path d="M77.0173 28.5532L78.3545 32.2983" stroke="#F0D887" stroke-width="2"/>
<path d="M135.789 28.5532L143.23 45.6107" stroke="#F0D887" stroke-width="2"/>
<path d="M145.952 28.6477L149.287 39.6942" stroke="#F0D887" stroke-width="2"/>
<path d="M161.667 28.9781L163.697 36.311" stroke="#F0D887" stroke-width="2"/>
<path d="M164.247 28.9624L168.29 40.5911" stroke="#F0D887" stroke-width="2"/>
<path d="M180.639 28.6633L184.776 37.255" stroke="#F0D887" stroke-width="2"/>
<path d="M189.496 28.3329L194.546 38.4195" stroke="#F0D887" stroke-width="2"/>
<path d="M196.355 28.9467L201.31 38.1363" stroke="#F0D887" stroke-width="2"/>
<path d="M199.611 29.0725L203.89 36.2637" stroke="#F0D887" stroke-width="2"/>
<path d="M211.315 29.041L218.63 38.2307" stroke="#F0D887" stroke-width="2"/>
<path d="M215.232 28.5847L219.495 33.9191" stroke="#F0D887" stroke-width="2"/>
<path d="M214.902 28.7106L222.626 38.3723" stroke="#F0D887" stroke-width="2"/>
<path d="M224.498 28.4116L232.002 38.0733" stroke="#F0D887" stroke-width="2"/>
<path d="M226.983 29.0253L232.065 35.7444" stroke="#F0D887" stroke-width="2"/>
<path d="M237.335 28.3644L242.841 35.5399" stroke="#F0D887" stroke-width="2"/>
<path d="M239.852 27.798L246.6 36.2323" stroke="#F0D887" stroke-width="2"/>
<path d="M243.58 28.8994L250.801 37.5541" stroke="#F0D887" stroke-width="2"/>
<path d="M245.578 28.569L250.58 34.3597" stroke="#F0D887" stroke-width="2"/>
<path d="M249.935 28.6791L254.497 33.7145" stroke="#F0D887" stroke-width="2"/>
<path d="M252.138 28.8679L259.956 37.1606" stroke="#F0D887" stroke-width="2"/>
<path d="M255.85 28.8679L262.866 36.185" stroke="#F0D887" stroke-width="2"/>
<path d="M258.336 27.8766L266.847 36.3581" stroke="#F0D887" stroke-width="2"/>
<path d="M330.888 28.4589L342.813 34.3912" stroke="#F0D887" stroke-width="2"/>
<path d="M635.902 28.7106L642.431 36.2952" stroke="#F0D887" stroke-width="2"/>
<path d="M639.363 28.2858L646.725 37.5226" stroke="#F0D887" stroke-width="2"/>
<path d="M686.95 28.1913L691.465 36.7987" stroke="#F0D887" stroke-width="2"/>
<path d="M690.065 28.1755L695.052 37.3495" stroke="#F0D887" stroke-width="2"/>
<path d="M690.191 28.0812L695.665 38.152" stroke="#F0D887" stroke-width="2"/>
<path d="M692.598 28.0024L697.333 36.0277" stroke="#F0D887" stroke-width="2"/>
<path d="M699.708 28.4589L706.001 37.3653" stroke="#F0D887" stroke-width="2"/>
<path d="M721.04 28.7421L729.77 34.4856" stroke="#F0D887" stroke-width="2"/>
<path d="M745.864 28.5375L765.213 36.3739" stroke="#F0D887" stroke-width="2"/>
<path d="M750.127 28.8837L758.921 31.8892" stroke="#F0D887" stroke-width="2"/>
<path d="M753.336 28.5217L759.77 30.2054" stroke="#F0D887" stroke-width="2"/>
<path d="M755.806 28.1127L767.463 30.4258" stroke="#F0D887" stroke-width="2"/>
<path d="M157.923 31.4486L161.368 45.3275" stroke="#F0D887" stroke-width="2"/>
<path d="M160.912 31.9364L163.854 42.1017" stroke="#F0D887" stroke-width="2"/>
<path d="M183.455 31.9836L187.75 41.2992" stroke="#F0D887" stroke-width="2"/>
<path d="M190.062 31.2755L193.759 38.986" stroke="#F0D887" stroke-width="2"/>
<path d="M192.422 31.6375L196.764 40.3865" stroke="#F0D887" stroke-width="2"/>
<path d="M201.924 31.8892L205.652 37.4753" stroke="#F0D887" stroke-width="2"/>
<path d="M218.378 31.6375L224.482 39.5053" stroke="#F0D887" stroke-width="2"/>
<path d="M218.111 31.2755L223.727 38.5139" stroke="#F0D887" stroke-width="2"/>
<path d="M220.77 31.4014L227.786 40.3078" stroke="#F0D887" stroke-width="2"/>
<path d="M223.869 31.8892L230.24 39.9773" stroke="#F0D887" stroke-width="2"/>
<path d="M231.026 31.8892L237.256 40.0875" stroke="#F0D887" stroke-width="2"/>
<path d="M247.119 32.078L257.596 43.6595" stroke="#F0D887" stroke-width="2"/>
<path d="M249.039 32.4872L258.918 43.4707" stroke="#F0D887" stroke-width="2"/>
<path d="M252.248 31.6217L256.794 36.7358" stroke="#F0D887" stroke-width="2"/>
<path d="M255.599 31.606L262.048 38.8287" stroke="#F0D887" stroke-width="2"/>
<path d="M269.096 32.0623L278.33 40.4494" stroke="#F0D887" stroke-width="2"/>
<path d="M275.231 32.5187L284.465 40.0403" stroke="#F0D887" stroke-width="2"/>
<path d="M278.016 30.8821L287.281 38.6398" stroke="#F0D887" stroke-width="2"/>
<path d="M293.149 31.6532L301.377 38.9703" stroke="#F0D887" stroke-width="2"/>
<path d="M350.631 32.4084L368.832 43.7696" stroke="#F0D887" stroke-width="2"/>
<path d="M369.131 32.0465L376.509 36.8302" stroke="#F0D887" stroke-width="2"/>
<path d="M372.561 32.377L381.071 38.0261" stroke="#F0D887" stroke-width="2"/>
<path d="M378.177 32.0465L388.087 38.4982" stroke="#F0D887" stroke-width="2"/>
<path d="M384.186 31.0552L390.022 34.9262" stroke="#F0D887" stroke-width="2"/>
<path d="M393.798 31.0709L403.032 36.6256" stroke="#F0D887" stroke-width="2"/>
<path d="M579.081 31.543L595.095 43.7696" stroke="#F0D887" stroke-width="2"/>
<path d="M623.443 31.2125L631.733 37.4439" stroke="#F0D887" stroke-width="2"/>
<path d="M750.646 31.0081L761.564 34.6115" stroke="#F0D887" stroke-width="2"/>
<path d="M753.163 31.9994L760.793 34.0293" stroke="#F0D887" stroke-width="2"/>
<path d="M161.4 35.2723L163.791 42.6052" stroke="#F0D887" stroke-width="2"/>
<path d="M173.576 35.4927L178.799 46.6021" stroke="#F0D887" stroke-width="2"/>
<path d="M182.905 35.3668L187.954 46.4605" stroke="#F0D887" stroke-width="2"/>
<path d="M189.103 34.8318L192.343 41.3778" stroke="#F0D887" stroke-width="2"/>
<path d="M189.433 35.0049L193.759 43.7697" stroke="#F0D887" stroke-width="2"/>
<path d="M199.422 34.5643L204.236 42.3378" stroke="#F0D887" stroke-width="2"/>
<path d="M198.872 34.6272L202.49 40.4966" stroke="#F0D887" stroke-width="2"/>
<path d="M202.521 34.8633L206.91 41.2205" stroke="#F0D887" stroke-width="2"/>
<path d="M208.373 34.3755L213.203 40.654" stroke="#F0D887" stroke-width="2"/>
<path d="M214.32 34.2181L220.848 42.9043" stroke="#F0D887" stroke-width="2"/>
<path d="M230.114 34.7531L235.4 41.5194" stroke="#F0D887" stroke-width="2"/>
<path d="M234.047 34.3755L240.654 42.8098" stroke="#F0D887" stroke-width="2"/>
<path d="M252.012 34.879L260.003 44.1631" stroke="#F0D887" stroke-width="2"/>
<path d="M252.657 34.816L257.628 40.591" stroke="#F0D887" stroke-width="2"/>
<path d="M268.325 35.0835L273.516 40.3392" stroke="#F0D887" stroke-width="2"/>
<path d="M347.894 34.4226L352.393 37.1606" stroke="#F0D887" stroke-width="2"/>
<path d="M355.602 34.0135L362.618 38.4982" stroke="#F0D887" stroke-width="2"/>
<path d="M356.578 34.6429L363.578 39.1276" stroke="#F0D887" stroke-width="2"/>
<path d="M362.634 34.6272L372.671 40.7327" stroke="#F0D887" stroke-width="2"/>
<path d="M372.01 35.1937L381.291 41.5195" stroke="#F0D887" stroke-width="2"/>
<path d="M382.125 34.344L392.524 41.0946" stroke="#F0D887" stroke-width="2"/>
<path d="M387.836 34.3282L398.344 40.9215" stroke="#F0D887" stroke-width="2"/>
<path d="M388.638 35.2095L394.049 38.6084" stroke="#F0D887" stroke-width="2"/>
<path d="M579.584 34.8003L587.796 41.1103" stroke="#F0D887" stroke-width="2"/>
<path d="M586.239 34.7531L595.19 42.3534" stroke="#F0D887" stroke-width="2"/>
<path d="M589.951 34.3282L598.336 41.4408" stroke="#F0D887" stroke-width="2"/>
<path d="M594.859 35.1307L606.768 43.5808" stroke="#F0D887" stroke-width="2"/>
<path d="M609.631 35.3038L613.611 38.0104" stroke="#F0D887" stroke-width="2"/>
<path d="M696.515 35.0679L702.886 43.518" stroke="#F0D887" stroke-width="2"/>
<path d="M132.989 37.2865L141.248 53.0852" stroke="#F0D887" stroke-width="2"/>
<path d="M136.261 37.9003L140.304 45.7052" stroke="#F0D887" stroke-width="2"/>
<path d="M148.768 38.1677L152.071 45.5792" stroke="#F0D887" stroke-width="2"/>
<path d="M155.532 38.5927L158.757 47.0427" stroke="#F0D887" stroke-width="2"/>
<path d="M157.797 38.4038L160.251 44.7138" stroke="#F0D887" stroke-width="2"/>
<path d="M189.842 38.1677L195.269 47.7665" stroke="#F0D887" stroke-width="2"/>
<path d="M192.375 37.5068L197.66 46.3503" stroke="#F0D887" stroke-width="2"/>
<path d="M202.82 37.2394L207.272 43.156" stroke="#F0D887" stroke-width="2"/>
<path d="M202.097 38.0419L206.454 43.8326" stroke="#F0D887" stroke-width="2"/>
<path d="M231.215 38.3251L236.8 45.3589" stroke="#F0D887" stroke-width="2"/>
<path d="M237.146 37.9003L244.776 47.2158" stroke="#F0D887" stroke-width="2"/>
<path d="M242.636 37.8845L249.809 45.6737" stroke="#F0D887" stroke-width="2"/>
<path d="M252.987 38.7972L259.988 46.8225" stroke="#F0D887" stroke-width="2"/>
<path d="M359.079 37.3495L366.976 42.4636" stroke="#F0D887" stroke-width="2"/>
<path d="M363.028 38.1049L373.505 44.7296" stroke="#F0D887" stroke-width="2"/>
<path d="M362.792 38.2307L373.52 44.9971" stroke="#F0D887" stroke-width="2"/>
<path d="M372.183 38.1206L382.361 45.359" stroke="#F0D887" stroke-width="2"/>
<path d="M378.995 38.1362L386.829 43.4077" stroke="#F0D887" stroke-width="2"/>
<path d="M566.401 37.9318L571.97 44.1788" stroke="#F0D887" stroke-width="2"/>
<path d="M571.058 38.1992L579.411 46.7437" stroke="#F0D887" stroke-width="2"/>
<path d="M668.041 39.8043L671.061 44.1002" stroke="#F0D887" stroke-width="2"/>
<path d="M10.3167 40.7484L15.0046 48.4432" stroke="#F0D887" stroke-width="2"/>
<path d="M10.175 41.6139L16.263 51.6218" stroke="#F0D887" stroke-width="2"/>
<path d="M22.7288 40.9058L25.9065 46.9011" stroke="#F0D887" stroke-width="2"/>
<path d="M32.1675 40.6068L35.3295 48.1914" stroke="#F0D887" stroke-width="2"/>
<path d="M38.9319 40.7012L41.732 48.0183" stroke="#F0D887" stroke-width="2"/>
<path d="M45.0042 41.5038L48.3549 49.4661" stroke="#F0D887" stroke-width="2"/>
<path d="M54.6946 40.9058L59.0364 51.0238" stroke="#F0D887" stroke-width="2"/>
<path d="M140.855 41.6611L143.356 46.0042" stroke="#F0D887" stroke-width="2"/>
<path d="M146.235 40.6383L151.804 51.2599" stroke="#F0D887" stroke-width="2"/>
<path d="M149.648 40.6068L154.211 49.4818" stroke="#F0D887" stroke-width="2"/>
<path d="M152.354 41.5352L157.813 52.2669" stroke="#F0D887" stroke-width="2"/>
<path d="M151.82 41.0631L157.278 51.7791" stroke="#F0D887" stroke-width="2"/>
<path d="M157.939 40.6541L163.618 51.5589" stroke="#F0D887" stroke-width="2"/>
<path d="M176.423 41.787L179.805 47.7194" stroke="#F0D887" stroke-width="2"/>
<path d="M180.906 40.9373L184.462 47.1529" stroke="#F0D887" stroke-width="2"/>
<path d="M183.644 40.7799L188.788 49.5604" stroke="#F0D887" stroke-width="2"/>
<path d="M198.746 41.0474L206.045 50.2528" stroke="#F0D887" stroke-width="2"/>
<path d="M205.322 40.9058L210.497 46.8696" stroke="#F0D887" stroke-width="2"/>
<path d="M208.861 40.6541L213.518 46.1143" stroke="#F0D887" stroke-width="2"/>
<path d="M223.68 41.2047L229.878 48.7264" stroke="#F0D887" stroke-width="2"/>
<path d="M227.361 41.2362L233.213 48.396" stroke="#F0D887" stroke-width="2"/>
<path d="M334.696 41.4093L344.764 47.2472" stroke="#F0D887" stroke-width="2"/>
<path d="M337.385 41.189L347.375 47.1056" stroke="#F0D887" stroke-width="2"/>
<path d="M341.192 41.252L350.458 47.0584" stroke="#F0D887" stroke-width="2"/>
<path d="M344.339 41.0789L353.998 47.4676" stroke="#F0D887" stroke-width="2"/>
<path d="M356.814 41.5509L365.34 47.3731" stroke="#F0D887" stroke-width="2"/>
<path d="M359.409 41.3149L369.792 48.1757" stroke="#F0D887" stroke-width="2"/>
<path d="M392.177 42.2433L395.78 44.0686" stroke="#F0D887" stroke-width="2"/>
<path d="M551.252 40.6854L555.437 48.3802" stroke="#F0D887" stroke-width="2"/>
<path d="M558.473 41.0159L564.576 50.8664" stroke="#F0D887" stroke-width="2"/>
<path d="M558.19 41.6139L562.61 48.7736" stroke="#F0D887" stroke-width="2"/>
<path d="M769.351 41.252L777.421 43.5336" stroke="#F0D887" stroke-width="2"/>
<path d="M7.35913 44.3677L11.874 52.4244" stroke="#F0D887" stroke-width="2"/>
<path d="M13.1641 44.2732L18.6228 53.5887" stroke="#F0D887" stroke-width="2"/>
<path d="M17.1599 44.4305L22.2254 52.9121" stroke="#F0D887" stroke-width="2"/>
<path d="M22.886 44.462L28.2975 55.0679" stroke="#F0D887" stroke-width="2"/>
<path d="M41.323 44.4148L45.1772 54.1867" stroke="#F0D887" stroke-width="2"/>
<path d="M44.6423 43.7539L47.5212 50.3786" stroke="#F0D887" stroke-width="2"/>
<path d="M58.0295 44.1473L62.2141 53.4786" stroke="#F0D887" stroke-width="2"/>
<path d="M63.8501 44.3204L67.4054 52.1568" stroke="#F0D887" stroke-width="2"/>
<path d="M66.4773 43.7539L69.6707 51.0238" stroke="#F0D887" stroke-width="2"/>
<path d="M142.727 44.8397L147.887 53.2269" stroke="#F0D887" stroke-width="2"/>
<path d="M151.709 43.7224L156.806 52.0151" stroke="#F0D887" stroke-width="2"/>
<path d="M158.584 43.8799L165.034 53.8249" stroke="#F0D887" stroke-width="2"/>
<path d="M161.447 44.2574L166.575 52.3299" stroke="#F0D887" stroke-width="2"/>
<path d="M167.016 44.6036L171.499 51.8735" stroke="#F0D887" stroke-width="2"/>
<path d="M167.928 44.6824L171.515 50.5046" stroke="#F0D887" stroke-width="2"/>
<path d="M174.158 44.4305L179.648 53.0537" stroke="#F0D887" stroke-width="2"/>
<path d="M174.095 44.9656L178.61 52.0781" stroke="#F0D887" stroke-width="2"/>
<path d="M174.347 44.399L177.792 49.8279" stroke="#F0D887" stroke-width="2"/>
<path d="M176.848 44.6194L181.52 51.8263" stroke="#F0D887" stroke-width="2"/>
<path d="M177.351 43.8799L182.747 52.1883" stroke="#F0D887" stroke-width="2"/>
<path d="M183.156 44.6351L188.93 53.1167" stroke="#F0D887" stroke-width="2"/>
<path d="M185.972 44.6351L192.296 53.337" stroke="#F0D887" stroke-width="2"/>
<path d="M204.865 44.6509L209.207 49.2929" stroke="#F0D887" stroke-width="2"/>
<path d="M211.394 44.1631L218.205 52.1726" stroke="#F0D887" stroke-width="2"/>
<path d="M215.295 43.7068L220.125 49.5762" stroke="#F0D887" stroke-width="2"/>
<path d="M227.723 44.4463L232.364 49.9695" stroke="#F0D887" stroke-width="2"/>
<path d="M236.438 44.7767L242.652 52.2197" stroke="#F0D887" stroke-width="2"/>
<path d="M246.742 44.1473L255.3 53.337" stroke="#F0D887" stroke-width="2"/>
<path d="M246.05 44.0057L251.634 50.001" stroke="#F0D887" stroke-width="2"/>
<path d="M259.421 44.0372L269.521 55.0365" stroke="#F0D887" stroke-width="2"/>
<path d="M317.942 44.7452L323.935 48.9939" stroke="#F0D887" stroke-width="2"/>
<path d="M324.989 44.462L330.59 48.4746" stroke="#F0D887" stroke-width="2"/>
<path d="M331.88 44.3833L339.903 49.4502" stroke="#F0D887" stroke-width="2"/>
<path d="M334.302 44.3204L342.86 49.5604" stroke="#F0D887" stroke-width="2"/>
<path d="M334.538 43.8641L344.291 49.8437" stroke="#F0D887" stroke-width="2"/>
<path d="M344.433 43.5651L351.213 48.2386" stroke="#F0D887" stroke-width="2"/>
<path d="M347.265 44.7139L352.991 48.7107" stroke="#F0D887" stroke-width="2"/>
<path d="M350.568 43.5966L358.277 48.931" stroke="#F0D887" stroke-width="2"/>
<path d="M358.843 44.0057L372.01 52.7548" stroke="#F0D887" stroke-width="2"/>
<path d="M567.408 44.3677L574.503 52.7705" stroke="#F0D887" stroke-width="2"/>
<path d="M762.02 43.691L771.27 46.7123" stroke="#F0D887" stroke-width="2"/>
<path d="M765.795 44.6351L775.517 47.861" stroke="#F0D887" stroke-width="2"/>
<path d="M7.10742 46.6965L12.9437 57.3339" stroke="#F0D887" stroke-width="2"/>
<path d="M22.9646 47.2316L28.4076 58.042" stroke="#F0D887" stroke-width="2"/>
<path d="M25.7334 46.9797L30.7202 58.1993" stroke="#F0D887" stroke-width="2"/>
<path d="M38.0667 47.4833L42.6602 59.2536" stroke="#F0D887" stroke-width="2"/>
<path d="M164.373 47.2316L168.054 52.4244" stroke="#F0D887" stroke-width="2"/>
<path d="M170.603 47.3417L177.446 56.9247" stroke="#F0D887" stroke-width="2"/>
<path d="M183.927 47.9868L189.228 54.8633" stroke="#F0D887" stroke-width="2"/>
<path d="M205.699 47.3417L212.212 53.8877" stroke="#F0D887" stroke-width="2"/>
<path d="M210.953 47.4518L217.167 54.4542" stroke="#F0D887" stroke-width="2"/>
<path d="M211.095 46.7909L218.363 54.9892" stroke="#F0D887" stroke-width="2"/>
<path d="M214.823 46.9797L221.965 55.3197" stroke="#F0D887" stroke-width="2"/>
<path d="M227.975 46.8224L233.339 53.0852" stroke="#F0D887" stroke-width="2"/>
<path d="M227.613 46.8381L234.456 54.8161" stroke="#F0D887" stroke-width="2"/>
<path d="M236.941 47.2001L242.526 53.872" stroke="#F0D887" stroke-width="2"/>
<path d="M236.548 47.7666L241.928 54.171" stroke="#F0D887" stroke-width="2"/>
<path d="M240.402 47.5148L244.901 52.739" stroke="#F0D887" stroke-width="2"/>
<path d="M312.216 47.0427L324.266 54.9421" stroke="#F0D887" stroke-width="2"/>
<path d="M325.178 46.7751L333.327 52.676" stroke="#F0D887" stroke-width="2"/>
<path d="M328.733 47.5463L334.837 51.6848" stroke="#F0D887" stroke-width="2"/>
<path d="M330.841 46.9482L337.732 51.3385" stroke="#F0D887" stroke-width="2"/>
<path d="M340.768 47.6879L347.312 52.0309" stroke="#F0D887" stroke-width="2"/>
<path d="M453.514 46.9955L462.166 50.8665" stroke="#F0D887" stroke-width="2"/>
<path d="M461.143 46.3031L472.155 51.0868" stroke="#F0D887" stroke-width="2"/>
<path d="M4.87378 51.1812L12.4877 64.7768" stroke="#F0D887" stroke-width="2"/>
<path d="M28.5334 51.2599L33.0011 61.614" stroke="#F0D887" stroke-width="2"/>
<path d="M35.3452 51.0081L39.8129 61.7241" stroke="#F0D887" stroke-width="2"/>
<path d="M38.4128 50.7878L41.3074 57.5699" stroke="#F0D887" stroke-width="2"/>
<path d="M42.2827 50.6305L45.1301 56.7989" stroke="#F0D887" stroke-width="2"/>
<path d="M45.0828 50.4888L50.1168 60.3708" stroke="#F0D887" stroke-width="2"/>
<path d="M161.699 50.8192L167.566 57.8846" stroke="#F0D887" stroke-width="2"/>
<path d="M180.403 50.3L187.97 59.1278" stroke="#F0D887" stroke-width="2"/>
<path d="M187.152 50.1426L192.202 55.8704" stroke="#F0D887" stroke-width="2"/>
<path d="M199.406 51.0553L206.91 58.4668" stroke="#F0D887" stroke-width="2"/>
<path d="M202.128 51.0396L208.248 56.9404" stroke="#F0D887" stroke-width="2"/>
<path d="M202.097 50.0167L207.87 55.6029" stroke="#F0D887" stroke-width="2"/>
<path d="M205.856 50.9609L212.023 56.8461" stroke="#F0D887" stroke-width="2"/>
<path d="M208.326 51.0238L216.617 59.3008" stroke="#F0D887" stroke-width="2"/>
<path d="M211.976 50.3629L216.994 55.8075" stroke="#F0D887" stroke-width="2"/>
<path d="M221.509 50.1112L229.674 59.2065" stroke="#F0D887" stroke-width="2"/>
<path d="M221.572 50.8822L227.487 57.4755" stroke="#F0D887" stroke-width="2"/>
<path d="M226.983 50.8979L233.811 58.7029" stroke="#F0D887" stroke-width="2"/>
<path d="M230.633 50.7406L237.335 58.3409" stroke="#F0D887" stroke-width="2"/>
<path d="M234.125 50.9452L238.924 56.3897" stroke="#F0D887" stroke-width="2"/>
<path d="M233.732 50.7249L241.661 59.7099" stroke="#F0D887" stroke-width="2"/>
<path d="M243.722 50.1898L249.401 57.1607" stroke="#F0D887" stroke-width="2"/>
<path d="M255.158 50.2371L262.977 60.0876" stroke="#F0D887" stroke-width="2"/>
<path d="M259.484 50.7878L263.622 55.7918" stroke="#F0D887" stroke-width="2"/>
<path d="M258.886 50.4259L264.833 57.6171" stroke="#F0D887" stroke-width="2"/>
<path d="M275.168 50.7878L282.342 58.7186" stroke="#F0D887" stroke-width="2"/>
<path d="M273.989 50.8192L281.713 59.3794" stroke="#F0D887" stroke-width="2"/>
<path d="M283.71 50.2686L291.057 56.4842" stroke="#F0D887" stroke-width="2"/>
<path d="M462.921 50.5675L471.337 54.942" stroke="#F0D887" stroke-width="2"/>
<path d="M470.346 50.064L480.21 55.7288" stroke="#F0D887" stroke-width="2"/>
<path d="M533.083 51.3071L534.986 56.9563" stroke="#F0D887" stroke-width="2"/>
<path d="M1.06665 53.4471L7.56367 64.4307" stroke="#F0D887" stroke-width="2"/>
<path d="M4.08716 53.1167L7.98851 59.9617" stroke="#F0D887" stroke-width="2"/>
<path d="M7.57935 53.3842L10.9773 59.5211" stroke="#F0D887" stroke-width="2"/>
<path d="M22.886 53.337L26.1581 59.9303" stroke="#F0D887" stroke-width="2"/>
<path d="M28.8325 53.0222L31.381 58.8444" stroke="#F0D887" stroke-width="2"/>
<path d="M31.6326 53.7933L35.5811 62.9987" stroke="#F0D887" stroke-width="2"/>
<path d="M38.2083 54.533L42.7389 64.5566" stroke="#F0D887" stroke-width="2"/>
<path d="M42.3613 53.6989L46.3256 61.787" stroke="#F0D887" stroke-width="2"/>
<path d="M51.4697 53.7461L57.3218 63.6281" stroke="#F0D887" stroke-width="2"/>
<path d="M104.468 53.2268L112.051 61.6297" stroke="#F0D887" stroke-width="2"/>
<path d="M107.63 53.3999L113.671 59.946" stroke="#F0D887" stroke-width="2"/>
<path d="M114.143 53.274L120.514 59.9145" stroke="#F0D887" stroke-width="2"/>
<path d="M117.022 53.9507L122.748 60.0089" stroke="#F0D887" stroke-width="2"/>
<path d="M151.395 53.7303L158.159 60.9373" stroke="#F0D887" stroke-width="2"/>
<path d="M165.175 54.3126L170.052 59.6942" stroke="#F0D887" stroke-width="2"/>
<path d="M168.227 53.8091L176.47 62.8099" stroke="#F0D887" stroke-width="2"/>
<path d="M183.14 53.636L190.141 60.8429" stroke="#F0D887" stroke-width="2"/>
<path d="M186.774 53.1482L193.869 60.5282" stroke="#F0D887" stroke-width="2"/>
<path d="M196.135 53.6832L202.018 59.3953" stroke="#F0D887" stroke-width="2"/>
<path d="M202.915 53.3842L211.661 61.5038" stroke="#F0D887" stroke-width="2"/>
<path d="M205.982 53.0695L210.78 57.4283" stroke="#F0D887" stroke-width="2"/>
<path d="M218.3 53.3999L224.813 60.418" stroke="#F0D887" stroke-width="2"/>
<path d="M223.522 53.8091L229.752 60.6384" stroke="#F0D887" stroke-width="2"/>
<path d="M227.44 53.3213L235.258 62.0546" stroke="#F0D887" stroke-width="2"/>
<path d="M243.438 54.0923L248.897 61.2835" stroke="#F0D887" stroke-width="2"/>
<path d="M252.61 53.4944L257.313 60.0247" stroke="#F0D887" stroke-width="2"/>
<path d="M264.361 52.8649L271.094 60.7642" stroke="#F0D887" stroke-width="2"/>
<path d="M267.208 54.3755L273.06 61.3307" stroke="#F0D887" stroke-width="2"/>
<path d="M438.302 53.7303L454.631 63.7225" stroke="#F0D887" stroke-width="2"/>
<path d="M450.21 54.3126L457.698 58.7816" stroke="#F0D887" stroke-width="2"/>
<path d="M451.107 53.101L458.831 57.7115" stroke="#F0D887" stroke-width="2"/>
<path d="M463.912 53.4471L471.872 58.1679" stroke="#F0D887" stroke-width="2"/>
<path d="M470.079 54.045L477.488 58.8287" stroke="#F0D887" stroke-width="2"/>
<path d="M473.021 54.0137L482.711 60.5912" stroke="#F0D887" stroke-width="2"/>
<path d="M23.0747 57.444L26.8502 65.4849" stroke="#F0D887" stroke-width="2"/>
<path d="M35.9744 56.8303L39.9229 66.0829" stroke="#F0D887" stroke-width="2"/>
<path d="M54.2542 57.1135L60.5624 67.8453" stroke="#F0D887" stroke-width="2"/>
<path d="M63.4412 56.9877L68.2235 64.9185" stroke="#F0D887" stroke-width="2"/>
<path d="M86.0471 57.1923L94.133 66.7124" stroke="#F0D887" stroke-width="2"/>
<path d="M86.0942 57.208L92.7958 65.0916" stroke="#F0D887" stroke-width="2"/>
<path d="M85.8425 56.7673L91.4743 63.3921" stroke="#F0D887" stroke-width="2"/>
<path d="M113.451 56.5156L121.553 64.6667" stroke="#F0D887" stroke-width="2"/>
<path d="M116.519 57.2395L122.276 63.1089" stroke="#F0D887" stroke-width="2"/>
<path d="M121.175 57.208L130.724 67.389" stroke="#F0D887" stroke-width="2"/>
<path d="M145.496 57.6486L154.541 66.9484" stroke="#F0D887" stroke-width="2"/>
<path d="M149.082 56.8933L156.177 63.9586" stroke="#F0D887" stroke-width="2"/>
<path d="M152.276 56.7358L161.4 65.0286" stroke="#F0D887" stroke-width="2"/>
<path d="M158.364 57.4282L165.002 63.0144" stroke="#F0D887" stroke-width="2"/>
<path d="M161.447 57.2709L168.872 63.8956" stroke="#F0D887" stroke-width="2"/>
<path d="M163.948 56.6572L172.239 64.3992" stroke="#F0D887" stroke-width="2"/>
<path d="M171.137 56.61L176.864 61.5982" stroke="#F0D887" stroke-width="2"/>
<path d="M174.032 56.9247L182.197 63.7382" stroke="#F0D887" stroke-width="2"/>
<path d="M176.911 56.4841L183.502 61.9287" stroke="#F0D887" stroke-width="2"/>
<path d="M192.579 56.248L201.719 64.9342" stroke="#F0D887" stroke-width="2"/>
<path d="M201.939 57.0349L207.791 62.3536" stroke="#F0D887" stroke-width="2"/>
<path d="M204.913 56.8146L211.111 62.2749" stroke="#F0D887" stroke-width="2"/>
<path d="M208.436 56.5785L213.706 61.3307" stroke="#F0D887" stroke-width="2"/>
<path d="M230.24 56.9247L236.957 64.1002" stroke="#F0D887" stroke-width="2"/>
<path d="M230.035 56.4999L237.712 64.7139" stroke="#F0D887" stroke-width="2"/>
<path d="M230.743 56.9247L238.813 65.5479" stroke="#F0D887" stroke-width="2"/>
<path d="M256.244 56.311L260.743 62.8728" stroke="#F0D887" stroke-width="2"/>
<path d="M449.99 57.4125L459.885 64.3047" stroke="#F0D887" stroke-width="2"/>
<path d="M690.615 56.2953L693.73 59.0962" stroke="#F0D887" stroke-width="2"/>
<path d="M28.9583 59.9617L33.1585 70.6777" stroke="#F0D887" stroke-width="2"/>
<path d="M44.7839 60.2921L49.6764 68.994" stroke="#F0D887" stroke-width="2"/>
<path d="M63.0164 59.8043L67.2166 66.5864" stroke="#F0D887" stroke-width="2"/>
<path d="M66.9336 60.6541L72.0148 68.4904" stroke="#F0D887" stroke-width="2"/>
<path d="M76.0261 60.4023L81.4062 67.2159" stroke="#F0D887" stroke-width="2"/>
<path d="M75.9319 59.647L84.9616 71.1026" stroke="#F0D887" stroke-width="2"/>
<path d="M92.1035 60.3866L104.704 72.9594" stroke="#F0D887" stroke-width="2"/>
<path d="M161.887 60.8271L171.814 68.4904" stroke="#F0D887" stroke-width="2"/>
<path d="M173.466 60.9059L180.938 66.0515" stroke="#F0D887" stroke-width="2"/>
<path d="M186.727 60.1348L199.847 71.6848" stroke="#F0D887" stroke-width="2"/>
<path d="M249.715 60.8114L254.781 68.4904" stroke="#F0D887" stroke-width="2"/>
<path d="M253.097 59.9617L258.462 68.0813" stroke="#F0D887" stroke-width="2"/>
<path d="M265.714 60.3708L270.543 66.02" stroke="#F0D887" stroke-width="2"/>
<path d="M474.641 61.2678L477.032 63.3764" stroke="#F0D887" stroke-width="2"/>
<path d="M612.29 60.4495L617.67 62.8728" stroke="#F0D887" stroke-width="2"/>
<path d="M-4.81689 63.2505L0.248573 73.0381" stroke="#F0D887" stroke-width="2"/>
<path d="M50.6516 62.8257L53.9552 67.9713" stroke="#F0D887" stroke-width="2"/>
<path d="M67.2324 63.691L71.6529 70.2843" stroke="#F0D887" stroke-width="2"/>
<path d="M67.2168 63.0144L73.6981 72.6919" stroke="#F0D887" stroke-width="2"/>
<path d="M70.9292 63.691L77.5363 72.865" stroke="#F0D887" stroke-width="2"/>
<path d="M85.5752 63.4236L91.7104 69.8595" stroke="#F0D887" stroke-width="2"/>
<path d="M89.5867 62.8413L95.3915 68.5534" stroke="#F0D887" stroke-width="2"/>
<path d="M89.0518 62.5896L97.6253 71.0554" stroke="#F0D887" stroke-width="2"/>
<path d="M91.4272 62.5896L97.6726 68.4275" stroke="#F0D887" stroke-width="2"/>
<path d="M188.772 63.4708L198.447 71.858" stroke="#F0D887" stroke-width="2"/>
<path d="M246.522 62.5739L251.304 69.7808" stroke="#F0D887" stroke-width="2"/>
<path d="M265.368 62.8728L273.485 72.2198" stroke="#F0D887" stroke-width="2"/>
<path d="M268.687 63.1404L275.137 69.891" stroke="#F0D887" stroke-width="2"/>
<path d="M272.085 62.5896L278.645 68.8524" stroke="#F0D887" stroke-width="2"/>
<path d="M271.692 63.219L277.009 68.3016" stroke="#F0D887" stroke-width="2"/>
<path d="M278.189 62.6682L286.983 69.4818" stroke="#F0D887" stroke-width="2"/>
<path d="M481.405 62.8728L491.977 74.9893" stroke="#F0D887" stroke-width="2"/>
<path d="M485.952 62.6997L497.514 76.1065" stroke="#F0D887" stroke-width="2"/>
<path d="M487.021 62.0546L499.276 76.3898" stroke="#F0D887" stroke-width="2"/>
<path d="M489.302 63.2977L498.804 74.4229" stroke="#F0D887" stroke-width="2"/>
<path d="M682.64 62.9987L687.689 66.7123" stroke="#F0D887" stroke-width="2"/>
<path d="M80.4468 66.0514L87.7304 73.7147" stroke="#F0D887" stroke-width="2"/>
<path d="M194.986 65.5007L202.694 71.9996" stroke="#F0D887" stroke-width="2"/>
<path d="M223.9 66.1301L231.656 72.1569" stroke="#F0D887" stroke-width="2"/>
<path d="M268.435 66.4291L273.076 71.0711" stroke="#F0D887" stroke-width="2"/>
<path d="M289.767 66.3976L302.1 72.8492" stroke="#F0D887" stroke-width="2"/>
<path d="M412.55 65.957L422.586 68.9468" stroke="#F0D887" stroke-width="2"/>
<path d="M434.982 66.2875L448.936 76.3269" stroke="#F0D887" stroke-width="2"/>
<path d="M440.74 66.8854L448.732 73.3842" stroke="#F0D887" stroke-width="2"/>
<path d="M453.419 66.1301L462.544 74.6431" stroke="#F0D887" stroke-width="2"/>
<path d="M453.168 66.1616L460.105 72.6447" stroke="#F0D887" stroke-width="2"/>
<path d="M456.849 66.5864L463.409 72.5031" stroke="#F0D887" stroke-width="2"/>
<path d="M472.596 66.0514L478.322 71.1812" stroke="#F0D887" stroke-width="2"/>
<path d="M478.825 66.0829L483.199 70.9137" stroke="#F0D887" stroke-width="2"/>
<path d="M482.412 66.8068L489.444 75.1782" stroke="#F0D887" stroke-width="2"/>
<path d="M494.541 65.8469L499.953 73.3214" stroke="#F0D887" stroke-width="2"/>
<path d="M497.687 65.8627L503.492 74.5645" stroke="#F0D887" stroke-width="2"/>
<path d="M507.346 66.5393L510.681 72.5346" stroke="#F0D887" stroke-width="2"/>
<path d="M512.868 66.6809L521.882 86.1145" stroke="#F0D887" stroke-width="2"/>
<path d="M547.429 67.1372L554.446 82.9044" stroke="#F0D887" stroke-width="2"/>
<path d="M193.287 69.5291L199.674 74.596" stroke="#F0D887" stroke-width="2"/>
<path d="M211.535 69.1986L218.441 74.2812" stroke="#F0D887" stroke-width="2"/>
<path d="M211.158 69.7336L218.205 74.9264" stroke="#F0D887" stroke-width="2"/>
<path d="M237.004 69.5133L243.8 76.8304" stroke="#F0D887" stroke-width="2"/>
<path d="M236.847 70.2843L243.722 77.6801" stroke="#F0D887" stroke-width="2"/>
<path d="M267.838 68.8052L275.436 75.8548" stroke="#F0D887" stroke-width="2"/>
<path d="M272.368 69.8595L281.571 77.4756" stroke="#F0D887" stroke-width="2"/>
<path d="M292.882 70.1899L298.655 73.0381" stroke="#F0D887" stroke-width="2"/>
<path d="M302.95 68.9468L311.602 73.4" stroke="#F0D887" stroke-width="2"/>
<path d="M309.258 70.0798L318.477 75.4772" stroke="#F0D887" stroke-width="2"/>
<path d="M309.557 68.4275L318.146 73.4472" stroke="#F0D887" stroke-width="2"/>
<path d="M312.436 69.5605L326.327 78.0421" stroke="#F0D887" stroke-width="2"/>
<path d="M347.092 69.592L357.679 74.4701" stroke="#F0D887" stroke-width="2"/>
<path d="M403.976 69.0255L410.284 71.8579" stroke="#F0D887" stroke-width="2"/>
<path d="M422.35 69.9224L428.737 73.1639" stroke="#F0D887" stroke-width="2"/>
<path d="M425.323 69.293L434.715 74.769" stroke="#F0D887" stroke-width="2"/>
<path d="M444.106 69.1986L449.282 73.7777" stroke="#F0D887" stroke-width="2"/>
<path d="M463.692 69.1514L471.731 76.7045" stroke="#F0D887" stroke-width="2"/>
<path d="M463.299 69.5448L470.157 75.9964" stroke="#F0D887" stroke-width="2"/>
<path d="M470.472 68.522L476.639 74.3127" stroke="#F0D887" stroke-width="2"/>
<path d="M470 70.0641L479.187 78.7187" stroke="#F0D887" stroke-width="2"/>
<path d="M472.517 68.8997L480.052 76.1381" stroke="#F0D887" stroke-width="2"/>
<path d="M476.214 69.828L481.531 75.3198" stroke="#F0D887" stroke-width="2"/>
<path d="M482.003 69.7493L487.368 76.2324" stroke="#F0D887" stroke-width="2"/>
<path d="M491.961 69.3087L496.916 76.1065" stroke="#F0D887" stroke-width="2"/>
<path d="M494.399 68.8682L500.157 77.0035" stroke="#F0D887" stroke-width="2"/>
<path d="M498.253 69.5763L504.31 78.404" stroke="#F0D887" stroke-width="2"/>
<path d="M500.786 69.9224L504.829 76.1222" stroke="#F0D887" stroke-width="2"/>
<path d="M508.054 69.9381L511.688 76.374" stroke="#F0D887" stroke-width="2"/>
<path d="M610.984 68.8209L618.252 72.2985" stroke="#F0D887" stroke-width="2"/>
<path d="M700.448 70.6935L703.263 73.0381" stroke="#F0D887" stroke-width="2"/>
<path d="M188.929 72.2041L202.285 81.441" stroke="#F0D887" stroke-width="2"/>
<path d="M213.077 71.2756L229.296 82.6211" stroke="#F0D887" stroke-width="2"/>
<path d="M224.435 73.1954L234.424 80.7958" stroke="#F0D887" stroke-width="2"/>
<path d="M240.512 72.3615L244.839 77.2553" stroke="#F0D887" stroke-width="2"/>
<path d="M240.591 72.3615L247.418 80.0877" stroke="#F0D887" stroke-width="2"/>
<path d="M246.459 71.8107L252.956 79.9932" stroke="#F0D887" stroke-width="2"/>
<path d="M249.983 72.5818L255.961 79.8359" stroke="#F0D887" stroke-width="2"/>
<path d="M258.761 72.566L263.826 78.1994" stroke="#F0D887" stroke-width="2"/>
<path d="M265.069 71.7635L273.705 80.0091" stroke="#F0D887" stroke-width="2"/>
<path d="M289.924 73.1326L298.514 77.1924" stroke="#F0D887" stroke-width="2"/>
<path d="M300.307 72.1255L310.721 77.098" stroke="#F0D887" stroke-width="2"/>
<path d="M312.451 72.865L320.38 77.57" stroke="#F0D887" stroke-width="2"/>
<path d="M327.711 72.4087L335.671 77.2868" stroke="#F0D887" stroke-width="2"/>
<path d="M331.455 73.1168L340.264 78.0264" stroke="#F0D887" stroke-width="2"/>
<path d="M337.338 72.5031L348.445 78.3567" stroke="#F0D887" stroke-width="2"/>
<path d="M340.343 72.0625L351.512 77.6959" stroke="#F0D887" stroke-width="2"/>
<path d="M350.002 72.1411L358.056 75.5086" stroke="#F0D887" stroke-width="2"/>
<path d="M360.164 72.2356L366.237 75.1467" stroke="#F0D887" stroke-width="2"/>
<path d="M365.419 72.7076L371.994 76.4999" stroke="#F0D887" stroke-width="2"/>
<path d="M376.179 71.7478L383.84 76.6731" stroke="#F0D887" stroke-width="2"/>
<path d="M390.447 73.0696L395.922 76.2639" stroke="#F0D887" stroke-width="2"/>
<path d="M394.396 72.7391L400.153 76.0436" stroke="#F0D887" stroke-width="2"/>
<path d="M396.976 72.802L407.264 78.5613" stroke="#F0D887" stroke-width="2"/>
<path d="M403.079 73.2899L413.871 78.4355" stroke="#F0D887" stroke-width="2"/>
<path d="M409.403 73.1011L420.572 77.6487" stroke="#F0D887" stroke-width="2"/>
<path d="M419.424 72.8807L428.454 77.0664" stroke="#F0D887" stroke-width="2"/>
<path d="M422.586 72.7391L428.344 75.7761" stroke="#F0D887" stroke-width="2"/>
<path d="M438.569 72.1255L447.221 79.1751" stroke="#F0D887" stroke-width="2"/>
<path d="M438.333 73.0066L443.54 77.2552" stroke="#F0D887" stroke-width="2"/>
<path d="M454.521 72.7706L459.444 77.4284" stroke="#F0D887" stroke-width="2"/>
<path d="M478.589 72.3142L485.354 80.0247" stroke="#F0D887" stroke-width="2"/>
<path d="M481.688 72.0468L486.612 77.9791" stroke="#F0D887" stroke-width="2"/>
<path d="M488.421 72.6289L494.446 80.8744" stroke="#F0D887" stroke-width="2"/>
<path d="M496.02 73.2742L501.038 80.3395" stroke="#F0D887" stroke-width="2"/>
<path d="M517.115 72.3142L523.077 87.3418" stroke="#F0D887" stroke-width="2"/>
<path d="M573.103 72.3772L579.647 79.3639" stroke="#F0D887" stroke-width="2"/>
<path d="M583.281 72.7549L592.295 79.1908" stroke="#F0D887" stroke-width="2"/>
<path d="M598.839 72.2828L609.647 78.7502" stroke="#F0D887" stroke-width="2"/>
<path d="M598.147 73.3213L604.125 76.8933" stroke="#F0D887" stroke-width="2"/>
<path d="M604.849 71.7478L614.303 76.6416" stroke="#F0D887" stroke-width="2"/>
<path d="M608.152 72.5031L614.177 75.5086" stroke="#F0D887" stroke-width="2"/>
<path d="M611.031 71.7949L620.202 76.5943" stroke="#F0D887" stroke-width="2"/>
<path d="M614.602 72.566L622.263 77.0979" stroke="#F0D887" stroke-width="2"/>
<path d="M617.166 72.4087L625.299 77.8218" stroke="#F0D887" stroke-width="2"/>
<path d="M96.115 74.9421L108.81 84.1947" stroke="#F0D887" stroke-width="2"/>
<path d="M234.062 75.3669L242.919 83.7226" stroke="#F0D887" stroke-width="2"/>
<path d="M236.564 75.9965L241.204 80.5913" stroke="#F0D887" stroke-width="2"/>
<path d="M253.066 75.9492L261.388 84.5881" stroke="#F0D887" stroke-width="2"/>
<path d="M275.168 76.5157L282.767 80.9532" stroke="#F0D887" stroke-width="2"/>
<path d="M274.665 75.7446L284.434 81.441" stroke="#F0D887" stroke-width="2"/>
<path d="M286.982 75.8547L295.65 79.6942" stroke="#F0D887" stroke-width="2"/>
<path d="M293.149 75.7761L303.658 80.4654" stroke="#F0D887" stroke-width="2"/>
<path d="M299.678 75.0208L307.292 78.4983" stroke="#F0D887" stroke-width="2"/>
<path d="M300.103 75.5873L312.326 81.1577" stroke="#F0D887" stroke-width="2"/>
<path d="M324.517 76.1066L334.821 82.8572" stroke="#F0D887" stroke-width="2"/>
<path d="M355.87 75.9965L363.043 79.0649" stroke="#F0D887" stroke-width="2"/>
<path d="M362.225 75.902L368.738 79.2852" stroke="#F0D887" stroke-width="2"/>
<path d="M369.336 75.5085L375.534 79.4582" stroke="#F0D887" stroke-width="2"/>
<path d="M372.482 75.8234L377.956 79.4583" stroke="#F0D887" stroke-width="2"/>
<path d="M375.109 75.9965L383.132 81.1892" stroke="#F0D887" stroke-width="2"/>
<path d="M387.269 75.2411L397.18 81.3308" stroke="#F0D887" stroke-width="2"/>
<path d="M397.07 75.3827L406.603 81.079" stroke="#F0D887" stroke-width="2"/>
<path d="M402.891 75.965L413.147 81.2679" stroke="#F0D887" stroke-width="2"/>
<path d="M409.466 75.8391L420.856 81.0948" stroke="#F0D887" stroke-width="2"/>
<path d="M416.231 76.0593L424.411 80.0247" stroke="#F0D887" stroke-width="2"/>
<path d="M422.665 75.4772L432.686 81.1892" stroke="#F0D887" stroke-width="2"/>
<path d="M422.979 75.7289L430.719 80.1349" stroke="#F0D887" stroke-width="2"/>
<path d="M438.254 75.9335L454.772 89.9068" stroke="#F0D887" stroke-width="2"/>
<path d="M470.661 76.1223L486.172 92.9281" stroke="#F0D887" stroke-width="2"/>
<path d="M479.14 75.9807L486.235 84.0531" stroke="#F0D887" stroke-width="2"/>
<path d="M504.593 75.3356L506.811 78.6243" stroke="#F0D887" stroke-width="2"/>
<path d="M509.879 76.3427L513.513 82.8258" stroke="#F0D887" stroke-width="2"/>
<path d="M513.041 75.902L516.816 83.6754" stroke="#F0D887" stroke-width="2"/>
<path d="M516.407 75.5243L520.277 84.9815" stroke="#F0D887" stroke-width="2"/>
<path d="M574.471 76.1381L586.128 88.8525" stroke="#F0D887" stroke-width="2"/>
<path d="M579.741 76.437L585.043 80.8273" stroke="#F0D887" stroke-width="2"/>
<path d="M580.088 75.3041L586.427 80.5441" stroke="#F0D887" stroke-width="2"/>
<path d="M620.753 75.3512L626.715 79.9146" stroke="#F0D887" stroke-width="2"/>
<path d="M627.344 76.0122L637.727 84.2263" stroke="#F0D887" stroke-width="2"/>
<path d="M626.274 75.4299L633.275 80.9689" stroke="#F0D887" stroke-width="2"/>
<path d="M236.281 79.4425L243.564 85.9256" stroke="#F0D887" stroke-width="2"/>
<path d="M240.009 79.3167L247.371 86.3033" stroke="#F0D887" stroke-width="2"/>
<path d="M324.879 78.7501L333.972 84.6353" stroke="#F0D887" stroke-width="2"/>
<path d="M331.927 78.6558L340.044 83.3607" stroke="#F0D887" stroke-width="2"/>
<path d="M337.574 78.8918L343.222 81.8659" stroke="#F0D887" stroke-width="2"/>
<path d="M341.02 78.5613L348.869 82.3221" stroke="#F0D887" stroke-width="2"/>
<path d="M344.008 78.8918L352.959 82.8415" stroke="#F0D887" stroke-width="2"/>
<path d="M344.26 78.4827L353.431 82.5425" stroke="#F0D887" stroke-width="2"/>
<path d="M362.445 79.4425L370.421 83.88" stroke="#F0D887" stroke-width="2"/>
<path d="M369.241 78.4984L375.785 82.7471" stroke="#F0D887" stroke-width="2"/>
<path d="M380.93 79.3481L388.701 84.478" stroke="#F0D887" stroke-width="2"/>
<path d="M387.804 78.3253L394.411 82.8729" stroke="#F0D887" stroke-width="2"/>
<path d="M393.405 78.8289L401.38 84.1633" stroke="#F0D887" stroke-width="2"/>
<path d="M494.509 78.9232L500.896 87.0743" stroke="#F0D887" stroke-width="2"/>
<path d="M510.256 79.0177L518.153 92.4403" stroke="#F0D887" stroke-width="2"/>
<path d="M523.125 78.7188L527.954 91.1972" stroke="#F0D887" stroke-width="2"/>
<path d="M607.617 79.4268L613.501 83.2191" stroke="#F0D887" stroke-width="2"/>
<path d="M608.121 78.7501L613.611 82.2907" stroke="#F0D887" stroke-width="2"/>
<path d="M614.995 79.4425L621.948 84.4465" stroke="#F0D887" stroke-width="2"/>
<path d="M617.26 78.4197L627.407 86.3347" stroke="#F0D887" stroke-width="2"/>
<path d="M237.492 81.5669L243.737 86.4922" stroke="#F0D887" stroke-width="2"/>
<path d="M236.784 82.4795L247.717 91.1027" stroke="#F0D887" stroke-width="2"/>
<path d="M239.915 82.2593L249.353 90.2058" stroke="#F0D887" stroke-width="2"/>
<path d="M321.906 81.9131L331.14 87.8297" stroke="#F0D887" stroke-width="2"/>
<path d="M322.221 82.1176L330.149 87.1845" stroke="#F0D887" stroke-width="2"/>
<path d="M331.581 82.4952L337.873 86.5078" stroke="#F0D887" stroke-width="2"/>
<path d="M341.303 81.7085L351.324 86.4292" stroke="#F0D887" stroke-width="2"/>
<path d="M353.337 82.2278L362.713 86.0201" stroke="#F0D887" stroke-width="2"/>
<path d="M353.62 81.8344L360.683 84.6983" stroke="#F0D887" stroke-width="2"/>
<path d="M365.403 81.8816L373.536 87.1845" stroke="#F0D887" stroke-width="2"/>
<path d="M371.994 81.4567L378.743 86.0515" stroke="#F0D887" stroke-width="2"/>
<path d="M375.833 81.2836L381.921 85.5165" stroke="#F0D887" stroke-width="2"/>
<path d="M378.114 81.9288L388.213 89.2459" stroke="#F0D887" stroke-width="2"/>
<path d="M378.617 82.6211L386.609 88.4276" stroke="#F0D887" stroke-width="2"/>
<path d="M381.354 81.4567L391.407 89.0413" stroke="#F0D887" stroke-width="2"/>
<path d="M604.534 82.6841L617.434 92.094" stroke="#F0D887" stroke-width="2"/>
<path d="M669.488 81.3466L672.446 82.4795" stroke="#F0D887" stroke-width="2"/>
<path d="M681.114 82.7628L686.462 85.1861" stroke="#F0D887" stroke-width="2"/>
<path d="M705.78 82.7471L716.54 88.884" stroke="#F0D887" stroke-width="2"/>
<path d="M711.963 81.4567L718.759 86.2089" stroke="#F0D887" stroke-width="2"/>
<path d="M237.665 85.611L246.475 91.858" stroke="#F0D887" stroke-width="2"/>
<path d="M236.454 84.5881L245.2 90.788" stroke="#F0D887" stroke-width="2"/>
<path d="M243.045 84.6667L252.468 92.1255" stroke="#F0D887" stroke-width="2"/>
<path d="M246.16 84.9028L254.057 91.2443" stroke="#F0D887" stroke-width="2"/>
<path d="M324.266 85.8312L336.599 93.7148" stroke="#F0D887" stroke-width="2"/>
<path d="M331.062 84.3206L337.197 88.3174" stroke="#F0D887" stroke-width="2"/>
<path d="M334.066 84.9658L344.213 91.4332" stroke="#F0D887" stroke-width="2"/>
<path d="M334.554 84.4779L341.491 88.8996" stroke="#F0D887" stroke-width="2"/>
<path d="M340.595 84.6039L348.335 88.2703" stroke="#F0D887" stroke-width="2"/>
<path d="M349.892 84.8398L359.063 88.522" stroke="#F0D887" stroke-width="2"/>
<path d="M353.652 85.0759L360.841 88.0657" stroke="#F0D887" stroke-width="2"/>
<path d="M359.425 85.6738L366.866 89.8753" stroke="#F0D887" stroke-width="2"/>
<path d="M359.346 85.2333L365.23 88.5693" stroke="#F0D887" stroke-width="2"/>
<path d="M375.581 85.1703L381.276 89.2616" stroke="#F0D887" stroke-width="2"/>
<path d="M528.269 83.1876L529.952 87.2002" stroke="#F0D887" stroke-width="2"/>
<path d="M240.276 88.0499L247.119 92.5818" stroke="#F0D887" stroke-width="2"/>
<path d="M239.506 89.057L245.137 92.7864" stroke="#F0D887" stroke-width="2"/>
<path d="M340.359 88.6007L346.289 91.559" stroke="#F0D887" stroke-width="2"/>
<path d="M343.615 88.1602L349.53 90.9139" stroke="#F0D887" stroke-width="2"/>
<path d="M350.867 88.0499L361.328 92.4245" stroke="#F0D887" stroke-width="2"/>
<path d="M354.124 88.4591L363.421 92.456" stroke="#F0D887" stroke-width="2"/>
<path d="M353.919 87.8926L361.092 90.9925" stroke="#F0D887" stroke-width="2"/>
<path d="M356.231 87.9241L362.272 90.8666" stroke="#F0D887" stroke-width="2"/>
<path d="M355.87 87.9871L362.508 91.2129" stroke="#F0D887" stroke-width="2"/>
<path d="M374.92 88.6165L384.076 95.3041" stroke="#F0D887" stroke-width="2"/>
<path d="M245.389 90.0798L260.869 98.5456" stroke="#F0D887" stroke-width="2"/>
<path d="M362.792 91.024L372.686 97.46" stroke="#F0D887" stroke-width="2"/>
<path d="M371.412 91.0869L384.737 100.497" stroke="#F0D887" stroke-width="2"/>
<path d="M704.915 90.6306L710.279 93.0224" stroke="#F0D887" stroke-width="2"/>
<path d="M271.959 94.5016L275.75 96.1853" stroke="#F0D887" stroke-width="2"/>
<path d="M362.744 94.895L378.57 105.501" stroke="#F0D887" stroke-width="2"/>
<path d="M494.006 93.8564L499.591 100.576" stroke="#F0D887" stroke-width="2"/>
<path d="M497.844 94.832L503.146 101.441" stroke="#F0D887" stroke-width="2"/>
<path d="M510.099 95.1625L515.432 104.085" stroke="#F0D887" stroke-width="2"/>
<path d="M514.284 94.6118L517.996 101.882" stroke="#F0D887" stroke-width="2"/>
<path d="M516.313 94.9736L520.167 103.974" stroke="#F0D887" stroke-width="2"/>
<path d="M516.156 94.3915L519.475 102.133" stroke="#F0D887" stroke-width="2"/>
<path d="M522.401 95.3828L524.414 101.567" stroke="#F0D887" stroke-width="2"/>
<path d="M-5.60327 98.0264L-0.380491 109.356" stroke="#F0D887" stroke-width="2"/>
<path d="M20.1016 98.0421L25.5288 109.671" stroke="#F0D887" stroke-width="2"/>
<path d="M258.698 98.1051L265.1 101.063" stroke="#F0D887" stroke-width="2"/>
<path d="M262.693 97.1924L271.519 101.063" stroke="#F0D887" stroke-width="2"/>
<path d="M501.699 97.2711L505.836 103.062" stroke="#F0D887" stroke-width="2"/>
<path d="M503.712 98.1366L509.218 106.256" stroke="#F0D887" stroke-width="2"/>
<path d="M507.346 97.6488L513.749 107.657" stroke="#F0D887" stroke-width="2"/>
<path d="M510.76 97.7432L516.03 106.949" stroke="#F0D887" stroke-width="2"/>
<path d="M514.362 97.6488L518.122 105.469" stroke="#F0D887" stroke-width="2"/>
<path d="M526.35 97.6959L528.772 106.87" stroke="#F0D887" stroke-width="2"/>
<path d="M526.617 97.8219L528.788 106.052" stroke="#F0D887" stroke-width="2"/>
<path d="M754.705 98.4513L758.417 102.558" stroke="#F0D887" stroke-width="2"/>
<path d="M3.83545 100.859L6.68281 108.176" stroke="#F0D887" stroke-width="2"/>
<path d="M13.1641 101.252L16.9396 111.307" stroke="#F0D887" stroke-width="2"/>
<path d="M16.499 100.812L21.0611 112.535" stroke="#F0D887" stroke-width="2"/>
<path d="M19.3779 101.52L22.8703 109.954" stroke="#F0D887" stroke-width="2"/>
<path d="M19.0791 100.544L21.5489 106.524" stroke="#F0D887" stroke-width="2"/>
<path d="M20.2747 101.394L23.3423 108.79" stroke="#F0D887" stroke-width="2"/>
<path d="M36.1318 100.969L44.3278 109.498" stroke="#F0D887" stroke-width="2"/>
<path d="M149.287 101.598L154.037 103.786" stroke="#F0D887" stroke-width="2"/>
<path d="M237.209 100.938L243.375 103.864" stroke="#F0D887" stroke-width="2"/>
<path d="M265.273 100.906L274.948 105.045" stroke="#F0D887" stroke-width="2"/>
<path d="M485.731 100.686L490.923 107.216" stroke="#F0D887" stroke-width="2"/>
<path d="M491.882 100.277L497.451 107.657" stroke="#F0D887" stroke-width="2"/>
<path d="M501.054 100.67L507.173 109.86" stroke="#F0D887" stroke-width="2"/>
<path d="M500.723 101.347L506.67 110.285" stroke="#F0D887" stroke-width="2"/>
<path d="M517.351 100.623L519.9 107.861" stroke="#F0D887" stroke-width="2"/>
<path d="M523.345 100.67L526.208 112.283" stroke="#F0D887" stroke-width="2"/>
<path d="M641.565 100.827L646.002 103.266" stroke="#F0D887" stroke-width="2"/>
<path d="M10.5527 104.352L13.0225 111.04" stroke="#F0D887" stroke-width="2"/>
<path d="M13.1641 104.557L16.7351 114.392" stroke="#F0D887" stroke-width="2"/>
<path d="M25.812 104.557L29.5246 110.568" stroke="#F0D887" stroke-width="2"/>
<path d="M26.4255 104.336L31.4595 112.488" stroke="#F0D887" stroke-width="2"/>
<path d="M29.5718 103.676L36.0845 112.503" stroke="#F0D887" stroke-width="2"/>
<path d="M226.354 103.518L243.187 112.676" stroke="#F0D887" stroke-width="2"/>
<path d="M230.035 104.022L237.382 107.735" stroke="#F0D887" stroke-width="2"/>
<path d="M262.347 103.691L274.634 109.262" stroke="#F0D887" stroke-width="2"/>
<path d="M3.53662 107.389L7.37505 116.846" stroke="#F0D887" stroke-width="2"/>
<path d="M7.61084 107.2L10.4897 114.407" stroke="#F0D887" stroke-width="2"/>
<path d="M10.0964 106.602L13.227 114.502" stroke="#F0D887" stroke-width="2"/>
<path d="M10.4111 106.854L14.344 116.752" stroke="#F0D887" stroke-width="2"/>
<path d="M17.0339 107.232L21.0769 117.539" stroke="#F0D887" stroke-width="2"/>
<path d="M19.3149 107.09L23.4995 117.193" stroke="#F0D887" stroke-width="2"/>
<path d="M19.3464 106.634L22.0679 113.196" stroke="#F0D887" stroke-width="2"/>
<path d="M32.7966 107.578L40.4578 116.799" stroke="#F0D887" stroke-width="2"/>
<path d="M35.2036 107.31L43.1479 115.619" stroke="#F0D887" stroke-width="2"/>
<path d="M231.357 107.908L241.582 113.038" stroke="#F0D887" stroke-width="2"/>
<path d="M234.047 107.169L242.353 111.103" stroke="#F0D887" stroke-width="2"/>
<path d="M242.479 107.185L253.695 112.251" stroke="#F0D887" stroke-width="2"/>
<path d="M255.866 107.279L265.494 111.701" stroke="#F0D887" stroke-width="2"/>
<path d="M258.635 107.358L267.46 111.402" stroke="#F0D887" stroke-width="2"/>
<path d="M258.556 106.634L267.979 110.961" stroke="#F0D887" stroke-width="2"/>
<path d="M258.698 107.468L265.053 110.379" stroke="#F0D887" stroke-width="2"/>
<path d="M28.2976 109.75L33.1271 117.082" stroke="#F0D887" stroke-width="2"/>
<path d="M205.322 110.143L213.785 113.982" stroke="#F0D887" stroke-width="2"/>
<path d="M205.73 110.174L212.196 113.101" stroke="#F0D887" stroke-width="2"/>
<path d="M224.199 110.945L231.325 114.313" stroke="#F0D887" stroke-width="2"/>
<path d="M240.245 109.938L250.502 114.816" stroke="#F0D887" stroke-width="2"/>
<path d="M249.558 110.379L257.644 114.218" stroke="#F0D887" stroke-width="2"/>
<path d="M259.626 111.119L270.685 116.343" stroke="#F0D887" stroke-width="2"/>
<path d="M265.462 110.458L277.434 115.965" stroke="#F0D887" stroke-width="2"/>
<path d="M453.875 110.977L460.561 121.331" stroke="#F0D887" stroke-width="2"/>
<path d="M192.768 113.085L203.387 118.31" stroke="#F0D887" stroke-width="2"/>
<path d="M205.211 113.967L216.003 119.207" stroke="#F0D887" stroke-width="2"/>
<path d="M208.2 113.18L215.342 116.61" stroke="#F0D887" stroke-width="2"/>
<path d="M215.279 113.715L225.851 118.798" stroke="#F0D887" stroke-width="2"/>
<path d="M239.978 113.888L250.989 119.27" stroke="#F0D887" stroke-width="2"/>
<path d="M243.108 113.148L253.365 118.294" stroke="#F0D887" stroke-width="2"/>
<path d="M246.018 113.982L254.875 118.436" stroke="#F0D887" stroke-width="2"/>
<path d="M261.435 113.196L269.065 116.988" stroke="#F0D887" stroke-width="2"/>
<path d="M417.379 112.204L427.415 121.724" stroke="#F0D887" stroke-width="2"/>
<path d="M421.579 113.636L431.16 123.628" stroke="#F0D887" stroke-width="2"/>
<path d="M41.8108 117.177L49.4405 124.289" stroke="#F0D887" stroke-width="2"/>
<path d="M44.8625 116.39L51.0764 122.291" stroke="#F0D887" stroke-width="2"/>
<path d="M54.8833 116.815L60.7511 122.464" stroke="#F0D887" stroke-width="2"/>
<path d="M59.6028 116.469L69.5921 126.335" stroke="#F0D887" stroke-width="2"/>
<path d="M174.268 117.035L183.896 124.163" stroke="#F0D887" stroke-width="2"/>
<path d="M186.554 116.5L203.544 127.625" stroke="#F0D887" stroke-width="2"/>
<path d="M192.485 116.422L203.623 122.527" stroke="#F0D887" stroke-width="2"/>
<path d="M214.839 116.783L223.507 121.378" stroke="#F0D887" stroke-width="2"/>
<path d="M217.891 115.886L228.588 121.52" stroke="#F0D887" stroke-width="2"/>
<path d="M217.749 115.839L226.527 120.481" stroke="#F0D887" stroke-width="2"/>
<path d="M223.837 115.949L234.267 121.189" stroke="#F0D887" stroke-width="2"/>
<path d="M224.781 116.107L230.775 119.112" stroke="#F0D887" stroke-width="2"/>
<path d="M227.314 116.201L238.326 121.583" stroke="#F0D887" stroke-width="2"/>
<path d="M230.822 116.846L237.539 120.072" stroke="#F0D887" stroke-width="2"/>
<path d="M230.743 116.044L237.382 119.222" stroke="#F0D887" stroke-width="2"/>
<path d="M232.977 115.981L245.216 121.803" stroke="#F0D887" stroke-width="2"/>
<path d="M239.993 117.035L248.614 121.252" stroke="#F0D887" stroke-width="2"/>
<path d="M242.494 117.303L250.234 121.237" stroke="#F0D887" stroke-width="2"/>
<path d="M249.432 117.35L255.331 120.45" stroke="#F0D887" stroke-width="2"/>
<path d="M249.463 116.28L259.846 121.756" stroke="#F0D887" stroke-width="2"/>
<path d="M308.99 116.437L316.652 121.536" stroke="#F0D887" stroke-width="2"/>
<path d="M41.8894 119.238L46.8605 123.833" stroke="#F0D887" stroke-width="2"/>
<path d="M44.8784 119.584L51.7845 126.13" stroke="#F0D887" stroke-width="2"/>
<path d="M48.0718 119.175L56.7712 127.688" stroke="#F0D887" stroke-width="2"/>
<path d="M50.9192 119.506L58.0769 126.681" stroke="#F0D887" stroke-width="2"/>
<path d="M54.3171 120.072L61.9625 127.798" stroke="#F0D887" stroke-width="2"/>
<path d="M70.4258 120.245L76.97 127.106" stroke="#F0D887" stroke-width="2"/>
<path d="M70.0168 119.726L74.6418 124.573" stroke="#F0D887" stroke-width="2"/>
<path d="M205.117 119.175L213.234 124.163" stroke="#F0D887" stroke-width="2"/>
<path d="M211.693 119.521L218.315 123.345" stroke="#F0D887" stroke-width="2"/>
<path d="M26.2683 122.669L30.5315 128.16" stroke="#F0D887" stroke-width="2"/>
<path d="M38.051 122.684L44.0289 128.302" stroke="#F0D887" stroke-width="2"/>
<path d="M48.3865 122.543L55.1824 129.246" stroke="#F0D887" stroke-width="2"/>
<path d="M47.8516 122.637L55.0879 129.781" stroke="#F0D887" stroke-width="2"/>
<path d="M54.553 123.172L62.4186 131.465" stroke="#F0D887" stroke-width="2"/>
<path d="M63.2681 122.464L69.3875 128.743" stroke="#F0D887" stroke-width="2"/>
<path d="M75.8689 122.983L83.7975 131.591" stroke="#F0D887" stroke-width="2"/>
<path d="M180.639 122.779L189.024 131.056" stroke="#F0D887" stroke-width="2"/>
<path d="M205.29 123.282L212.353 128.034" stroke="#F0D887" stroke-width="2"/>
<path d="M208.389 122.684L218.882 129.482" stroke="#F0D887" stroke-width="2"/>
<path d="M212.023 122.48L220.801 127.846" stroke="#F0D887" stroke-width="2"/>
<path d="M214.43 122.543L222.768 127.484" stroke="#F0D887" stroke-width="2"/>
<path d="M224.451 122.794L230.932 127.075" stroke="#F0D887" stroke-width="2"/>
<path d="M274.712 122.731L285.284 129.813" stroke="#F0D887" stroke-width="2"/>
<path d="M296.437 123.613L307.15 131.244" stroke="#F0D887" stroke-width="2"/>
<path d="M35.2351 125.485L40.8826 131.229" stroke="#F0D887" stroke-width="2"/>
<path d="M35.408 125.816L40.6307 131.119" stroke="#F0D887" stroke-width="2"/>
<path d="M45.4131 126.099L53.1214 133.636" stroke="#F0D887" stroke-width="2"/>
<path d="M57.2744 125.91L63.8973 133.117" stroke="#F0D887" stroke-width="2"/>
<path d="M63.8975 125.91L70.0012 132.409" stroke="#F0D887" stroke-width="2"/>
<path d="M66.7134 125.737L72.3452 131.638" stroke="#F0D887" stroke-width="2"/>
<path d="M70.5359 125.831L78.1656 133.794" stroke="#F0D887" stroke-width="2"/>
<path d="M79.896 126.461L86.3615 133.684" stroke="#F0D887" stroke-width="2"/>
<path d="M149.46 126.901L152.354 129.089" stroke="#F0D887" stroke-width="2"/>
<path d="M158.851 126.068L170.87 136.154" stroke="#F0D887" stroke-width="2"/>
<path d="M165.458 126.24L175.92 136.768" stroke="#F0D887" stroke-width="2"/>
<path d="M168.463 126.744L171.704 130.159" stroke="#F0D887" stroke-width="2"/>
<path d="M180.828 126.13L188.159 134.077" stroke="#F0D887" stroke-width="2"/>
<path d="M182.952 125.391L191.226 133.857" stroke="#F0D887" stroke-width="2"/>
<path d="M208.94 126.445L214.493 130.19" stroke="#F0D887" stroke-width="2"/>
<path d="M211.63 126.319L217.969 130.41" stroke="#F0D887" stroke-width="2"/>
<path d="M214.351 126.162L224.545 132.614" stroke="#F0D887" stroke-width="2"/>
<path d="M221.446 125.281L231.011 131.764" stroke="#F0D887" stroke-width="2"/>
<path d="M223.743 125.58L232.615 131.622" stroke="#F0D887" stroke-width="2"/>
<path d="M227.078 126.288L236.249 132.141" stroke="#F0D887" stroke-width="2"/>
<path d="M252.091 125.406L266.485 136.359" stroke="#F0D887" stroke-width="2"/>
<path d="M268.498 125.595L282.216 135.745" stroke="#F0D887" stroke-width="2"/>
<path d="M274.24 126.681L281.996 132.189" stroke="#F0D887" stroke-width="2"/>
<path d="M292.945 126.256L299.096 130.536" stroke="#F0D887" stroke-width="2"/>
<path d="M295.776 126.744L305.262 133.337" stroke="#F0D887" stroke-width="2"/>
<path d="M308.786 125.344L325.273 137.177" stroke="#F0D887" stroke-width="2"/>
<path d="M714.952 125.91L719.356 129.608" stroke="#F0D887" stroke-width="2"/>
<path d="M70.3157 129.624L80.0061 140.387" stroke="#F0D887" stroke-width="2"/>
<path d="M164.813 128.758L171.641 136.028" stroke="#F0D887" stroke-width="2"/>
<path d="M167.031 129.639L173.088 136.406" stroke="#F0D887" stroke-width="2"/>
<path d="M180.356 128.931L185.28 134.596" stroke="#F0D887" stroke-width="2"/>
<path d="M187.105 129.372L195.442 137.885" stroke="#F0D887" stroke-width="2"/>
<path d="M186.79 129.828L193.476 136.658" stroke="#F0D887" stroke-width="2"/>
<path d="M189.999 128.774L196.968 135.289" stroke="#F0D887" stroke-width="2"/>
<path d="M195.993 128.475L202.569 133.715" stroke="#F0D887" stroke-width="2"/>
<path d="M199.233 128.837L206.674 134.423" stroke="#F0D887" stroke-width="2"/>
<path d="M204.818 129.545L213.832 135.871" stroke="#F0D887" stroke-width="2"/>
<path d="M214.587 128.963L223.601 135.351" stroke="#F0D887" stroke-width="2"/>
<path d="M221.446 129.529L229.563 135.147" stroke="#F0D887" stroke-width="2"/>
<path d="M284.434 129.498L291.136 134.502" stroke="#F0D887" stroke-width="2"/>
<path d="M289.908 129.529L303.17 138.326" stroke="#F0D887" stroke-width="2"/>
<path d="M308.786 128.349L321.245 137.57" stroke="#F0D887" stroke-width="2"/>
<path d="M156.051 132.362L163.272 139.097" stroke="#F0D887" stroke-width="2"/>
<path d="M183.864 131.874L194.97 144.651" stroke="#F0D887" stroke-width="2"/>
<path d="M218.803 132.708L230.743 141.662" stroke="#F0D887" stroke-width="2"/>
<path d="M220.329 132.063L231.719 140.056" stroke="#F0D887" stroke-width="2"/>
<path d="M220.943 133.684L233.543 142.543" stroke="#F0D887" stroke-width="2"/>
<path d="M173.812 135.635L179.711 143.188" stroke="#F0D887" stroke-width="2"/>
<path d="M192.831 134.942L199.265 141.347" stroke="#F0D887" stroke-width="2"/>
<path d="M195.647 137.964L202.222 143.817" stroke="#F0D887" stroke-width="2"/>
<path d="M199.611 138.168L205.746 143.345" stroke="#F0D887" stroke-width="2"/>
<path d="M204.661 139.49L212.637 145.769" stroke="#F0D887" stroke-width="2"/>
<path d="M208.311 139.301L214.304 143.975" stroke="#F0D887" stroke-width="2"/>
<path d="M207.76 138.357L216.616 145.249" stroke="#F0D887" stroke-width="2"/>
<path d="M218.662 138.121L227.817 145.328" stroke="#F0D887" stroke-width="2"/>
<path d="M220.801 138.939L229.154 145.391" stroke="#F0D887" stroke-width="2"/>
<path d="M287.266 139.081L290.837 141.378" stroke="#F0D887" stroke-width="2"/>
<path d="M174.016 141.394L180.576 150.222" stroke="#F0D887" stroke-width="2"/>
<path d="M179.538 141.473L184.021 147.688" stroke="#F0D887" stroke-width="2"/>
<path d="M189.748 141.677L196.717 149.64" stroke="#F0D887" stroke-width="2"/>
<path d="M192.658 142.338L197.66 147.169" stroke="#F0D887" stroke-width="2"/>
<path d="M196.842 141.111L202.93 146.414" stroke="#F0D887" stroke-width="2"/>
<path d="M205.29 141.551L211.142 146.587" stroke="#F0D887" stroke-width="2"/>
<path d="M205.793 142.008L210.875 146.382" stroke="#F0D887" stroke-width="2"/>
<path d="M208.137 141.363L213.738 146.052" stroke="#F0D887" stroke-width="2"/>
<path d="M214.54 141.551L219.983 146.036" stroke="#F0D887" stroke-width="2"/>
<path d="M217.891 141.504L227.157 149.136" stroke="#F0D887" stroke-width="2"/>
<path d="M252.846 141.347L257.943 148.019" stroke="#F0D887" stroke-width="2"/>
<path d="M256.134 142.291L260.947 148.585" stroke="#F0D887" stroke-width="2"/>
<path d="M529.055 142.26L529.952 146.398" stroke="#F0D887" stroke-width="2"/>
<path d="M183.644 144.337L189.999 153.841" stroke="#F0D887" stroke-width="2"/>
<path d="M186.617 145.029L193.727 155.037" stroke="#F0D887" stroke-width="2"/>
<path d="M192.957 144.714L199.501 151.402" stroke="#F0D887" stroke-width="2"/>
<path d="M268.089 145.47L273.737 152.22" stroke="#F0D887" stroke-width="2"/>
<path d="M274.366 144.777L280.061 151.134" stroke="#F0D887" stroke-width="2"/>
<path d="M277.764 145.737L282.562 150.568" stroke="#F0D887" stroke-width="2"/>
<path d="M283.805 144.557L289.515 148.868" stroke="#F0D887" stroke-width="2"/>
<path d="M308.88 144.966L314.937 152.236" stroke="#F0D887" stroke-width="2"/>
<path d="M174.126 147.987L180.403 158.263" stroke="#F0D887" stroke-width="2"/>
<path d="M176.911 147.578L180.97 154.234" stroke="#F0D887" stroke-width="2"/>
<path d="M177.226 147.736L180.718 153.463" stroke="#F0D887" stroke-width="2"/>
<path d="M188.835 147.798L195.537 156.327" stroke="#F0D887" stroke-width="2"/>
<path d="M193.429 147.342L199.092 153.558" stroke="#F0D887" stroke-width="2"/>
<path d="M265.195 148.16L273.69 159.553" stroke="#F0D887" stroke-width="2"/>
<path d="M265.509 148.192L273.926 159.474" stroke="#F0D887" stroke-width="2"/>
<path d="M274.099 147.72L281.65 156.516" stroke="#F0D887" stroke-width="2"/>
<path d="M280.501 147.673L286.416 153.212" stroke="#F0D887" stroke-width="2"/>
<path d="M283.474 148.019L292.237 155.289" stroke="#F0D887" stroke-width="2"/>
<path d="M287.203 147.562L295.603 153.873" stroke="#F0D887" stroke-width="2"/>
<path d="M296.232 148.459L313.364 160.544" stroke="#F0D887" stroke-width="2"/>
<path d="M309.258 148.097L315.315 155.839" stroke="#F0D887" stroke-width="2"/>
<path d="M331.329 147.342L341.838 160.057" stroke="#F0D887" stroke-width="2"/>
<path d="M334.129 149.451L336.332 152.016" stroke="#F0D887" stroke-width="2"/>
<path d="M165.27 151.355L173.403 165.407" stroke="#F0D887" stroke-width="2"/>
<path d="M180.309 150.71L183.754 156.642" stroke="#F0D887" stroke-width="2"/>
<path d="M182.826 150.568L187.105 157.35" stroke="#F0D887" stroke-width="2"/>
<path d="M186.822 151.843L190.424 157.177" stroke="#F0D887" stroke-width="2"/>
<path d="M189.732 151.512L195.914 159.758" stroke="#F0D887" stroke-width="2"/>
<path d="M271.566 151.465L275.609 156.595" stroke="#F0D887" stroke-width="2"/>
<path d="M277.874 151.685L285.457 160.12" stroke="#F0D887" stroke-width="2"/>
<path d="M283.569 150.662L290.318 156.831" stroke="#F0D887" stroke-width="2"/>
<path d="M293.621 151.559L299.269 155.698" stroke="#F0D887" stroke-width="2"/>
<path d="M296.626 151.072L301.817 155.037" stroke="#F0D887" stroke-width="2"/>
<path d="M311.712 151.874L318.445 162.244" stroke="#F0D887" stroke-width="2"/>
<path d="M312.31 151.512L316.935 158.656" stroke="#F0D887" stroke-width="2"/>
<path d="M315.661 151.307L319.468 157.334" stroke="#F0D887" stroke-width="2"/>
<path d="M325.068 151.339L332.257 160.529" stroke="#F0D887" stroke-width="2"/>
<path d="M328.702 151.89L334.334 158.813" stroke="#F0D887" stroke-width="2"/>
<path d="M337.794 152.079L340.673 155.304" stroke="#F0D887" stroke-width="2"/>
<path d="M174.252 154.061L177.619 160.717" stroke="#F0D887" stroke-width="2"/>
<path d="M186.68 154.14L192.343 163.078" stroke="#F0D887" stroke-width="2"/>
<path d="M277.937 154.171L284.607 161.992" stroke="#F0D887" stroke-width="2"/>
<path d="M284.025 153.857L292.63 162.464" stroke="#F0D887" stroke-width="2"/>
<path d="M293.826 154.093L301.314 160.245" stroke="#F0D887" stroke-width="2"/>
<path d="M306.332 154.706L311.099 160.765" stroke="#F0D887" stroke-width="2"/>
<path d="M306.017 154.754L312.798 163.361" stroke="#F0D887" stroke-width="2"/>
<path d="M312.168 154.187L318.382 164.289" stroke="#F0D887" stroke-width="2"/>
<path d="M565.426 154.659L568.321 159.773" stroke="#F0D887" stroke-width="2"/>
<path d="M299.473 157.507L306.741 165.706" stroke="#F0D887" stroke-width="2"/>
<path d="M302.588 157.177L309.746 166.351" stroke="#F0D887" stroke-width="2"/>
<path d="M807.09 158.499L809.497 161.677" stroke="#F0D887" stroke-width="2"/>
<path d="M161.353 160.67L166.544 169.655" stroke="#F0D887" stroke-width="2"/>
<path d="M211.85 162.212L214.32 165.596" stroke="#F0D887" stroke-width="2"/>
<path d="M372.687 161.064L379.907 168.145" stroke="#F0D887" stroke-width="2"/>
<path d="M378.476 161.426L387.096 169.655" stroke="#F0D887" stroke-width="2"/>
<path d="M381.166 160.891L387.615 166.792" stroke="#F0D887" stroke-width="2"/>
<path d="M388.245 160.23L395.56 165.989" stroke="#F0D887" stroke-width="2"/>
<path d="M391.061 160.969L399.225 167.09" stroke="#F0D887" stroke-width="2"/>
<path d="M746.163 161.19L748.648 163.943" stroke="#F0D887" stroke-width="2"/>
<path d="M154.305 162.795L159.307 171.701" stroke="#F0D887" stroke-width="2"/>
</svg>
