<svg width="711" height="197" viewBox="0 0 711 197" fill="none" xmlns="http://www.w3.org/2000/svg">
<path d="M277.969 1L290.136 12.8537" stroke="#FD9001"/>
<path d="M245.522 6.57275L251.381 12.0038" stroke="#FD9001"/>
<path d="M245.746 6.58447L251.144 11.6022" stroke="#FD9001"/>
<path d="M247.719 6.69092L254.109 12.8185" stroke="#FD9001"/>
<path d="M247.825 6.23047L252.172 10.41" stroke="#FD9001"/>
<path d="M250.825 6.50195L256.259 11.685" stroke="#FD9001"/>
<path d="M356.921 6.19482L364.268 10.209" stroke="#FD9001"/>
<path d="M359.591 6.70264L367.162 10.5752" stroke="#FD9001"/>
<path d="M361.835 9.07568L374.273 15.2505" stroke="#FD9001"/>
<path d="M364.316 9.27637L374.013 14.1643" stroke="#FD9001"/>
<path d="M26.2542 13.7749L28.5103 17.3995" stroke="#FD9001"/>
<path d="M25.8171 15.8647L29.0064 20.9061" stroke="#FD9001"/>
<path d="M26.1951 15.5811L30.0576 21.7086" stroke="#FD9001"/>
<path d="M21.364 17.9897L25.2384 24.1527" stroke="#FD9001"/>
<path d="M24.1636 18.6035L27.6481 24.1172" stroke="#FD9001"/>
<path d="M30.6011 18.1548L34.0266 23.2788" stroke="#FD9001"/>
<path d="M269.063 18.6392L271.225 20.3747" stroke="#FD9001"/>
<path d="M28.9238 20.5869L32.8454 26.7735" stroke="#FD9001"/>
<path d="M30.991 20.54L35.6213 27.5295" stroke="#FD9001"/>
<path d="M30.6011 22.7358L33.7667 27.5765" stroke="#FD9001"/>
<path d="M176.504 23.7041L178.417 25.4987" stroke="#FD9001"/>
<path d="M362.378 23.3618L365.532 25.2391" stroke="#FD9001"/>
<path d="M116.392 25.5811L122.145 30.3863" stroke="#FD9001"/>
<path d="M125.098 25.6992L130.744 29.926" stroke="#FD9001"/>
<path d="M125.464 25.1445L135.268 32.4646" stroke="#FD9001"/>
<path d="M130.448 25.5693L135.917 30.1148" stroke="#FD9001"/>
<path d="M143.772 24.873L148.119 30.6346" stroke="#FD9001"/>
<path d="M146.702 25.1445L151.876 32.6299" stroke="#FD9001"/>
<path d="M154.014 24.979L157.545 30.8941" stroke="#FD9001"/>
<path d="M32.2666 27.9307L40.476 39.3948" stroke="#FD9001"/>
<path d="M123.066 27.4229L129.267 32.1573" stroke="#FD9001"/>
<path d="M122.818 27.6592L129.137 32.488" stroke="#FD9001"/>
<path d="M127.885 27.7539L134.335 32.7126" stroke="#FD9001"/>
<path d="M130.26 27.1279L137.051 32.677" stroke="#FD9001"/>
<path d="M139.674 27.5059L144.741 33.4682" stroke="#FD9001"/>
<path d="M144.458 28.1196L149.749 35.0973" stroke="#FD9001"/>
<path d="M146.371 28.0254L150.399 33.7516" stroke="#FD9001"/>
<path d="M158.372 27.4819L163.168 34.9318" stroke="#FD9001"/>
<path d="M175.216 27.541L179.008 31.4017" stroke="#FD9001"/>
<path d="M174.708 27.5767L179.445 32.3937" stroke="#FD9001"/>
<path d="M177.508 27.6948L182.906 33.2793" stroke="#FD9001"/>
<path d="M182.032 27.7539L188.08 33.9877" stroke="#FD9001"/>
<path d="M87.0391 30.3984L91.1024 35.369" stroke="#FD9001"/>
<path d="M97.4219 30.2212L102.666 36.6439" stroke="#FD9001"/>
<path d="M99.0166 29.9971L105.631 38.2026" stroke="#FD9001"/>
<path d="M102.076 30.4102L106.872 36.219" stroke="#FD9001"/>
<path d="M108.903 29.5601L115.258 35.8647" stroke="#FD9001"/>
<path d="M110.994 30.2212L114.573 33.5979" stroke="#FD9001"/>
<path d="M118.471 29.6899L124.247 34.4952" stroke="#FD9001"/>
<path d="M118.117 29.9263L124.743 35.4281" stroke="#FD9001"/>
<path d="M122.582 29.9023L128.747 34.6604" stroke="#FD9001"/>
<path d="M134.996 29.7725L139.615 34.1409" stroke="#FD9001"/>
<path d="M146.241 30.3511L150.092 35.971" stroke="#FD9001"/>
<path d="M153.635 29.9849L158.313 37.8598" stroke="#FD9001"/>
<path d="M163.475 30.1504L166.57 34.0229" stroke="#FD9001"/>
<path d="M165.778 29.3359L171.85 36.0893" stroke="#FD9001"/>
<path d="M56.0442 32.665L58.0522 35.3805" stroke="#FD9001"/>
<path d="M85.0547 32.0513L89.0117 36.8683" stroke="#FD9001"/>
<path d="M87.9133 31.874L92.3192 37.4231" stroke="#FD9001"/>
<path d="M97.1621 32.252L101.485 37.5295" stroke="#FD9001"/>
<path d="M98.9102 32.7358L104.686 39.6072" stroke="#FD9001"/>
<path d="M103.694 32.2046L109.671 38.5447" stroke="#FD9001"/>
<path d="M103.86 32.3228L107.71 36.4196" stroke="#FD9001"/>
<path d="M108.62 32.4761L113.888 37.3404" stroke="#FD9001"/>
<path d="M110.734 32.1455L116.853 37.6237" stroke="#FD9001"/>
<path d="M120.29 32.1577L124.117 35.3809" stroke="#FD9001"/>
<path d="M123.137 32.4644L127.401 35.841" stroke="#FD9001"/>
<path d="M125.346 32.3701L132.823 38.1199" stroke="#FD9001"/>
<path d="M129.74 32.2993L134.276 35.9593" stroke="#FD9001"/>
<path d="M129.905 32.0039L133.579 34.9673" stroke="#FD9001"/>
<path d="M132.929 32.0039L138.008 36.3133" stroke="#FD9001"/>
<path d="M137.359 32.2876L141.257 36.0657" stroke="#FD9001"/>
<path d="M144.493 32.2876L147.848 36.8921" stroke="#FD9001"/>
<path d="M146.371 32.5591L149.194 36.9157" stroke="#FD9001"/>
<path d="M148.899 31.8032L151.45 35.9709" stroke="#FD9001"/>
<path d="M151.746 32.3345L156.234 39.7372" stroke="#FD9001"/>
<path d="M150.824 32.6182L153.411 36.8803" stroke="#FD9001"/>
<path d="M167.302 31.7915L171.425 36.2426" stroke="#FD9001"/>
<path d="M172.795 32.5L176.929 36.5496" stroke="#FD9001"/>
<path d="M174.72 32.063L179.398 36.5849" stroke="#FD9001"/>
<path d="M177.531 32.3818L183.249 37.9191" stroke="#FD9001"/>
<path d="M59.4226 34.9556L62.4229 39.076" stroke="#FD9001"/>
<path d="M71.2227 34.8965L76.7153 41.5317" stroke="#FD9001"/>
<path d="M78.2864 35.0503L82.1607 39.525" stroke="#FD9001"/>
<path d="M87.3582 34.8257L91.5514 40.1268" stroke="#FD9001"/>
<path d="M92.4844 34.7432L96.9848 40.3158" stroke="#FD9001"/>
<path d="M91.7759 34.082L95.1423 38.2497" stroke="#FD9001"/>
<path d="M92.7444 35.251L98.6504 42.5592" stroke="#FD9001"/>
<path d="M94.6106 35.2388L98.7448 40.3038" stroke="#FD9001"/>
<path d="M95.095 34.4951L99.4064 39.7726" stroke="#FD9001"/>
<path d="M99.0283 34.4834L103.281 39.3359" stroke="#FD9001"/>
<path d="M99.0283 34.5308L102.844 38.8756" stroke="#FD9001"/>
<path d="M105.832 34.2119L110.073 38.1671" stroke="#FD9001"/>
<path d="M110.793 34.0229L116.569 39.0053" stroke="#FD9001"/>
<path d="M113.368 35.0972L119.9 40.9886" stroke="#FD9001"/>
<path d="M115.754 34.7197L120.432 39.1472" stroke="#FD9001"/>
<path d="M120.975 34.3535L126.739 39.4893" stroke="#FD9001"/>
<path d="M123.338 35.0503L130.531 41.0244" stroke="#FD9001"/>
<path d="M122.641 35.0737L129.893 41.1069" stroke="#FD9001"/>
<path d="M131.866 34.1294L138.28 39.584" stroke="#FD9001"/>
<path d="M135.268 34.6606L139.119 38.0727" stroke="#FD9001"/>
<path d="M153.187 34.6841L156.636 40.2568" stroke="#FD9001"/>
<path d="M156.364 35.168L160.31 41.4608" stroke="#FD9001"/>
<path d="M162.79 34.7783L165.873 38.7925" stroke="#FD9001"/>
<path d="M163.215 34.3652L166.44 38.5565" stroke="#FD9001"/>
<path d="M165.554 34.3418L170.669 40.5166" stroke="#FD9001"/>
<path d="M168.105 34.7197L174.271 41.6856" stroke="#FD9001"/>
<path d="M170.74 34.5542L176.976 41.1304" stroke="#FD9001"/>
<path d="M172.417 34.7783L177.874 40.1739" stroke="#FD9001"/>
<path d="M32.5854 37.2461L37.5701 43.6098" stroke="#FD9001"/>
<path d="M39.9443 37.0928L43.6297 41.9925" stroke="#FD9001"/>
<path d="M42.2595 36.9038L46.9253 43.3384" stroke="#FD9001"/>
<path d="M47.1616 36.8682L52.1345 43.9521" stroke="#FD9001"/>
<path d="M47.7048 37.1519L52.1344 43.4565" stroke="#FD9001"/>
<path d="M49.8311 37.3169L53.3983 42.3937" stroke="#FD9001"/>
<path d="M49.9846 37.4116L54.1661 43.3621" stroke="#FD9001"/>
<path d="M52.0518 36.7622L54.9575 40.9181" stroke="#FD9001"/>
<path d="M61.2415 37.2695L67.1593 44.4833" stroke="#FD9001"/>
<path d="M70.9866 37.2344L75.6405 42.63" stroke="#FD9001"/>
<path d="M73.7151 37.0688L77.2823 41.2011" stroke="#FD9001"/>
<path d="M75.6641 37.5059L80.5188 43.1022" stroke="#FD9001"/>
<path d="M75.4988 37.3169L79.9519 42.4409" stroke="#FD9001"/>
<path d="M80.1526 37.4116L83.6962 41.3668" stroke="#FD9001"/>
<path d="M83.0112 36.5615L86.7202 40.7528" stroke="#FD9001"/>
<path d="M88.2085 36.5142L92.5553 41.709" stroke="#FD9001"/>
<path d="M89.9685 36.939L95.0831 43.0665" stroke="#FD9001"/>
<path d="M96.7722 37.022L100.198 40.9772" stroke="#FD9001"/>
<path d="M96.7722 37.3994L101.639 43.0311" stroke="#FD9001"/>
<path d="M97.1738 37.4824L103.127 44.3774" stroke="#FD9001"/>
<path d="M99.1582 36.7739L105.265 43.5154" stroke="#FD9001"/>
<path d="M104.285 36.6558L108.714 41.0006" stroke="#FD9001"/>
<path d="M109.139 37.0571L113.321 40.6109" stroke="#FD9001"/>
<path d="M113.593 36.8682L117.94 40.7643" stroke="#FD9001"/>
<path d="M113.451 37.2104L118.542 41.7678" stroke="#FD9001"/>
<path d="M117.691 37.187L122.369 41.7561" stroke="#FD9001"/>
<path d="M121.093 37.5767L126.09 42.3111" stroke="#FD9001"/>
<path d="M120.715 37.6831L125.074 41.8154" stroke="#FD9001"/>
<path d="M125.109 36.9629L129.421 40.7528" stroke="#FD9001"/>
<path d="M125.724 37.2227L132.208 42.9252" stroke="#FD9001"/>
<path d="M139.142 37.1636L144.221 42.3821" stroke="#FD9001"/>
<path d="M142.367 36.5967L147.541 42.6416" stroke="#FD9001"/>
<path d="M141.835 36.7266L146.56 42.2402" stroke="#FD9001"/>
<path d="M146.796 36.7856L151.226 43.6452" stroke="#FD9001"/>
<path d="M149.017 36.7266L153.458 43.9049" stroke="#FD9001"/>
<path d="M150.742 37.2104L155.679 45.1444" stroke="#FD9001"/>
<path d="M155.561 36.8564L158.171 40.9769" stroke="#FD9001"/>
<path d="M172.299 37.3403L177.047 42.0393" stroke="#FD9001"/>
<path d="M176.858 36.7383L181.04 40.5754" stroke="#FD9001"/>
<path d="M177.283 36.6675L184.04 42.8659" stroke="#FD9001"/>
<path d="M179.764 36.2544L185.386 41.4138" stroke="#FD9001"/>
<path d="M179.173 37.0454L185.15 42.5236" stroke="#FD9001"/>
<path d="M289.285 36.042L293.148 38.1908" stroke="#FD9001"/>
<path d="M33.0461 39.5718L37.6529 45.2271" stroke="#FD9001"/>
<path d="M37.6292 39.1587L40.7712 43.043" stroke="#FD9001"/>
<path d="M38.2908 39.6782L43.24 45.794" stroke="#FD9001"/>
<path d="M40.594 39.501L44.3975 44.4479" stroke="#FD9001"/>
<path d="M49.8193 39.8081L54.5324 47.0455" stroke="#FD9001"/>
<path d="M52.2881 39.4067L56.505 45.7823" stroke="#FD9001"/>
<path d="M57.1191 39.2651L60.2139 43.3974" stroke="#FD9001"/>
<path d="M59.4814 38.958L63.9464 44.4362" stroke="#FD9001"/>
<path d="M59.7651 39.8906L63.108 43.9875" stroke="#FD9001"/>
<path d="M59.5288 39.0527L63.3323 43.7163" stroke="#FD9001"/>
<path d="M68.9548 39.8906L74.8136 46.2898" stroke="#FD9001"/>
<path d="M70.5967 39.0762L73.8804 42.7362" stroke="#FD9001"/>
<path d="M72.9592 39.584L76.9517 44.0941" stroke="#FD9001"/>
<path d="M92.2954 39.2061L96.8549 44.2829" stroke="#FD9001"/>
<path d="M94.3391 39.6899L99.9735 46.0418" stroke="#FD9001"/>
<path d="M101.84 38.9937L107.214 44.4719" stroke="#FD9001"/>
<path d="M103.954 39.6899L110.061 45.5106" stroke="#FD9001"/>
<path d="M115.388 38.8638L121.046 44.2357" stroke="#FD9001"/>
<path d="M118.259 38.7808L123.869 44.3652" stroke="#FD9001"/>
<path d="M131.996 38.8281L137.548 44.082" stroke="#FD9001"/>
<path d="M132.48 39.8906L137.678 44.8139" stroke="#FD9001"/>
<path d="M134.843 39.2534L141.103 45.44" stroke="#FD9001"/>
<path d="M137.264 39.0879L142.769 44.8967" stroke="#FD9001"/>
<path d="M137.099 38.9106L142.816 44.9438" stroke="#FD9001"/>
<path d="M137.052 39.5132L141.753 44.4837" stroke="#FD9001"/>
<path d="M139.26 39.5601L144.221 45.1327" stroke="#FD9001"/>
<path d="M153.99 38.9814L158.809 46.5258" stroke="#FD9001"/>
<path d="M156.199 39.4067L158.786 43.4682" stroke="#FD9001"/>
<path d="M163.487 39.1113L167.385 44.377" stroke="#FD9001"/>
<path d="M165.4 38.9937L168.956 43.4565" stroke="#FD9001"/>
<path d="M165.377 39.6782L168.708 43.8577" stroke="#FD9001"/>
<path d="M169.865 39.1826L175.996 45.8769" stroke="#FD9001"/>
<path d="M174.992 39.5957L180.768 44.7315" stroke="#FD9001"/>
<path d="M175.015 39.0405L181.595 44.8966" stroke="#FD9001"/>
<path d="M179.988 39.1587L185.717 44.1292" stroke="#FD9001"/>
<path d="M182.351 38.9937L188.363 44.2948" stroke="#FD9001"/>
<path d="M186.969 39.2651L190.596 42.9015" stroke="#FD9001"/>
<path d="M189.568 38.7456L195.592 45.558" stroke="#FD9001"/>
<path d="M194.163 38.7222L200.872 47.9076" stroke="#FD9001"/>
<path d="M1 42.2168L8.76053 54.3775" stroke="#FD9001"/>
<path d="M35.6448 41.5317L39.1175 45.5341" stroke="#FD9001"/>
<path d="M40.0034 41.9453L45.2007 48.4979" stroke="#FD9001"/>
<path d="M42.366 41.7798L47.0317 48.049" stroke="#FD9001"/>
<path d="M47.8467 42.1104L52.9849 49.9145" stroke="#FD9001"/>
<path d="M57.0837 41.8032L62.8598 49.0524" stroke="#FD9001"/>
<path d="M68.8958 42.0986L74.4592 47.7776" stroke="#FD9001"/>
<path d="M71.3054 41.7324L76.7154 47.4586" stroke="#FD9001"/>
<path d="M82.5269 41.4849L86.5902 45.5817" stroke="#FD9001"/>
<path d="M89.7205 41.5791L94.3744 46.16" stroke="#FD9001"/>
<path d="M134.925 41.6025L139.13 46.0182" stroke="#FD9001"/>
<path d="M136.933 41.6733L143.028 48.6038" stroke="#FD9001"/>
<path d="M148.757 42.0278L153.423 49.2298" stroke="#FD9001"/>
<path d="M151.474 41.3901L154.214 45.6523" stroke="#FD9001"/>
<path d="M157.959 41.8032L160.983 46.5731" stroke="#FD9001"/>
<path d="M161.231 41.3784L164.266 45.9712" stroke="#FD9001"/>
<path d="M177.035 41.7207L182.67 46.5023" stroke="#FD9001"/>
<path d="M179.858 41.2842L186.225 46.7034" stroke="#FD9001"/>
<path d="M186.272 42.1929L190.832 46.7502" stroke="#FD9001"/>
<path d="M195.864 41.9214L199.088 46.6676" stroke="#FD9001"/>
<path d="M30.3647 44.5308L36.9086 52.3349" stroke="#FD9001"/>
<path d="M78.251 44.4365L83.8499 49.962" stroke="#FD9001"/>
<path d="M78.1091 43.7749L82.6804 48.285" stroke="#FD9001"/>
<path d="M89.8623 43.5981L94.9297 48.1909" stroke="#FD9001"/>
<path d="M91.9294 43.7871L97.6465 49.2535" stroke="#FD9001"/>
<path d="M91.7168 44.6606L98.2134 50.8709" stroke="#FD9001"/>
<path d="M127.791 43.7871L133.484 49.8793" stroke="#FD9001"/>
<path d="M127.649 44.2593L131.228 48.0846" stroke="#FD9001"/>
<path d="M129.751 44.4951L135.126 50.1032" stroke="#FD9001"/>
<path d="M132.338 44.0347L135.858 47.6829" stroke="#FD9001"/>
<path d="M137.276 43.728L140.477 47.4117" stroke="#FD9001"/>
<path d="M139.875 43.9756L144.446 49.5483" stroke="#FD9001"/>
<path d="M142.19 44.0703L147.576 50.9653" stroke="#FD9001"/>
<path d="M141.741 44.0703L145.922 49.4187" stroke="#FD9001"/>
<path d="M143.713 44.4482L147.103 49.0528" stroke="#FD9001"/>
<path d="M146.844 44.0586L150.801 49.8202" stroke="#FD9001"/>
<path d="M147.092 44.1528L150.08 48.5212" stroke="#FD9001"/>
<path d="M163.546 44.3892L167.09 49.3597" stroke="#FD9001"/>
<path d="M167.538 44.2827L172.228 50.0207" stroke="#FD9001"/>
<path d="M179.598 43.834L186.237 49.7372" stroke="#FD9001"/>
<path d="M94.2681 46.7622L98.3314 50.4813" stroke="#FD9001"/>
<path d="M97.3274 45.9478L104.167 52.217" stroke="#FD9001"/>
<path d="M97.54 46.2661L102.147 50.481" stroke="#FD9001"/>
<path d="M125.346 46.3726L130.803 52.205" stroke="#FD9001"/>
<path d="M125.665 46.0537L129.893 50.5756" stroke="#FD9001"/>
<path d="M134.972 46.7031L138.469 50.4812" stroke="#FD9001"/>
<path d="M148.793 46.4907L152.443 51.9335" stroke="#FD9001"/>
<path d="M151.391 46.8564L156.01 54.0112" stroke="#FD9001"/>
<path d="M164.987 46.9863L168.649 51.8624" stroke="#FD9001"/>
<path d="M167.503 46.8213L171.708 52.1106" stroke="#FD9001"/>
<path d="M177.602 46.2661L182.079 50.5047" stroke="#FD9001"/>
<path d="M179.374 46.833L185.469 52.7363" stroke="#FD9001"/>
<path d="M184.217 46.8687L192.084 55.0624" stroke="#FD9001"/>
<path d="M188.777 46.4199L194.234 53.2559" stroke="#FD9001"/>
<path d="M117.987 48.3677L124.956 55.5106" stroke="#FD9001"/>
<path d="M123.101 48.6514L128.37 54.1296" stroke="#FD9001"/>
<path d="M125.228 48.8989L131.346 55.2744" stroke="#FD9001"/>
<path d="M130.212 48.958L135.669 54.9911" stroke="#FD9001"/>
<path d="M132.067 48.604L136.496 53.4565" stroke="#FD9001"/>
<path d="M132.114 49.0054L137.441 54.826" stroke="#FD9001"/>
<path d="M139.225 49.1235L143.087 53.3503" stroke="#FD9001"/>
<path d="M141.753 48.356L145.84 53.0904" stroke="#FD9001"/>
<path d="M146.619 48.6274L151.143 54.7786" stroke="#FD9001"/>
<path d="M153.352 48.5923L158.349 56.5853" stroke="#FD9001"/>
<path d="M167.621 48.769L171.873 54.2945" stroke="#FD9001"/>
<path d="M172.972 49.3125L176.48 53.185" stroke="#FD9001"/>
<path d="M290.892 48.6392L295.014 50.906" stroke="#FD9001"/>
<path d="M305.503 49.2061L309.354 51.3076" stroke="#FD9001"/>
<path d="M352.775 49.7964L355.35 51.8153" stroke="#FD9001"/>
<path d="M78.3101 51.0596L87.5707 58.3796" stroke="#FD9001"/>
<path d="M115.601 51.1426L120.337 55.7235" stroke="#FD9001"/>
<path d="M125.487 51.5322L130.885 57.2466" stroke="#FD9001"/>
<path d="M128.015 51.5557L133.697 57.7423" stroke="#FD9001"/>
<path d="M139.579 50.8706L144.647 56.3488" stroke="#FD9001"/>
<path d="M144.576 51.1895L148.781 56.3961" stroke="#FD9001"/>
<path d="M146.43 51.6621L151.049 57.9786" stroke="#FD9001"/>
<path d="M155.892 51.0479L160.297 58.4978" stroke="#FD9001"/>
<path d="M158.089 51.1777L162.27 58.2971" stroke="#FD9001"/>
<path d="M160.735 51.0361L166.015 59.6785" stroke="#FD9001"/>
<path d="M108.643 53.5156L115.305 58.8876" stroke="#FD9001"/>
<path d="M111.018 53.374L115.565 57.2466" stroke="#FD9001"/>
<path d="M113.534 53.9287L117.774 57.7422" stroke="#FD9001"/>
<path d="M116.215 53.5981L120.574 57.754" stroke="#FD9001"/>
<path d="M122.735 53.6099L126.763 58.0137" stroke="#FD9001"/>
<path d="M130.378 53.7754L136.154 60.1863" stroke="#FD9001"/>
<path d="M146.855 53.0669L152.1 60.5522" stroke="#FD9001"/>
<path d="M246.856 54.6133L248.805 56.5023" stroke="#FD9001"/>
<path d="M77.4832 55.9121L81.7355 58.5804" stroke="#FD9001"/>
<path d="M116.38 56.4199L123.231 62.701" stroke="#FD9001"/>
<path d="M127.259 55.9595L130.638 59.773" stroke="#FD9001"/>
<path d="M129.586 55.6172L135.74 62.4059" stroke="#FD9001"/>
<path d="M134.406 56.1367L138.859 60.9184" stroke="#FD9001"/>
<path d="M134.701 55.9595L139.036 60.6112" stroke="#FD9001"/>
<path d="M144.67 55.9004L147.8 60.0327" stroke="#FD9001"/>
<path d="M146.229 55.6055L150.187 61.4851" stroke="#FD9001"/>
<path d="M149.088 56.0894L152.667 62.2169" stroke="#FD9001"/>
<path d="M153.269 55.9712L157.297 64.1649" stroke="#FD9001"/>
<path d="M154.132 56.4316L157.037 62.3585" stroke="#FD9001"/>
<path d="M251.298 55.8413L262.507 65.5463" stroke="#FD9001"/>
<path d="M444.413 56.3965L448.524 64.7201" stroke="#FD9001"/>
<path d="M451.654 56.0186L455.127 64.2477" stroke="#FD9001"/>
<path d="M483.996 55.9004L488.65 64.0823" stroke="#FD9001"/>
<path d="M486.323 56.0068L490.457 63.3623" stroke="#FD9001"/>
<path d="M492.111 55.8179L497.19 63.5748" stroke="#FD9001"/>
<path d="M63.9819 58.4858L67.5846 61.6618" stroke="#FD9001"/>
<path d="M78.3691 58.2617L83.0349 60.9654" stroke="#FD9001"/>
<path d="M118.27 58.5215L123.409 63.3267" stroke="#FD9001"/>
<path d="M120.456 58.2734L125.83 63.728" stroke="#FD9001"/>
<path d="M144.221 58.1675L149.655 65.4167" stroke="#FD9001"/>
<path d="M149.159 58.6279L152.927 65.1924" stroke="#FD9001"/>
<path d="M154.108 57.8604L156.908 63.6574" stroke="#FD9001"/>
<path d="M248.038 58.3325L252.703 62.5238" stroke="#FD9001"/>
<path d="M253.4 58.5449L257.003 61.6855" stroke="#FD9001"/>
<path d="M255.609 57.8247L261.858 63.3384" stroke="#FD9001"/>
<path d="M257.676 57.8838L263.712 63.1613" stroke="#FD9001"/>
<path d="M264.551 58.2144L271.615 63.1849" stroke="#FD9001"/>
<path d="M423.022 58.6987L426.542 65.1215" stroke="#FD9001"/>
<path d="M423.175 58.1792L427.699 66.4438" stroke="#FD9001"/>
<path d="M427.817 58.5566L431.29 65.428" stroke="#FD9001"/>
<path d="M432.601 58.3799L435.814 63.8935" stroke="#FD9001"/>
<path d="M432.235 58.5806L435.59 64.3421" stroke="#FD9001"/>
<path d="M439.24 58.6514L441.827 63.3149" stroke="#FD9001"/>
<path d="M444.201 58.5806L446.847 64.2005" stroke="#FD9001"/>
<path d="M467.86 58.4033L470.046 64.1177" stroke="#FD9001"/>
<path d="M472.195 57.8013L475.633 65.204" stroke="#FD9001"/>
<path d="M479.424 58.2734L483.145 64.1767" stroke="#FD9001"/>
<path d="M481.999 58.6396L484.976 63.5512" stroke="#FD9001"/>
<path d="M493.847 58.5688L497.627 63.988" stroke="#FD9001"/>
<path d="M511.14 57.5649L519.573 67.3289" stroke="#FD9001"/>
<path d="M513.349 57.707L520.778 66.6446" stroke="#FD9001"/>
<path d="M61.3716 60.5288L65.2223 63.8464" stroke="#FD9001"/>
<path d="M63.6157 60.2925L67.6082 63.681" stroke="#FD9001"/>
<path d="M104.249 60.8945L111.029 64.8733" stroke="#FD9001"/>
<path d="M106.092 61.0601L112.057 64.7437" stroke="#FD9001"/>
<path d="M110.841 60.8472L117.231 65.4163" stroke="#FD9001"/>
<path d="M134.5 60.9419L140.914 67.5181" stroke="#FD9001"/>
<path d="M137.004 60.2451L141.044 64.6135" stroke="#FD9001"/>
<path d="M137.229 60.6821L142.485 66.3611" stroke="#FD9001"/>
<path d="M141.623 60.6465L145.013 64.7906" stroke="#FD9001"/>
<path d="M142.201 60.3633L146.891 66.0894" stroke="#FD9001"/>
<path d="M149.218 60.1035L153.446 67.3881" stroke="#FD9001"/>
<path d="M153.896 60.1035L158.112 68.6514" stroke="#FD9001"/>
<path d="M246.349 60.4575L250.27 64.2356" stroke="#FD9001"/>
<path d="M247.919 60.4106L254.251 66.1014" stroke="#FD9001"/>
<path d="M250.317 60.8354L255.633 65.4518" stroke="#FD9001"/>
<path d="M255.562 60.3516L262.094 66.0423" stroke="#FD9001"/>
<path d="M257.239 60.2568L264.008 66.0893" stroke="#FD9001"/>
<path d="M260.062 60.3398L265.26 64.661" stroke="#FD9001"/>
<path d="M261.799 60.2808L267.752 64.9561" stroke="#FD9001"/>
<path d="M264.031 60.7529L270.327 65.2866" stroke="#FD9001"/>
<path d="M417.966 61.0244L420.813 65.6053" stroke="#FD9001"/>
<path d="M425.03 60.9062L428.975 68.486" stroke="#FD9001"/>
<path d="M430.073 60.8003L433.723 67.4119" stroke="#FD9001"/>
<path d="M458.753 60.7173L462.202 70.0562" stroke="#FD9001"/>
<path d="M477.464 60.7056L481.527 67.4707" stroke="#FD9001"/>
<path d="M484.173 60.7295L487.941 67.046" stroke="#FD9001"/>
<path d="M486.866 60.9771L491.225 68.2144" stroke="#FD9001"/>
<path d="M489.559 60.7412L492.347 65.145" stroke="#FD9001"/>
<path d="M493.41 60.8594L497.745 66.9515" stroke="#FD9001"/>
<path d="M499.422 60.6113L505.718 68.3564" stroke="#FD9001"/>
<path d="M51.7329 62.8545L59.9777 70.8711" stroke="#FD9001"/>
<path d="M70.833 62.5239L81.6174 70.1627" stroke="#FD9001"/>
<path d="M110.557 62.8188L115.317 65.8767" stroke="#FD9001"/>
<path d="M118.199 63.2202L122.594 67.0455" stroke="#FD9001"/>
<path d="M120.007 63.126L123.763 66.5499" stroke="#FD9001"/>
<path d="M127.2 62.8311L131.464 66.9279" stroke="#FD9001"/>
<path d="M127.437 63.2793L132.516 68.1672" stroke="#FD9001"/>
<path d="M135.02 63.0669L139.934 68.0138" stroke="#FD9001"/>
<path d="M141.729 62.7598L146.123 68.2144" stroke="#FD9001"/>
<path d="M141.847 63.1851L145.332 67.5062" stroke="#FD9001"/>
<path d="M146.796 63.4214L151.368 70.3872" stroke="#FD9001"/>
<path d="M148.686 63.0552L153.234 70.8357" stroke="#FD9001"/>
<path d="M236.769 63.6929L244.222 72.8665" stroke="#FD9001"/>
<path d="M246.112 63.1616L252.928 69.4781" stroke="#FD9001"/>
<path d="M250.577 62.5713L256.684 67.8724" stroke="#FD9001"/>
<path d="M250.495 63.0078L256.743 68.4388" stroke="#FD9001"/>
<path d="M411.505 62.748L417.777 71.5911" stroke="#FD9001"/>
<path d="M418.557 63.1616L423.376 71.2491" stroke="#FD9001"/>
<path d="M418.439 63.0908L422.443 69.8087" stroke="#FD9001"/>
<path d="M422.573 62.8071L425.916 68.8993" stroke="#FD9001"/>
<path d="M425.49 62.937L430.003 71.1662" stroke="#FD9001"/>
<path d="M425.597 62.9487L428.904 68.9701" stroke="#FD9001"/>
<path d="M427.888 63.0908L431.077 68.8524" stroke="#FD9001"/>
<path d="M448.24 62.6182L450.78 68.4388" stroke="#FD9001"/>
<path d="M451.04 63.1494L454.772 71.8272" stroke="#FD9001"/>
<path d="M458.576 62.8188L461.47 70.7646" stroke="#FD9001"/>
<path d="M467.896 63.2915L470.825 70.9775" stroke="#FD9001"/>
<path d="M491.414 62.9844L494.579 67.459" stroke="#FD9001"/>
<path d="M496.41 63.1851L501.159 69.0765" stroke="#FD9001"/>
<path d="M84.594 65.9004L94.9414 71.2015" stroke="#FD9001"/>
<path d="M94.4216 65.4756L100.741 68.6397" stroke="#FD9001"/>
<path d="M96.6777 65.6646L101.273 67.9078" stroke="#FD9001"/>
<path d="M106.812 65.0269L114.266 68.8404" stroke="#FD9001"/>
<path d="M115.754 65.5464L122.345 70.6586" stroke="#FD9001"/>
<path d="M132.586 65.0859L139.378 71.5441" stroke="#FD9001"/>
<path d="M132.586 65.4639L138.811 71.3671" stroke="#FD9001"/>
<path d="M142.379 65.2041L146.336 70.4226" stroke="#FD9001"/>
<path d="M141.658 65.2275L146.289 71.3197" stroke="#FD9001"/>
<path d="M144.611 64.6846L148.97 70.9656" stroke="#FD9001"/>
<path d="M146.478 65.5347L149.749 70.7059" stroke="#FD9001"/>
<path d="M158.502 64.7905L163.664 74.283" stroke="#FD9001"/>
<path d="M231.985 65.9834L239.285 76.5384" stroke="#FD9001"/>
<path d="M233.863 65.1685L239.38 72.4885" stroke="#FD9001"/>
<path d="M238.411 65.688L242.273 69.9974" stroke="#FD9001"/>
<path d="M245.333 65.1567L251.085 70.328" stroke="#FD9001"/>
<path d="M248.298 65.3691L254.688 70.9418" stroke="#FD9001"/>
<path d="M262.177 65.1802L267.882 69.7257" stroke="#FD9001"/>
<path d="M414.044 65.9121L417.387 71.107" stroke="#FD9001"/>
<path d="M417.943 65.334L421.545 71.4734" stroke="#FD9001"/>
<path d="M420.317 65.1919L424.404 72.5356" stroke="#FD9001"/>
<path d="M446.847 65.6289L449.044 70.3279" stroke="#FD9001"/>
<path d="M451.135 65.4756L455.08 73.87" stroke="#FD9001"/>
<path d="M475.184 65.3457L479.247 73.5748" stroke="#FD9001"/>
<path d="M479.873 65.0269L483.145 70.5995" stroke="#FD9001"/>
<path d="M484.137 65.8535L488.165 72.3589" stroke="#FD9001"/>
<path d="M489.63 64.8735L492.583 69.0176" stroke="#FD9001"/>
<path d="M99.4062 68.1436L108.372 72.0279" stroke="#FD9001"/>
<path d="M120.845 67.9902L124.625 70.8946" stroke="#FD9001"/>
<path d="M127.59 67.8604L131.972 71.5794" stroke="#FD9001"/>
<path d="M129.87 67.6362L134.913 72.1227" stroke="#FD9001"/>
<path d="M146.926 68.3564L155.171 82.1583" stroke="#FD9001"/>
<path d="M234.099 67.8721L237.017 71.9335" stroke="#FD9001"/>
<path d="M238.718 67.27L242.474 71.4495" stroke="#FD9001"/>
<path d="M243.159 67.8369L249.998 74.177" stroke="#FD9001"/>
<path d="M253.306 67.2817L256.802 70.316" stroke="#FD9001"/>
<path d="M359.248 68.0493L362.745 70.3516" stroke="#FD9001"/>
<path d="M397.141 68.5923L406.248 75.6998" stroke="#FD9001"/>
<path d="M404.181 67.459L411.292 73.256" stroke="#FD9001"/>
<path d="M428.148 67.3999L434.775 80.4343" stroke="#FD9001"/>
<path d="M443.775 68.1675L446.835 74.5548" stroke="#FD9001"/>
<path d="M564.577 68.2734L566.822 70.6584" stroke="#FD9001"/>
<path d="M7.70923 70.1152L13.7098 82.4058" stroke="#FD9001"/>
<path d="M127.72 69.7969L132.587 73.7284" stroke="#FD9001"/>
<path d="M367.068 68.793L370.942 71.473" stroke="#FD9001"/>
<path d="M384.727 70.0801L396.669 78.2266" stroke="#FD9001"/>
<path d="M418.781 69.5962L422.951 76.7627" stroke="#FD9001"/>
<path d="M425.585 70.4458L427.983 75.133" stroke="#FD9001"/>
<path d="M432.908 69.4897L435.861 76.5264" stroke="#FD9001"/>
<path d="M433.086 70.6821L435.058 75.3693" stroke="#FD9001"/>
<path d="M435.176 69.8203L438.047 76.9751" stroke="#FD9001"/>
<path d="M442.263 70.0801L445.181 76.4792" stroke="#FD9001"/>
<path d="M444.236 70.1743L447.13 75.7352" stroke="#FD9001"/>
<path d="M4.94531 72.335L8.50075 80.8711" stroke="#FD9001"/>
<path d="M12.3396 71.6621L18.8244 84.4013" stroke="#FD9001"/>
<path d="M18.8481 71.7563L21.9665 78.2735" stroke="#FD9001"/>
<path d="M23.3367 71.8862L26.833 78.8403" stroke="#FD9001"/>
<path d="M354.972 72.8545L357.417 74.4602" stroke="#FD9001"/>
<path d="M373.872 71.8511L379.931 76.0778" stroke="#FD9001"/>
<path d="M380.144 72.6772L387.798 77.6596" stroke="#FD9001"/>
<path d="M383.345 72.2759L390.739 77.1402" stroke="#FD9001"/>
<path d="M408.776 71.8394L415.202 78.144" stroke="#FD9001"/>
<path d="M427.995 72.2168L431.586 79.3597" stroke="#FD9001"/>
<path d="M446.764 72.1816L449.729 76.9397" stroke="#FD9001"/>
<path d="M446.339 72.4297L449.882 78.1086" stroke="#FD9001"/>
<path d="M6.84692 74.4014L8.91404 79.4782" stroke="#FD9001"/>
<path d="M11.4773 74.8145L14.95 82.3706" stroke="#FD9001"/>
<path d="M26.4785 74.8618L29.7977 81.5797" stroke="#FD9001"/>
<path d="M26.5259 74.9443L28.6757 79.2773" stroke="#FD9001"/>
<path d="M80.0227 75.1924L82.1489 76.3848" stroke="#FD9001"/>
<path d="M255.597 74.6963L259.72 78.2146" stroke="#FD9001"/>
<path d="M257.322 74.5073L263.405 79.4779" stroke="#FD9001"/>
<path d="M259.932 74.5073L270.717 82.9254" stroke="#FD9001"/>
<path d="M263.051 75.5581L270.705 81.2134" stroke="#FD9001"/>
<path d="M261.858 73.9644L270.469 80.3163" stroke="#FD9001"/>
<path d="M366.43 75.2866L374.734 81.2017" stroke="#FD9001"/>
<path d="M368.568 75.2983L375.407 80.2807" stroke="#FD9001"/>
<path d="M373.635 74.7437L380.947 80.2573" stroke="#FD9001"/>
<path d="M385.117 74.6846L389.239 77.6716" stroke="#FD9001"/>
<path d="M384.822 74.3423L389.724 77.8842" stroke="#FD9001"/>
<path d="M387.16 75.334L393.739 80.3636" stroke="#FD9001"/>
<path d="M389.924 74.9917L394.318 78.4274" stroke="#FD9001"/>
<path d="M395.346 74.9561L402.433 80.9892" stroke="#FD9001"/>
<path d="M451.123 74.0591L457.3 83.764" stroke="#FD9001"/>
<path d="M9.85913 77.4238L13.4618 86.0426" stroke="#FD9001"/>
<path d="M14.0996 76.9868L17.2534 84.4721" stroke="#FD9001"/>
<path d="M14.1704 76.7744L17.6195 84.9563" stroke="#FD9001"/>
<path d="M19.5212 77.5889L22.5924 85.1923" stroke="#FD9001"/>
<path d="M21.0686 77.4473L23.0294 82.2525" stroke="#FD9001"/>
<path d="M23.998 77.0693L27.3054 84.9561" stroke="#FD9001"/>
<path d="M23.4192 77.6479L26.4785 84.9326" stroke="#FD9001"/>
<path d="M24.1399 77.2349L26.4669 82.7839" stroke="#FD9001"/>
<path d="M28.7937 76.8335L31.6286 82.6777" stroke="#FD9001"/>
<path d="M33.1643 77.3174L35.4558 81.5559" stroke="#FD9001"/>
<path d="M33.1523 76.7153L36.6605 83.1971" stroke="#FD9001"/>
<path d="M37.9009 77.1167L40.3578 81.6386" stroke="#FD9001"/>
<path d="M39.3892 77.2466L45.6614 88.9586" stroke="#FD9001"/>
<path d="M252.751 77.707L256.755 81.2372" stroke="#FD9001"/>
<path d="M262.2 77.105L266.075 79.8559" stroke="#FD9001"/>
<path d="M335.223 77.5537L341.011 80.7297" stroke="#FD9001"/>
<path d="M354.394 77.0225L359.744 80.6353" stroke="#FD9001"/>
<path d="M362.284 77.4121L370.6 83.0202" stroke="#FD9001"/>
<path d="M375.962 77.7778L382.365 83.2797" stroke="#FD9001"/>
<path d="M377.852 76.7271L383.286 81.1427" stroke="#FD9001"/>
<path d="M382.884 76.7153L388.507 80.8004" stroke="#FD9001"/>
<path d="M387.526 77.4238L391.85 80.6706" stroke="#FD9001"/>
<path d="M394.401 76.8218L398.287 80.1158" stroke="#FD9001"/>
<path d="M399.197 77.3408L406.249 83.3385" stroke="#FD9001"/>
<path d="M410.595 77.3057L416.029 83.2916" stroke="#FD9001"/>
<path d="M425.042 77.1523L429.211 84.4134" stroke="#FD9001"/>
<path d="M425.113 76.9043L427.711 81.4144" stroke="#FD9001"/>
<path d="M425.254 77.8369L429.117 84.5666" stroke="#FD9001"/>
<path d="M427.404 76.916L431.397 84.1298" stroke="#FD9001"/>
<path d="M430.109 76.9277L432.578 81.4142" stroke="#FD9001"/>
<path d="M440.078 76.9277L444.78 84.9798" stroke="#FD9001"/>
<path d="M441.555 77.7427L446.469 85.6767" stroke="#FD9001"/>
<path d="M454.229 76.562L458.304 83.398" stroke="#FD9001"/>
<path d="M503.238 77.459L506.191 79.348" stroke="#FD9001"/>
<path d="M7.4021 79.6787L10.1307 86.3966" stroke="#FD9001"/>
<path d="M16.8518 78.9941L18.6472 83.6223" stroke="#FD9001"/>
<path d="M38.2434 79.7729L41.8461 87.3055" stroke="#FD9001"/>
<path d="M42.7202 79.4424L45.7087 85.7352" stroke="#FD9001"/>
<path d="M46.6892 79.3955L51.5322 88.3803" stroke="#FD9001"/>
<path d="M204.51 78.8403L205.857 81.3551" stroke="#FD9001"/>
<path d="M247.802 79.2065L252.113 83.327" stroke="#FD9001"/>
<path d="M247.813 78.9351L253.755 84.6022" stroke="#FD9001"/>
<path d="M252.963 79.8086L258.468 84.5312" stroke="#FD9001"/>
<path d="M252.762 79.6787L258.893 84.9326" stroke="#FD9001"/>
<path d="M319.194 79.3247L324.71 81.8749" stroke="#FD9001"/>
<path d="M318.827 79.832L325.478 82.9135" stroke="#FD9001"/>
<path d="M321.272 79.4424L326.978 82.2523" stroke="#FD9001"/>
<path d="M323.41 79.3008L330.604 83.0907" stroke="#FD9001"/>
<path d="M333.002 79.8086L340.774 83.811" stroke="#FD9001"/>
<path d="M332.671 80.1274L341.07 84.4486" stroke="#FD9001"/>
<path d="M351.748 79.3599L356.945 82.8782" stroke="#FD9001"/>
<path d="M358.835 79.6904L364.989 83.9054" stroke="#FD9001"/>
<path d="M368.792 79.2773L373.21 83.1145" stroke="#FD9001"/>
<path d="M378.573 80.0566L383.581 84.5785" stroke="#FD9001"/>
<path d="M428.065 79.7969L431.963 86.2314" stroke="#FD9001"/>
<path d="M427.534 79.6787L430.818 85.1097" stroke="#FD9001"/>
<path d="M430.699 78.8521L434.219 84.6254" stroke="#FD9001"/>
<path d="M446.528 79.4897L452.292 88.262" stroke="#FD9001"/>
<path d="M14.2649 81.9219L16.4265 87.8724" stroke="#FD9001"/>
<path d="M19.1079 81.2964L21.6829 88.2858" stroke="#FD9001"/>
<path d="M20.915 81.6621L23.1593 87.648" stroke="#FD9001"/>
<path d="M24.3052 81.4971L26.5495 87.3767" stroke="#FD9001"/>
<path d="M28.1797 81.792L30.5185 87.3765" stroke="#FD9001"/>
<path d="M37.7356 81.5439L39.909 86.3374" stroke="#FD9001"/>
<path d="M40.5586 81.3081L42.9801 86.6683" stroke="#FD9001"/>
<path d="M44.8701 82.1582L47.894 88.4865" stroke="#FD9001"/>
<path d="M210.534 81.9692L214.385 87.8371" stroke="#FD9001"/>
<path d="M213.039 81.6152L218.13 89.0651" stroke="#FD9001"/>
<path d="M219.842 81.8745L224.036 88.8876" stroke="#FD9001"/>
<path d="M220.149 81.8511L224.248 88.7107" stroke="#FD9001"/>
<path d="M222.441 81.792L224.945 86.2076" stroke="#FD9001"/>
<path d="M227.319 82.2881L230.072 87.2468" stroke="#FD9001"/>
<path d="M229.044 81.9336L233.533 89.7141" stroke="#FD9001"/>
<path d="M241.387 81.3555L244.907 85.5586" stroke="#FD9001"/>
<path d="M243.384 82.0166L249.184 88.4157" stroke="#FD9001"/>
<path d="M321.438 81.5796L330.131 85.6528" stroke="#FD9001"/>
<path d="M324.32 82.4771L332.104 86.3142" stroke="#FD9001"/>
<path d="M326.056 82.2173L330.852 84.6612" stroke="#FD9001"/>
<path d="M332.907 81.7803L340.196 85.5229" stroke="#FD9001"/>
<path d="M333.226 82.394L341.223 86.5027" stroke="#FD9001"/>
<path d="M340.16 82.1465L347.519 86.326" stroke="#FD9001"/>
<path d="M354.311 82.2173L361.752 87.3767" stroke="#FD9001"/>
<path d="M361.457 81.9458L368.875 87.2115" stroke="#FD9001"/>
<path d="M366.607 82.2524L372.501 87.223" stroke="#FD9001"/>
<path d="M382.542 81.4614L388.07 86.0896" stroke="#FD9001"/>
<path d="M389.782 82.1465L397.094 87.6483" stroke="#FD9001"/>
<path d="M392.464 82.2173L397.862 86.4086" stroke="#FD9001"/>
<path d="M391.861 82.0635L398.547 87.2702" stroke="#FD9001"/>
<path d="M394.094 81.4614L400.437 86.7153" stroke="#FD9001"/>
<path d="M420.978 81.2725L426.554 88.6043" stroke="#FD9001"/>
<path d="M423.459 82.2764L427.569 87.9435" stroke="#FD9001"/>
<path d="M425.62 82.2056L430.889 89.7972" stroke="#FD9001"/>
<path d="M429.707 81.4854L433.275 86.8337" stroke="#FD9001"/>
<path d="M439.322 81.9927L442.169 86.2194" stroke="#FD9001"/>
<path d="M439.783 81.7095L443.882 87.778" stroke="#FD9001"/>
<path d="M448.725 82.4414L453.426 89.7851" stroke="#FD9001"/>
<path d="M649.79 82.418L651.361 84.4369" stroke="#FD9001"/>
<path d="M9.42212 83.9175L12.5641 92.4064" stroke="#FD9001"/>
<path d="M11.7607 84.6021L13.8987 91.0248" stroke="#FD9001"/>
<path d="M11.5481 84.2358L14.005 91.5677" stroke="#FD9001"/>
<path d="M14.1467 84.354L16.0721 90.4107" stroke="#FD9001"/>
<path d="M16.97 84.1416L18.8008 89.6434" stroke="#FD9001"/>
<path d="M23.4312 83.7876L25.2266 88.4394" stroke="#FD9001"/>
<path d="M28.5222 84.2007L30.3885 88.6517" stroke="#FD9001"/>
<path d="M37.8301 83.752L40.2752 89.0295" stroke="#FD9001"/>
<path d="M42.6257 84.5547L45.3071 90.3871" stroke="#FD9001"/>
<path d="M42.5667 84.3657L45.6614 91.1072" stroke="#FD9001"/>
<path d="M44.9172 83.7876L48.9452 92.1466" stroke="#FD9001"/>
<path d="M51.9927 84.7319L55.5717 90.8359" stroke="#FD9001"/>
<path d="M61.4187 84.0234L65.86 90.1392" stroke="#FD9001"/>
<path d="M63.4504 84.5664L68.884 91.1308" stroke="#FD9001"/>
<path d="M65.7656 84.6611L69.0021 88.2031" stroke="#FD9001"/>
<path d="M116.499 83.6221L122.263 86.5147" stroke="#FD9001"/>
<path d="M125.393 84.8501L129.858 87.6719" stroke="#FD9001"/>
<path d="M129.551 84.5786L134.382 88.4748" stroke="#FD9001"/>
<path d="M208.255 83.9883L213.298 92.2056" stroke="#FD9001"/>
<path d="M208.018 84.4248L212.672 91.9928" stroke="#FD9001"/>
<path d="M217.303 84.6255L221.957 91.4969" stroke="#FD9001"/>
<path d="M226.788 84.4604L230.154 90.2811" stroke="#FD9001"/>
<path d="M229.563 84.543L234.17 92.2762" stroke="#FD9001"/>
<path d="M283.167 83.6694L286.025 85.3105" stroke="#FD9001"/>
<path d="M307.405 84.543L314.764 87.6953" stroke="#FD9001"/>
<path d="M307.429 84.0117L315.449 87.4474" stroke="#FD9001"/>
<path d="M311.61 84.7085L320.068 88.2741" stroke="#FD9001"/>
<path d="M349.704 84.4839L353.992 87.4591" stroke="#FD9001"/>
<path d="M351.606 84.6846L355.87 87.589" stroke="#FD9001"/>
<path d="M354.476 84.6255L360.087 88.4862" stroke="#FD9001"/>
<path d="M378.419 84.8262L381.951 88.3681" stroke="#FD9001"/>
<path d="M417.742 84.4131L422.904 90.4816" stroke="#FD9001"/>
<path d="M418.545 84.5078L423.069 89.8326" stroke="#FD9001"/>
<path d="M425.219 84.4722L428.337 88.569" stroke="#FD9001"/>
<path d="M427.688 84.189L431.857 89.8207" stroke="#FD9001"/>
<path d="M432.589 84.5547L437.172 91.3789" stroke="#FD9001"/>
<path d="M444.118 84.4248L446.764 88.4272" stroke="#FD9001"/>
<path d="M657.102 84.543L660.196 88.7697" stroke="#FD9001"/>
<path d="M661.838 84.2241L666.268 90.8122" stroke="#FD9001"/>
<path d="M661.956 84.5195L664.957 88.9824" stroke="#FD9001"/>
<path d="M663.634 83.9409L667.992 90.8359" stroke="#FD9001"/>
<path d="M666.528 83.7285L670.945 91.6861" stroke="#FD9001"/>
<path d="M668.866 84.4956L671.926 90.8593" stroke="#FD9001"/>
<path d="M668.937 84.0708L672.457 91.379" stroke="#FD9001"/>
<path d="M670.544 84.189L673.142 89.9624" stroke="#FD9001"/>
<path d="M673.497 84.0117L676.816 91.2609" stroke="#FD9001"/>
<path d="M682.545 84.3188L686.726 92.0521" stroke="#FD9001"/>
<path d="M685.604 84.5664L688.049 89.1001" stroke="#FD9001"/>
<path d="M14.1467 86.1489L15.6823 91.3084" stroke="#FD9001"/>
<path d="M23.7854 86.8335L26.5494 93.9528" stroke="#FD9001"/>
<path d="M23.3367 86.5146L25.4156 91.8984" stroke="#FD9001"/>
<path d="M42.7556 87.0342L45.5196 93.0083" stroke="#FD9001"/>
<path d="M44.74 86.751L46.9725 91.3201" stroke="#FD9001"/>
<path d="M47.4214 86.1016L51.6501 94.1654" stroke="#FD9001"/>
<path d="M47.5396 86.8335L50.5753 92.6187" stroke="#FD9001"/>
<path d="M52.5361 86.4556L56.1861 92.7366" stroke="#FD9001"/>
<path d="M59.1272 86.8335L63.8638 94.6494" stroke="#FD9001"/>
<path d="M61.6667 87.0815L66.0372 93.3626" stroke="#FD9001"/>
<path d="M63.8757 87.1167L69.0849 93.6339" stroke="#FD9001"/>
<path d="M103.682 86.5146L112.104 89.1593" stroke="#FD9001"/>
<path d="M117.727 86.1489L125.393 90.2694" stroke="#FD9001"/>
<path d="M125.428 86.8218L133.118 91.568" stroke="#FD9001"/>
<path d="M132.48 86.6445L137.134 90.5761" stroke="#FD9001"/>
<path d="M132.787 86.4204L137.831 90.6708" stroke="#FD9001"/>
<path d="M132.386 86.3496L138.729 91.7098" stroke="#FD9001"/>
<path d="M134.512 86.3374L139.78 91.1308" stroke="#FD9001"/>
<path d="M143.654 86.8452L147.34 90.8122" stroke="#FD9001"/>
<path d="M146.43 86.6328L150.706 91.4735" stroke="#FD9001"/>
<path d="M198.899 86.8335L201.345 93.9528" stroke="#FD9001"/>
<path d="M208.503 86.751L212.483 93.1383" stroke="#FD9001"/>
<path d="M219.712 86.6562L223.315 92.2407" stroke="#FD9001"/>
<path d="M229.446 86.9751L232.469 91.9929" stroke="#FD9001"/>
<path d="M309.862 87.1406L318.154 90.7888" stroke="#FD9001"/>
<path d="M318.745 86.8691L324.308 89.1124" stroke="#FD9001"/>
<path d="M318.591 86.8691L326.907 90.2222" stroke="#FD9001"/>
<path d="M318.509 86.2432L323.552 88.2857" stroke="#FD9001"/>
<path d="M323.989 86.7153L329.305 88.9704" stroke="#FD9001"/>
<path d="M326.493 86.7271L334.561 90.4461" stroke="#FD9001"/>
<path d="M340.325 86.0542L353.26 93.8347" stroke="#FD9001"/>
<path d="M352.067 86.916L361.658 93.4096" stroke="#FD9001"/>
<path d="M354.831 86.5503L362.142 91.5326" stroke="#FD9001"/>
<path d="M357.24 86.6328L364.954 92.0166" stroke="#FD9001"/>
<path d="M396.763 86.6919L400.52 89.6317" stroke="#FD9001"/>
<path d="M404.418 86.751L411.032 92.241" stroke="#FD9001"/>
<path d="M419.962 86.2788L424.983 92.3119" stroke="#FD9001"/>
<path d="M425.585 86.373L430.428 92.5242" stroke="#FD9001"/>
<path d="M428.077 86.7393L433.511 93.8468" stroke="#FD9001"/>
<path d="M432.578 86.4321L436.298 91.9812" stroke="#FD9001"/>
<path d="M434.279 86.1606L438.2 92.2528" stroke="#FD9001"/>
<path d="M437.208 86.6094L440.634 91.9105" stroke="#FD9001"/>
<path d="M439.145 86.5264L442.027 90.8594" stroke="#FD9001"/>
<path d="M444.354 86.5264L449.244 94.0353" stroke="#FD9001"/>
<path d="M447.059 86.3965L451.111 92.9137" stroke="#FD9001"/>
<path d="M448.666 86.7036L453.166 94.1181" stroke="#FD9001"/>
<path d="M449.115 86.1841L451.938 90.8358" stroke="#FD9001"/>
<path d="M451.063 86.7393L455.434 93.7523" stroke="#FD9001"/>
<path d="M450.756 86.6919L455.741 94.6967" stroke="#FD9001"/>
<path d="M663.586 87.0225L666.197 91.2138" stroke="#FD9001"/>
<path d="M666.362 86.1724L669.752 92.418" stroke="#FD9001"/>
<path d="M673.095 86.4087L676.922 94.9566" stroke="#FD9001"/>
<path d="M682.899 86.4204L686.514 93.0439" stroke="#FD9001"/>
<path d="M682.403 86.2314L685.769 92.3708" stroke="#FD9001"/>
<path d="M687.116 86.6562L690.837 93.5867" stroke="#FD9001"/>
<path d="M692.313 86.1133L694.723 91.3436" stroke="#FD9001"/>
<path d="M694.286 86.5737L696.365 91.5679" stroke="#FD9001"/>
<path d="M9.17407 89.313L12.1035 97.2588" stroke="#FD9001"/>
<path d="M13.9578 89.23L16.6627 97.8369" stroke="#FD9001"/>
<path d="M16.5564 88.7344L18.1156 93.4334" stroke="#FD9001"/>
<path d="M21.801 89.1006L24.695 96.7984" stroke="#FD9001"/>
<path d="M27.9434 88.5454L31.3452 96.2787" stroke="#FD9001"/>
<path d="M30.7427 88.8286L34.2863 96.5737" stroke="#FD9001"/>
<path d="M75.7705 88.6279L82.4679 92.2289" stroke="#FD9001"/>
<path d="M80.0227 88.7817L86.4839 91.1667" stroke="#FD9001"/>
<path d="M92.1301 89.313L97.4692 91.1548" stroke="#FD9001"/>
<path d="M94.6934 88.7461L99.8789 90.4935" stroke="#FD9001"/>
<path d="M109.151 88.6636L114.077 90.3991" stroke="#FD9001"/>
<path d="M108.596 88.876L114.077 90.7886" stroke="#FD9001"/>
<path d="M111.254 88.6279L116.404 90.6705" stroke="#FD9001"/>
<path d="M113.262 88.6396L121.649 92.3823" stroke="#FD9001"/>
<path d="M117.833 89.5728L125.865 93.9412" stroke="#FD9001"/>
<path d="M118.235 89.0293L123.81 92.0518" stroke="#FD9001"/>
<path d="M123.29 88.5928L130.153 92.6188" stroke="#FD9001"/>
<path d="M132.079 89.1475L137.181 93.6103" stroke="#FD9001"/>
<path d="M146.938 89.1123L156.931 100.506" stroke="#FD9001"/>
<path d="M188.847 88.7817L192.58 100.683" stroke="#FD9001"/>
<path d="M191.21 88.6396L193.1 94.4367" stroke="#FD9001"/>
<path d="M194.127 89.2656L195.675 93.9174" stroke="#FD9001"/>
<path d="M198.581 88.7227L201.734 97.306" stroke="#FD9001"/>
<path d="M203.802 89.2656L206.495 94.8855" stroke="#FD9001"/>
<path d="M205.573 88.6987L208.42 93.8346" stroke="#FD9001"/>
<path d="M213.357 89.1475L218.319 95.7237" stroke="#FD9001"/>
<path d="M212.531 88.6162L216.795 94.2479" stroke="#FD9001"/>
<path d="M220.031 88.8994L224.756 96.2431" stroke="#FD9001"/>
<path d="M224.886 89.3013L229.15 96.6095" stroke="#FD9001"/>
<path d="M228.831 88.6753L232.269 94.4133" stroke="#FD9001"/>
<path d="M293.183 89.2891L299.432 92.1344" stroke="#FD9001"/>
<path d="M295.628 88.522L303.661 91.9341" stroke="#FD9001"/>
<path d="M299.716 88.6753L306.826 91.4734" stroke="#FD9001"/>
<path d="M302.857 89.3721L310.689 92.5244" stroke="#FD9001"/>
<path d="M306.59 89.5371L311.327 91.5678" stroke="#FD9001"/>
<path d="M313.937 88.9468L321.072 91.9574" stroke="#FD9001"/>
<path d="M326.6 89.0059L333.935 92.5124" stroke="#FD9001"/>
<path d="M377.864 88.4629L383.912 94.6731" stroke="#FD9001"/>
<path d="M380.061 88.7461L385.152 93.9882" stroke="#FD9001"/>
<path d="M383.191 89.4546L388.034 94.2126" stroke="#FD9001"/>
<path d="M385.707 89.0767L390.113 93.0318" stroke="#FD9001"/>
<path d="M389.971 89.1714L397.07 94.7441" stroke="#FD9001"/>
<path d="M392.24 89.1357L397.968 93.634" stroke="#FD9001"/>
<path d="M394.767 88.9468L400.272 93.2916" stroke="#FD9001"/>
<path d="M403.945 88.5811L408.717 92.5835" stroke="#FD9001"/>
<path d="M408.871 88.7935L413.088 92.6778" stroke="#FD9001"/>
<path d="M417.801 89.1592L422.089 94.1179" stroke="#FD9001"/>
<path d="M421.025 88.7817L425.183 93.8113" stroke="#FD9001"/>
<path d="M441.956 89.3247L445.429 94.6967" stroke="#FD9001"/>
<path d="M441.756 88.7461L446.303 95.7828" stroke="#FD9001"/>
<path d="M446.504 88.6753L449.776 94.0945" stroke="#FD9001"/>
<path d="M448.441 89.23L450.851 93.2914" stroke="#FD9001"/>
<path d="M449.032 88.5337L452.469 94.3189" stroke="#FD9001"/>
<path d="M645.006 88.8286L650.711 96.1014" stroke="#FD9001"/>
<path d="M644.829 88.7935L649.601 94.8974" stroke="#FD9001"/>
<path d="M651.999 88.6987L657.751 95.8299" stroke="#FD9001"/>
<path d="M666.256 88.6636L669.433 94.555" stroke="#FD9001"/>
<path d="M671.441 89.3721L675.103 97.5422" stroke="#FD9001"/>
<path d="M14.3713 91.6978L16.7928 98.581" stroke="#FD9001"/>
<path d="M28.6167 91.5088L30.9201 96.255" stroke="#FD9001"/>
<path d="M32.9517 91.1782L35.1487 95.7355" stroke="#FD9001"/>
<path d="M57.6152 90.5054L64.5962 101.698" stroke="#FD9001"/>
<path d="M61.2534 91.1782L65.1868 96.5502" stroke="#FD9001"/>
<path d="M73.656 90.9302L79.9637 95.2277" stroke="#FD9001"/>
<path d="M75.7114 91.8159L82.2435 95.5822" stroke="#FD9001"/>
<path d="M76.0066 91.4971L80.2471 93.9528" stroke="#FD9001"/>
<path d="M78.0737 91.0723L82.4442 93.2565" stroke="#FD9001"/>
<path d="M80.1526 91.0957L86.3421 93.7286" stroke="#FD9001"/>
<path d="M83.0466 91.1899L88.0668 93.138" stroke="#FD9001"/>
<path d="M85.4563 91.981L91.3505 94.2006" stroke="#FD9001"/>
<path d="M87.7241 91.981L94.9059 94.661" stroke="#FD9001"/>
<path d="M90.1221 91.1899L94.9886 92.9373" stroke="#FD9001"/>
<path d="M94.8232 91.6035L100.375 93.3745" stroke="#FD9001"/>
<path d="M130.543 90.6826L137.181 96.3852" stroke="#FD9001"/>
<path d="M134.76 91.2607L141.257 97.9905" stroke="#FD9001"/>
<path d="M137.252 90.7061L138.882 92.5361" stroke="#FD9001"/>
<path d="M173.09 91.4971L181.217 104.685" stroke="#FD9001"/>
<path d="M179.292 91.2607L181.748 97.471" stroke="#FD9001"/>
<path d="M181.701 91.5205L184.394 99.0058" stroke="#FD9001"/>
<path d="M181.713 91.3789L183.721 96.9634" stroke="#FD9001"/>
<path d="M193.513 91.6387L196.135 98.8288" stroke="#FD9001"/>
<path d="M201.262 91.8159L204.451 98.4984" stroke="#FD9001"/>
<path d="M214.976 91.0601L219.641 97.6363" stroke="#FD9001"/>
<path d="M220.126 91.0366L224.744 98.1914" stroke="#FD9001"/>
<path d="M224.425 91.7095L227.815 97.5419" stroke="#FD9001"/>
<path d="M283.438 91.7212L288.258 94.4485" stroke="#FD9001"/>
<path d="M312.437 91.7686L321.391 95.8064" stroke="#FD9001"/>
<path d="M315.981 92.2524L327.651 97.8605" stroke="#FD9001"/>
<path d="M372.773 91.3315L379.234 97.8369" stroke="#FD9001"/>
<path d="M387.456 91.6504L393.763 97.0578" stroke="#FD9001"/>
<path d="M387.278 91.7451L394.058 97.5421" stroke="#FD9001"/>
<path d="M387.302 90.9658L392.877 95.7357" stroke="#FD9001"/>
<path d="M394.129 91.5088L401.264 97.3058" stroke="#FD9001"/>
<path d="M404.666 91.6743L411.221 97.4005" stroke="#FD9001"/>
<path d="M427.227 90.8242L432.708 98.0144" stroke="#FD9001"/>
<path d="M432.046 91.5327L436.239 98.1208" stroke="#FD9001"/>
<path d="M432.601 90.8833L435.448 95.358" stroke="#FD9001"/>
<path d="M442.134 91.6152L445.311 96.9754" stroke="#FD9001"/>
<path d="M443.846 91.7568L447.296 97.6601" stroke="#FD9001"/>
<path d="M450.65 91.4146L454.265 97.8137" stroke="#FD9001"/>
<path d="M635.19 91.5913L640.6 98.8877" stroke="#FD9001"/>
<path d="M642.596 91.084L649.022 99.809" stroke="#FD9001"/>
<path d="M649.967 90.8359L654.302 96.019" stroke="#FD9001"/>
<path d="M651.55 91.1191L656.156 96.9043" stroke="#FD9001"/>
<path d="M661.909 91.3198L666.705 99.0177" stroke="#FD9001"/>
<path d="M660.976 90.8594L665.512 98.1558" stroke="#FD9001"/>
<path d="M666.516 90.9424L670.307 98.0145" stroke="#FD9001"/>
<path d="M673.201 91.1548L675.8 96.6094" stroke="#FD9001"/>
<path d="M687.258 91.6978L689.998 96.6919" stroke="#FD9001"/>
<path d="M689.974 91.3315L697.983 106.208" stroke="#FD9001"/>
<path d="M7.49658 93.8584L9.2802 98.3685" stroke="#FD9001"/>
<path d="M9.6228 94.0947L11.3828 98.6993" stroke="#FD9001"/>
<path d="M14.2178 93.4688L16.6511 99.8207" stroke="#FD9001"/>
<path d="M14.4067 93.1616L17.3598 100.883" stroke="#FD9001"/>
<path d="M49.583 93.457L52.4888 98.4158" stroke="#FD9001"/>
<path d="M54.5322 93.5044L57.6388 98.3805" stroke="#FD9001"/>
<path d="M63.9348 93.4688L69.7227 100.34" stroke="#FD9001"/>
<path d="M70.8093 93.457L77.1878 98.6991" stroke="#FD9001"/>
<path d="M77.8611 93.563L82.1134 95.8889" stroke="#FD9001"/>
<path d="M87.2871 93.9175L95.8981 97.3296" stroke="#FD9001"/>
<path d="M89.4487 93.8228L94.965 95.8771" stroke="#FD9001"/>
<path d="M96.6069 93.6221L101.639 95.275" stroke="#FD9001"/>
<path d="M99.4062 93.646L108.135 96.6567" stroke="#FD9001"/>
<path d="M99.7134 94.0947L107.025 96.6095" stroke="#FD9001"/>
<path d="M101.639 93.5161L107.994 95.7594" stroke="#FD9001"/>
<path d="M127.46 93.5752L133.98 98.6992" stroke="#FD9001"/>
<path d="M156.494 94.1182L163.392 103.138" stroke="#FD9001"/>
<path d="M161.065 93.5869L165.778 100.647" stroke="#FD9001"/>
<path d="M170.078 93.2563L173.456 97.8609" stroke="#FD9001"/>
<path d="M177.508 93.8467L180.567 100.21" stroke="#FD9001"/>
<path d="M182.126 93.3862L184.595 99.4784" stroke="#FD9001"/>
<path d="M188.741 93.8584L190.973 99.9978" stroke="#FD9001"/>
<path d="M202.892 93.4453L206.176 98.8173" stroke="#FD9001"/>
<path d="M214.586 93.2446L219.724 100.624" stroke="#FD9001"/>
<path d="M217.385 93.457L220.445 97.9671" stroke="#FD9001"/>
<path d="M219.984 93.9883L222.594 97.9671" stroke="#FD9001"/>
<path d="M224.898 93.5278L229.504 101.214" stroke="#FD9001"/>
<path d="M227.272 93.457L231.406 100.494" stroke="#FD9001"/>
<path d="M229.091 93.9883L232.847 100.128" stroke="#FD9001"/>
<path d="M233.721 94.2363L238.458 101.131" stroke="#FD9001"/>
<path d="M274.072 93.3506L281.1 97.1641" stroke="#FD9001"/>
<path d="M278.95 94.1416L283.462 96.68" stroke="#FD9001"/>
<path d="M283.935 93.5986L290.998 97.5302" stroke="#FD9001"/>
<path d="M392.464 93.7168L398.795 99.1596" stroke="#FD9001"/>
<path d="M401.335 93.3389L407.713 99.0532" stroke="#FD9001"/>
<path d="M402.043 93.6812L408.635 99.5962" stroke="#FD9001"/>
<path d="M403.803 93.4688L410.147 99.372" stroke="#FD9001"/>
<path d="M413.041 93.8936L418.557 100.281" stroke="#FD9001"/>
<path d="M415.308 93.3979L419.372 98.2386" stroke="#FD9001"/>
<path d="M423.14 93.9292L427.369 99.431" stroke="#FD9001"/>
<path d="M645.667 93.5513L653.062 102.831" stroke="#FD9001"/>
<path d="M654.716 93.9648L657.964 98.2978" stroke="#FD9001"/>
<path d="M654.633 93.8701L660.185 101.273" stroke="#FD9001"/>
<path d="M659.133 94.3188L663.716 101.237" stroke="#FD9001"/>
<path d="M664.283 93.9766L666.835 98.4748" stroke="#FD9001"/>
<path d="M666.764 93.4688L670.213 99.8561" stroke="#FD9001"/>
<path d="M668.051 93.0791L671.796 100.246" stroke="#FD9001"/>
<path d="M676.095 94.0825L679.19 100.458" stroke="#FD9001"/>
<path d="M682.663 94.0474L686.171 100.659" stroke="#FD9001"/>
<path d="M49.4177 96.3613L54.0599 103.776" stroke="#FD9001"/>
<path d="M68.2581 96.1606L74.8256 102.3" stroke="#FD9001"/>
<path d="M73.3135 95.8535L78.9006 99.8795" stroke="#FD9001"/>
<path d="M76.1365 95.6528L82.2433 99.549" stroke="#FD9001"/>
<path d="M77.6721 95.6528L85.3027 100.045" stroke="#FD9001"/>
<path d="M84.7358 96.4438L91.7286 99.4781" stroke="#FD9001"/>
<path d="M84.7239 95.8066L89.6023 97.92" stroke="#FD9001"/>
<path d="M87.7241 95.6646L95.0594 98.7342" stroke="#FD9001"/>
<path d="M87.2991 96.373L93.6185 99.0295" stroke="#FD9001"/>
<path d="M90.0984 96.4204L97.8707 99.5255" stroke="#FD9001"/>
<path d="M92.8743 96.3613L99.489 98.8289" stroke="#FD9001"/>
<path d="M130.496 96.397L134.831 100.411" stroke="#FD9001"/>
<path d="M134.807 96.208L138.28 100.352" stroke="#FD9001"/>
<path d="M167.893 96.2432L172.405 102.028" stroke="#FD9001"/>
<path d="M177.248 95.9009L181.051 103.056" stroke="#FD9001"/>
<path d="M181.536 96.3848L184.252 102.217" stroke="#FD9001"/>
<path d="M195.97 95.8301L198.474 100.694" stroke="#FD9001"/>
<path d="M205.644 95.96L209.259 101.178" stroke="#FD9001"/>
<path d="M207.782 95.4521L212.235 101.733" stroke="#FD9001"/>
<path d="M210.263 96.6328L214.858 103.209" stroke="#FD9001"/>
<path d="M212.448 95.7593L217.09 102.477" stroke="#FD9001"/>
<path d="M212.814 95.9717L217.881 103.304" stroke="#FD9001"/>
<path d="M214.858 95.8892L219.464 102.548" stroke="#FD9001"/>
<path d="M217.834 95.9243L221.921 101.875" stroke="#FD9001"/>
<path d="M236.592 96.2905L239.911 101.131" stroke="#FD9001"/>
<path d="M254.593 96.5854L260.287 101.32" stroke="#FD9001"/>
<path d="M269.606 95.7593L274.024 98.0734" stroke="#FD9001"/>
<path d="M272.134 95.6646L277.568 98.3682" stroke="#FD9001"/>
<path d="M291.152 95.8184L303.472 101.97" stroke="#FD9001"/>
<path d="M368.226 96.4438L374.604 101.379" stroke="#FD9001"/>
<path d="M368.19 96.2197L373.966 100.683" stroke="#FD9001"/>
<path d="M373.824 95.771L377.51 99.2421" stroke="#FD9001"/>
<path d="M375.443 96.2432L380.971 101.662" stroke="#FD9001"/>
<path d="M377.533 96.1724L383.475 102.111" stroke="#FD9001"/>
<path d="M379.801 95.4521L384.538 100.21" stroke="#FD9001"/>
<path d="M394.933 95.9834L401.347 101.651" stroke="#FD9001"/>
<path d="M404.311 96.1606L408.339 100.258" stroke="#FD9001"/>
<path d="M441.567 95.1333L448.819 110.316" stroke="#FD9001"/>
<path d="M644.474 96.1724L650.168 103.363" stroke="#FD9001"/>
<path d="M649.825 96.5146L655.802 103.752" stroke="#FD9001"/>
<path d="M652.388 95.8535L657.302 102.005" stroke="#FD9001"/>
<path d="M662.098 96.4087L665.086 101.108" stroke="#FD9001"/>
<path d="M663.374 96.5737L667.496 103.551" stroke="#FD9001"/>
<path d="M663.964 96.4678L667.886 103.115" stroke="#FD9001"/>
<path d="M666.067 95.8774L669.764 102.584" stroke="#FD9001"/>
<path d="M668.606 96.3379L671.394 101.651" stroke="#FD9001"/>
<path d="M671.477 96.3613L674.713 102.701" stroke="#FD9001"/>
<path d="M675.93 96.0781L679.875 103.965" stroke="#FD9001"/>
<path d="M677.702 95.7476L681.482 103.268" stroke="#FD9001"/>
<path d="M82.4915 98.2622L90.063 101.899" stroke="#FD9001"/>
<path d="M165.282 97.8726L170.113 104.236" stroke="#FD9001"/>
<path d="M165.719 98.1914L168.696 102.111" stroke="#FD9001"/>
<path d="M167.562 98.0615L171.377 103.067" stroke="#FD9001"/>
<path d="M172.925 97.9316L177.638 104.827" stroke="#FD9001"/>
<path d="M179.457 98.8525L183.556 106.208" stroke="#FD9001"/>
<path d="M181.607 98.085L183.922 102.43" stroke="#FD9001"/>
<path d="M184.784 98.8052L187.075 103.244" stroke="#FD9001"/>
<path d="M189.497 98.2622L193.537 106.161" stroke="#FD9001"/>
<path d="M191.292 98.4038L194.919 105.346" stroke="#FD9001"/>
<path d="M198.392 98.5103L201.002 103.174" stroke="#FD9001"/>
<path d="M205.951 97.979L209.861 103.682" stroke="#FD9001"/>
<path d="M213.216 98.2148L216.842 103.646" stroke="#FD9001"/>
<path d="M215.259 98.5571L220.279 105.96" stroke="#FD9001"/>
<path d="M214.645 99.0298L219.488 106.173" stroke="#FD9001"/>
<path d="M215.07 98.2148L219.311 104.46" stroke="#FD9001"/>
<path d="M217.255 98.6162L220.456 103.185" stroke="#FD9001"/>
<path d="M219.771 98.6401L224.922 105.83" stroke="#FD9001"/>
<path d="M219.594 98.1558L224.65 105.204" stroke="#FD9001"/>
<path d="M222.488 98.6753L226.138 103.823" stroke="#FD9001"/>
<path d="M231.572 98.6284L234.406 102.631" stroke="#FD9001"/>
<path d="M238.387 98.0498L241.671 102.914" stroke="#FD9001"/>
<path d="M239.261 98.3096L244.01 105.334" stroke="#FD9001"/>
<path d="M255.408 98.2148L261.941 104.083" stroke="#FD9001"/>
<path d="M260.299 98.5928L265.413 102.607" stroke="#FD9001"/>
<path d="M267.339 98.1797L271.981 100.801" stroke="#FD9001"/>
<path d="M354.76 98.0967L364.587 103.953" stroke="#FD9001"/>
<path d="M370.907 98.6992L377.64 104.402" stroke="#FD9001"/>
<path d="M372.82 98.5928L379.282 104.39" stroke="#FD9001"/>
<path d="M385.353 98.6162L389.121 102.241" stroke="#FD9001"/>
<path d="M424.439 97.8135L430.038 106.09" stroke="#FD9001"/>
<path d="M427.735 98.6162L431.503 104.626" stroke="#FD9001"/>
<path d="M27.1755 101.745L29.1718 104.626" stroke="#FD9001"/>
<path d="M172.098 101.19L175.89 106.551" stroke="#FD9001"/>
<path d="M176.882 101.296L179.492 105.381" stroke="#FD9001"/>
<path d="M181.866 101.119L184.808 106.078" stroke="#FD9001"/>
<path d="M191.481 101.131L196.124 109.042" stroke="#FD9001"/>
<path d="M205.691 101.308L208.928 106.054" stroke="#FD9001"/>
<path d="M212.826 100.27L216.098 105.275" stroke="#FD9001"/>
<path d="M221.85 100.801L225.099 105.193" stroke="#FD9001"/>
<path d="M236.438 101.355L240.1 106.94" stroke="#FD9001"/>
<path d="M238.234 101.084L243.088 108.38" stroke="#FD9001"/>
<path d="M241.116 100.21L246.112 107.318" stroke="#FD9001"/>
<path d="M245.675 101.084L249.963 106.373" stroke="#FD9001"/>
<path d="M250.199 100.624L255.928 106.645" stroke="#FD9001"/>
<path d="M293.136 100.635L299.857 104.236" stroke="#FD9001"/>
<path d="M361.599 100.848L374.356 108.038" stroke="#FD9001"/>
<path d="M384.739 101.497L393.834 110.187" stroke="#FD9001"/>
<path d="M400.012 101.415L408.646 110.482" stroke="#FD9001"/>
<path d="M186.52 103.174L190.17 109.077" stroke="#FD9001"/>
<path d="M192.096 103.528L196.88 111.096" stroke="#FD9001"/>
<path d="M214.846 102.997L218.85 108.9" stroke="#FD9001"/>
<path d="M217.397 103.28L222.063 109.797" stroke="#FD9001"/>
<path d="M222.37 103.304L225.559 107.649" stroke="#FD9001"/>
<path d="M226.882 103.457L230.178 107.908" stroke="#FD9001"/>
<path d="M235.895 102.749L239.332 108.109" stroke="#FD9001"/>
<path d="M238.399 103.186L241.801 108.463" stroke="#FD9001"/>
<path d="M285.6 103.398L290.526 106.043" stroke="#FD9001"/>
<path d="M295.321 102.914L302.054 106.633" stroke="#FD9001"/>
<path d="M297.849 103.115L305.515 107.247" stroke="#FD9001"/>
<path d="M299.94 103.126L307.653 107.223" stroke="#FD9001"/>
<path d="M309.661 102.702L317.741 107.141" stroke="#FD9001"/>
<path d="M309.354 103.186L317.339 107.566" stroke="#FD9001"/>
<path d="M311.953 103.575L317.717 107.094" stroke="#FD9001"/>
<path d="M212.85 105.937L217.858 113.587" stroke="#FD9001"/>
<path d="M233.792 105.405L237.289 110.895" stroke="#FD9001"/>
<path d="M238.434 105.251L242.427 111.78" stroke="#FD9001"/>
<path d="M241.187 105.818L245.085 112.005" stroke="#FD9001"/>
<path d="M242.935 104.921L247.518 111.745" stroke="#FD9001"/>
<path d="M248.321 105.889L252.396 111.143" stroke="#FD9001"/>
<path d="M283.285 105.57L287.821 108.026" stroke="#FD9001"/>
<path d="M295.581 105.7L302.775 109.714" stroke="#FD9001"/>
<path d="M300.389 105.594L307.996 109.868" stroke="#FD9001"/>
<path d="M311.433 105.205L316.052 108.392" stroke="#FD9001"/>
<path d="M344.59 105.925L359.603 115.642" stroke="#FD9001"/>
<path d="M191.848 107.743L194.694 111.828" stroke="#FD9001"/>
<path d="M196.372 107.802L199.974 113.67" stroke="#FD9001"/>
<path d="M196.525 107.495L200.4 113.8" stroke="#FD9001"/>
<path d="M264.338 107.448L273.245 112.347" stroke="#FD9001"/>
<path d="M274.355 108.321L279.115 110.21" stroke="#FD9001"/>
<path d="M276.233 107.578L283.911 110.813" stroke="#FD9001"/>
<path d="M276.245 107.684L280.911 109.643" stroke="#FD9001"/>
<path d="M279.328 107.424L283.876 109.514" stroke="#FD9001"/>
<path d="M280.781 107.601L288.553 111.556" stroke="#FD9001"/>
<path d="M292.593 108.203L299.137 111.863" stroke="#FD9001"/>
<path d="M305.078 108.215L311.102 111.958" stroke="#FD9001"/>
<path d="M307.535 107.341L315.378 112.43" stroke="#FD9001"/>
<path d="M309.248 107.743L316.17 112.524" stroke="#FD9001"/>
<path d="M309.224 107.813L315.355 112.064" stroke="#FD9001"/>
<path d="M311.469 108.132L315.945 111.639" stroke="#FD9001"/>
<path d="M311.728 107.802L317.245 112.123" stroke="#FD9001"/>
<path d="M330.309 107.589L335.305 111.804" stroke="#FD9001"/>
<path d="M188.859 110.47L193.123 116.61" stroke="#FD9001"/>
<path d="M195.734 110.329L198.557 115.11" stroke="#FD9001"/>
<path d="M274.095 109.951L282.871 113.292" stroke="#FD9001"/>
<path d="M283.958 110.612L288.081 112.973" stroke="#FD9001"/>
<path d="M285.47 109.998L293.042 114.732" stroke="#FD9001"/>
<path d="M288.092 110.458L294.672 114.709" stroke="#FD9001"/>
<path d="M292.9 109.821L299.007 113.457" stroke="#FD9001"/>
<path d="M302.539 109.939L309.98 114.874" stroke="#FD9001"/>
<path d="M309.496 110.021L317.847 116.539" stroke="#FD9001"/>
<path d="M328.95 109.797L335.979 116.031" stroke="#FD9001"/>
<path d="M374.675 111.792L378.254 114.107" stroke="#FD9001"/>
<path d="M295.593 113.056L302.314 117.495" stroke="#FD9001"/>
<path d="M308.87 111.84L314.103 116.515" stroke="#FD9001"/>
<path d="M309.496 112.1L316.004 117.908" stroke="#FD9001"/>
<path d="M309.638 112.56L315.461 117.779" stroke="#FD9001"/>
<path d="M312.425 112.43L318.036 117.967" stroke="#FD9001"/>
<path d="M297.755 115.157L301.995 118.345" stroke="#FD9001"/>
<path d="M299.704 114.284L306.909 119.963" stroke="#FD9001"/>
<path d="M294.896 116.692L302.539 122.265" stroke="#FD9001"/>
<path d="M295.747 117.708L304.358 123.977" stroke="#FD9001"/>
<path d="M550.604 115.972L552.529 118.629" stroke="#FD9001"/>
<path d="M243.372 119.703L246.856 124.862" stroke="#FD9001"/>
<path d="M561.944 121.922L565.582 128.026" stroke="#FD9001"/>
<path d="M582.402 121.108L584.315 124.119" stroke="#FD9001"/>
<path d="M494.154 126.775L497.237 129.054" stroke="#FD9001"/>
<path d="M446.315 131.108L447.107 133.882" stroke="#FD9001"/>
<path d="M592.797 131.887L597.97 137.023" stroke="#FD9001"/>
<path d="M593.364 131.616L601.608 139.821" stroke="#FD9001"/>
<path d="M595.785 131.108L600.297 135.405" stroke="#FD9001"/>
<path d="M606.711 132.111L618.547 137.956" stroke="#FD9001"/>
<path d="M606.888 131.309L614.176 134.91" stroke="#FD9001"/>
<path d="M520.14 134.426L523.176 137" stroke="#FD9001"/>
<path d="M588.355 133.693L594.084 139.845" stroke="#FD9001"/>
<path d="M597.911 134.06L604.431 139.207" stroke="#FD9001"/>
<path d="M599.931 134.225L607.03 139.148" stroke="#FD9001"/>
<path d="M605.164 134.178L611.554 137.507" stroke="#FD9001"/>
<path d="M605.01 133.563L611.377 136.881" stroke="#FD9001"/>
<path d="M604.833 134.06L610.715 137.117" stroke="#FD9001"/>
<path d="M607.089 134L612.806 136.492" stroke="#FD9001"/>
<path d="M472.691 135.937L481.149 147.448" stroke="#FD9001"/>
<path d="M482.413 135.831L486.689 140.105" stroke="#FD9001"/>
<path d="M579.142 135.937L581.894 140.258" stroke="#FD9001"/>
<path d="M585.839 135.949L591.131 141.946" stroke="#FD9001"/>
<path d="M590.836 136.539L595.265 140.423" stroke="#FD9001"/>
<path d="M597.947 135.653L602.518 138.77" stroke="#FD9001"/>
<path d="M597.51 136.551L602.329 139.833" stroke="#FD9001"/>
<path d="M599.907 136.161L604.88 139.101" stroke="#FD9001"/>
<path d="M602.317 135.736L607.94 138.582" stroke="#FD9001"/>
<path d="M604.384 135.653L609.487 137.908" stroke="#FD9001"/>
<path d="M489.24 138.192L494.721 142.584" stroke="#FD9001"/>
<path d="M495.737 138.794L500.084 142.005" stroke="#FD9001"/>
<path d="M501.017 138.771L507.242 143.942" stroke="#FD9001"/>
<path d="M500.934 138.806L507.088 143.918" stroke="#FD9001"/>
<path d="M505.683 138.936L512.498 143.953" stroke="#FD9001"/>
<path d="M514.648 137.519L529.791 149.514" stroke="#FD9001"/>
<path d="M578.74 138.688L583.111 145.075" stroke="#FD9001"/>
<path d="M578.681 138.039L581.823 142.643" stroke="#FD9001"/>
<path d="M581.209 138.428L586.619 145.725" stroke="#FD9001"/>
<path d="M587.824 138.487L594.096 144.107" stroke="#FD9001"/>
<path d="M600.285 138.322L607.975 142.301" stroke="#FD9001"/>
<path d="M611.566 138.251L619.917 140.719" stroke="#FD9001"/>
<path d="M708.602 138.947L710.221 141.202" stroke="#FD9001"/>
<path d="M460.501 141.167L462.828 147.283" stroke="#FD9001"/>
<path d="M482.72 141.061L494.638 151.616" stroke="#FD9001"/>
<path d="M486.842 141.438L491.862 145.642" stroke="#FD9001"/>
<path d="M489.335 140.801L493.894 144.461" stroke="#FD9001"/>
<path d="M496.268 141.155L503.273 146.563" stroke="#FD9001"/>
<path d="M498.524 141.096L502.505 144.378" stroke="#FD9001"/>
<path d="M503.781 140.601L510.147 145.725" stroke="#FD9001"/>
<path d="M509.84 140.978L518.404 147.295" stroke="#FD9001"/>
<path d="M517.684 141.179L523.353 145.712" stroke="#FD9001"/>
<path d="M519.491 140.766L526.035 145.878" stroke="#FD9001"/>
<path d="M522.066 141.214L529.685 147.247" stroke="#FD9001"/>
<path d="M526.944 140.601L531.858 145.241" stroke="#FD9001"/>
<path d="M529.342 141.462L534.421 146.74" stroke="#FD9001"/>
<path d="M534.362 140.742L537.658 144.603" stroke="#FD9001"/>
<path d="M534.551 140.542L540.812 147.897" stroke="#FD9001"/>
<path d="M536.63 140.471L544.946 150.813" stroke="#FD9001"/>
<path d="M540.812 140.789L545.785 148.31" stroke="#FD9001"/>
<path d="M546.151 140.612L549.742 147.354" stroke="#FD9001"/>
<path d="M574.086 140.246L577.63 145.972" stroke="#FD9001"/>
<path d="M607.089 140.801L613.22 143.056" stroke="#FD9001"/>
<path d="M607.077 140.955L616.444 144.39" stroke="#FD9001"/>
<path d="M610.078 141.415L617.342 143.953" stroke="#FD9001"/>
<path d="M613.763 140.364L618.641 141.887" stroke="#FD9001"/>
<path d="M524.287 143.646L529.531 148.145" stroke="#FD9001"/>
<path d="M524.629 143.505L531.244 149.184" stroke="#FD9001"/>
<path d="M526.661 143.422L533.134 149.786" stroke="#FD9001"/>
<path d="M526.85 143.469L530.547 147.106" stroke="#FD9001"/>
<path d="M527.299 143.292L532.543 148.452" stroke="#FD9001"/>
<path d="M547.816 143.328L551.112 150.234" stroke="#FD9001"/>
<path d="M548.702 143.906L552.529 151.911" stroke="#FD9001"/>
<path d="M564.507 142.844L567.188 147.838" stroke="#FD9001"/>
<path d="M567.105 143.068L569.527 147.79" stroke="#FD9001"/>
<path d="M573.767 142.985L578.48 150.624" stroke="#FD9001"/>
<path d="M583.17 142.903L587.233 147.082" stroke="#FD9001"/>
<path d="M583.264 143.328L589.725 149.975" stroke="#FD9001"/>
<path d="M583.111 143.104L588.875 149.042" stroke="#FD9001"/>
<path d="M588.603 143.091L595.183 148.699" stroke="#FD9001"/>
<path d="M590.942 143.587L597.923 148.782" stroke="#FD9001"/>
<path d="M592.856 143.481L600.77 148.688" stroke="#FD9001"/>
<path d="M595.36 143.387L602.27 147.425" stroke="#FD9001"/>
<path d="M527.051 145.831L530.689 149.467" stroke="#FD9001"/>
<path d="M531.693 145.771L535.154 150.093" stroke="#FD9001"/>
<path d="M561.873 146.173L565.192 151.97" stroke="#FD9001"/>
<path d="M564.767 145.725L568.724 153.21" stroke="#FD9001"/>
<path d="M567.519 145.252L570.625 151.415" stroke="#FD9001"/>
<path d="M571.547 145.831L575.823 153.422" stroke="#FD9001"/>
<path d="M576.661 145.677L580.193 150.837" stroke="#FD9001"/>
<path d="M584.056 145.771L589.218 150.919" stroke="#FD9001"/>
<path d="M592.82 145.37L597.261 148.275" stroke="#FD9001"/>
<path d="M603.038 145.996L613.456 150.046" stroke="#FD9001"/>
<path d="M623.78 146.173L628.965 146.869" stroke="#FD9001"/>
<path d="M623.52 145.229L628.977 145.972" stroke="#FD9001"/>
<path d="M528.87 148.157L533.772 153.847" stroke="#FD9001"/>
<path d="M531.468 147.838L536.996 154.768" stroke="#FD9001"/>
<path d="M567.2 147.767L570.59 154.225" stroke="#FD9001"/>
<path d="M569.539 147.755L573.283 154.638" stroke="#FD9001"/>
<path d="M569.633 147.684L573.744 155.24" stroke="#FD9001"/>
<path d="M571.44 147.625L574.996 153.647" stroke="#FD9001"/>
<path d="M576.78 147.968L581.504 154.65" stroke="#FD9001"/>
<path d="M592.797 148.18L599.352 152.49" stroke="#FD9001"/>
<path d="M611.436 148.027L625.965 153.907" stroke="#FD9001"/>
<path d="M614.637 148.287L621.24 150.542" stroke="#FD9001"/>
<path d="M617.047 148.015L621.878 149.278" stroke="#FD9001"/>
<path d="M618.901 147.708L627.654 149.444" stroke="#FD9001"/>
<path d="M486.204 150.282L498.229 159.455" stroke="#FD9001"/>
<path d="M519.514 150.034L525.739 154.709" stroke="#FD9001"/>
<path d="M615.027 149.88L623.224 152.584" stroke="#FD9001"/>
<path d="M616.917 150.624L622.646 152.147" stroke="#FD9001"/>
<path d="M486.583 152.726L492.748 157.46" stroke="#FD9001"/>
<path d="M491.579 152.69L498.3 158.393" stroke="#FD9001"/>
<path d="M494.366 152.372L500.662 157.708" stroke="#FD9001"/>
<path d="M498.052 152.974L506.994 159.314" stroke="#FD9001"/>
<path d="M509.144 153.104L512.132 155.134" stroke="#FD9001"/>
<path d="M574.382 152.926L579.165 159.266" stroke="#FD9001"/>
<path d="M476.684 155.075L480.865 159.762" stroke="#FD9001"/>
<path d="M480.18 155.276L486.453 161.687" stroke="#FD9001"/>
<path d="M553.002 156.48L555.27 159.703" stroke="#FD9001"/>
<path d="M465.309 157.141L468.451 162.914" stroke="#FD9001"/>
<path d="M470.731 157.389L475.314 164.78" stroke="#FD9001"/>
<path d="M470.518 157.838L473.837 163.21" stroke="#FD9001"/>
<path d="M629.072 157.566L635.131 159.278" stroke="#FD9001"/>
<path d="M477.44 159.904L482.767 166.208" stroke="#FD9001"/>
<path d="M623.567 159.396L630.513 161.663" stroke="#FD9001"/>
<path d="M626.402 160.105L633.702 162.525" stroke="#FD9001"/>
<path d="M391.92 161.875L398.417 164.78" stroke="#FD9001"/>
<path d="M397.649 161.356L405.918 164.946" stroke="#FD9001"/>
<path d="M398.984 164.556L405.304 167.838" stroke="#FD9001"/>
<path d="M404.559 164.178L411.966 168.429" stroke="#FD9001"/>
<path d="M451.666 165.111L453.095 169.349" stroke="#FD9001"/>
<path d="M380.498 166.929L392.759 174.426" stroke="#FD9001"/>
<path d="M389.44 167.366L395.062 170.719" stroke="#FD9001"/>
<path d="M390.113 166.457L395.913 169.916" stroke="#FD9001"/>
<path d="M399.728 166.716L405.705 170.258" stroke="#FD9001"/>
<path d="M404.359 167.165L409.922 170.754" stroke="#FD9001"/>
<path d="M406.567 167.142L413.844 172.077" stroke="#FD9001"/>
<path d="M389.275 169.691L396.704 174.863" stroke="#FD9001"/>
<path d="M569.952 168.854L572.291 170.955" stroke="#FD9001"/>
<path d="M407.784 172.584L409.58 174.167" stroke="#FD9001"/>
<path d="M511.14 171.97L515.179 173.788" stroke="#FD9001"/>
<path d="M412.863 173.789L420.801 182.88" stroke="#FD9001"/>
<path d="M416.277 173.659L424.959 183.718" stroke="#FD9001"/>
<path d="M417.08 173.174L426.282 183.93" stroke="#FD9001"/>
<path d="M418.793 174.107L425.927 182.455" stroke="#FD9001"/>
<path d="M563.963 173.883L567.755 176.669" stroke="#FD9001"/>
<path d="M378.006 176.351L388.483 183.883" stroke="#FD9001"/>
<path d="M382.329 176.799L388.33 181.675" stroke="#FD9001"/>
<path d="M391.85 176.232L398.701 182.62" stroke="#FD9001"/>
<path d="M391.661 176.256L396.87 181.12" stroke="#FD9001"/>
<path d="M394.425 176.575L399.35 181.014" stroke="#FD9001"/>
<path d="M406.249 176.173L410.548 180.022" stroke="#FD9001"/>
<path d="M410.926 176.197L414.21 179.821" stroke="#FD9001"/>
<path d="M413.619 176.74L418.899 183.021" stroke="#FD9001"/>
<path d="M422.726 176.02L426.79 181.628" stroke="#FD9001"/>
<path d="M425.089 176.032L429.448 182.561" stroke="#FD9001"/>
<path d="M432.342 176.54L434.846 181.038" stroke="#FD9001"/>
<path d="M436.488 176.646L443.256 191.227" stroke="#FD9001"/>
<path d="M462.438 176.988L467.707 188.818" stroke="#FD9001"/>
<path d="M674.938 176.339L677.028 178.358" stroke="#FD9001"/>
<path d="M370.753 178.605L377.805 182.714" stroke="#FD9001"/>
<path d="M384.857 178.535L388.743 181.97" stroke="#FD9001"/>
<path d="M399.563 178.5L405.599 184.167" stroke="#FD9001"/>
<path d="M399.268 178.794L404.418 183.635" stroke="#FD9001"/>
<path d="M404.654 178.027L409.284 182.372" stroke="#FD9001"/>
<path d="M404.3 179.184L411.198 185.678" stroke="#FD9001"/>
<path d="M406.189 178.311L411.847 183.742" stroke="#FD9001"/>
<path d="M408.965 179.007L412.958 183.127" stroke="#FD9001"/>
<path d="M413.312 178.948L417.34 183.812" stroke="#FD9001"/>
<path d="M420.789 178.617L424.51 183.718" stroke="#FD9001"/>
<path d="M422.62 178.287L426.943 184.391" stroke="#FD9001"/>
<path d="M425.514 178.818L430.062 185.441" stroke="#FD9001"/>
<path d="M427.416 179.078L430.451 183.729" stroke="#FD9001"/>
<path d="M432.873 179.09L435.601 183.919" stroke="#FD9001"/>
<path d="M510.159 178.251L515.617 180.861" stroke="#FD9001"/>
<path d="M577.335 179.656L579.449 181.415" stroke="#FD9001"/>
<path d="M380.699 180.731L387.196 186.02" stroke="#FD9001"/>
<path d="M380.522 181.392L384.432 184.58" stroke="#FD9001"/>
<path d="M392.677 181.215L396.374 184.71" stroke="#FD9001"/>
<path d="M410.749 180.873L415.828 186.658" stroke="#FD9001"/>
<path d="M413.076 180.672L416.773 185.123" stroke="#FD9001"/>
<path d="M418.132 181.108L422.656 187.295" stroke="#FD9001"/>
<path d="M423.837 181.593L427.605 186.894" stroke="#FD9001"/>
<path d="M439.677 180.873L444.154 192.148" stroke="#FD9001"/>
<path d="M481.716 180.919L486.63 186.162" stroke="#FD9001"/>
<path d="M489.358 181.203L496.126 186.032" stroke="#FD9001"/>
<path d="M501.041 180.849L509.155 185.701" stroke="#FD9001"/>
<path d="M500.521 181.628L505.009 184.308" stroke="#FD9001"/>
<path d="M505.552 180.447L512.652 184.119" stroke="#FD9001"/>
<path d="M508.033 181.014L512.557 183.269" stroke="#FD9001"/>
<path d="M510.195 180.483L517.081 184.084" stroke="#FD9001"/>
<path d="M512.876 181.062L518.629 184.462" stroke="#FD9001"/>
<path d="M514.802 180.943L520.908 185.005" stroke="#FD9001"/>
<path d="M380.463 183.588L392.866 194.072" stroke="#FD9001"/>
<path d="M404.796 183.729L416.442 196.339" stroke="#FD9001"/>
<path d="M411.162 183.624L416.49 189.68" stroke="#FD9001"/>
<path d="M430.274 183.139L431.94 185.607" stroke="#FD9001"/>
<path d="M434.243 183.895L436.972 188.759" stroke="#FD9001"/>
<path d="M436.617 183.564L439.452 189.397" stroke="#FD9001"/>
<path d="M439.145 183.281L442.051 190.376" stroke="#FD9001"/>
<path d="M482.743 183.741L491.496 193.281" stroke="#FD9001"/>
<path d="M486.7 183.966L490.681 187.26" stroke="#FD9001"/>
<path d="M486.96 183.116L491.721 187.047" stroke="#FD9001"/>
<path d="M517.495 183.151L521.971 186.575" stroke="#FD9001"/>
<path d="M522.444 183.647L530.24 189.81" stroke="#FD9001"/>
<path d="M521.641 183.21L526.897 187.366" stroke="#FD9001"/>
</svg>
